<svg version="1.1" xmlns="http://www.w3.org/2000/svg" width="200" height="200">
    <path
        d="M0 0 C1.051875 -0.00773437 2.10375 -0.01546875 3.1875 -0.0234375 C6 0.375 6 0.375 7.6574707 1.58081055 C9.45866333 3.98796905 9.34473503 5.49528022 9.29296875 8.48046875 C9.28330078 9.46337891 9.27363281 10.44628906 9.26367188 11.45898438 C9.23853516 12.48314453 9.21339844 13.50730469 9.1875 14.5625 C9.16719727 16.11614258 9.16719727 16.11614258 9.14648438 17.70117188 C9.11111389 20.25963699 9.06175544 22.8170578 9 25.375 C10.134375 25.354375 11.26875 25.33375 12.4375 25.3125 C16 25.375 16 25.375 17 26.375 C17.08685603 27.93672745 17.10702219 29.50229344 17.09765625 31.06640625 C17.09443359 32.01064453 17.09121094 32.95488281 17.08789062 33.92773438 C17.07532227 35.41756836 17.07532227 35.41756836 17.0625 36.9375 C17.05798828 37.93458984 17.05347656 38.93167969 17.04882812 39.95898438 C17.03700007 42.43104849 17.02051849 44.90299518 17 47.375 C14.36 47.375 11.72 47.375 9 47.375 C9.00276538 47.93914517 9.00553076 48.50329035 9.00837994 49.08453083 C9.07460399 62.80506157 9.12407166 76.52556434 9.15543652 90.24622059 C9.17111285 96.88141128 9.19238718 103.51648688 9.22631836 110.15161133 C9.25884137 116.55120161 9.27683818 122.95068099 9.28463173 129.35034752 C9.29018792 131.79566889 9.30103734 134.24098398 9.31719017 136.68625832 C9.33887029 140.10322968 9.34197083 143.51973885 9.34057617 146.93676758 C9.351362 147.95456299 9.36214783 148.9723584 9.3732605 150.02099609 C9.36707451 151.4155175 9.36707451 151.4155175 9.36076355 152.83821106 C9.36352893 153.64662351 9.36629431 154.45503595 9.36914349 155.28794575 C8.90533179 157.91023277 8.10970987 158.79089546 6 160.375 C3.1875 160.7734375 3.1875 160.7734375 0 160.75 C-1.051875 160.75773438 -2.10375 160.76546875 -3.1875 160.7734375 C-6.39803414 160.31861183 -7.07214416 159.89245042 -9 157.375 C-9.36914349 155.28794575 -9.36914349 155.28794575 -9.36076355 152.83821106 C-9.36488754 151.90853012 -9.36901154 150.97884918 -9.3732605 150.02099609 C-9.36247467 149.00320068 -9.35168884 147.98540527 -9.34057617 146.93676758 C-9.34101425 145.86343674 -9.34145233 144.7901059 -9.34190369 143.68424988 C-9.3398102 140.12915996 -9.31645218 136.574539 -9.29296875 133.01953125 C-9.2873748 130.55759438 -9.28310376 128.09565417 -9.28010559 125.63371277 C-9.26864104 119.14811004 -9.23915979 112.66270828 -9.20599365 106.17718506 C-9.17532758 99.5615104 -9.16160765 92.94580334 -9.14648438 86.33007812 C-9.11429182 73.34496625 -9.06365104 60.35999381 -9 47.375 C-11.64 47.375 -14.28 47.375 -17 47.375 C-17.02887814 43.89585059 -17.04675687 40.41673169 -17.0625 36.9375 C-17.07087891 35.94427734 -17.07925781 34.95105469 -17.08789062 33.92773438 C-17.09111328 32.98349609 -17.09433594 32.03925781 -17.09765625 31.06640625 C-17.10289307 30.19185791 -17.10812988 29.31730957 -17.11352539 28.41625977 C-17 26.375 -17 26.375 -16 25.375 C-13.66702567 25.33407063 -11.33294775 25.33258277 -9 25.375 C-9.01571045 24.72426514 -9.0314209 24.07353027 -9.04760742 23.40307617 C-9.10994649 20.45630576 -9.14898684 17.50967402 -9.1875 14.5625 C-9.21263672 13.53833984 -9.23777344 12.51417969 -9.26367188 11.45898438 C-9.27333984 10.47607422 -9.28300781 9.49316406 -9.29296875 8.48046875 C-9.31653442 7.12151489 -9.31653442 7.12151489 -9.34057617 5.73510742 C-9 3.375 -9 3.375 -7.6574707 1.58081055 C-5.15423512 -0.24029426 -3.05179316 -0.02243966 0 0 Z "
        fill="#1791E7" transform="translate(100,19.625)" />
    <path
        d="M0 0 C1.43859375 -0.00773437 1.43859375 -0.00773437 2.90625 -0.015625 C5.5 0.25 5.5 0.25 8.5 2.25 C8.78613439 5.15070054 8.87808727 7.83696591 8.84057617 10.73876953 C8.84123329 12.05593964 8.84123329 12.05593964 8.84190369 13.39971924 C8.8398086 16.31097416 8.81644375 19.22165782 8.79296875 22.1328125 C8.78737536 24.14777308 8.78310405 26.16273774 8.78010559 28.17770386 C8.76863663 33.48788668 8.73915182 38.79782437 8.70599365 44.10791016 C8.67533693 49.52372928 8.66160967 54.93958792 8.64648438 60.35546875 C8.61428408 70.98708703 8.56306299 81.61852315 8.5 92.25 C11.14 92.25 13.78 92.25 16.5 92.25 C16.52887814 95.72914941 16.54675687 99.20826831 16.5625 102.6875 C16.57087891 103.68072266 16.57925781 104.67394531 16.58789062 105.69726562 C16.59111328 106.64150391 16.59433594 107.58574219 16.59765625 108.55859375 C16.60289307 109.43314209 16.60812988 110.30769043 16.61352539 111.20874023 C16.5 113.25 16.5 113.25 15.5 114.25 C13.16702567 114.29092937 10.83294775 114.29241723 8.5 114.25 C8.50666183 114.79679413 8.51332367 115.34358826 8.52018738 115.9069519 C8.58641995 121.58422989 8.63174995 127.26139864 8.66479492 132.93896484 C8.67990645 135.05945288 8.7003964 137.17990954 8.72631836 139.30029297 C8.76259786 142.34350311 8.77970242 145.38630103 8.79296875 148.4296875 C8.80845261 149.38181122 8.82393646 150.33393494 8.83988953 151.31491089 C8.84011612 152.19567291 8.84034271 153.07643494 8.84057617 153.98388672 C8.84723801 154.76110077 8.85389984 155.53831482 8.86076355 156.33908081 C8.74171158 156.96968414 8.62265961 157.60028748 8.5 158.25 C5.14802157 160.48465229 3.92208754 160.52108649 0 160.5 C-1.43859375 160.50773437 -1.43859375 160.50773437 -2.90625 160.515625 C-5.5 160.25 -5.5 160.25 -8.5 158.25 C-8.86076355 156.33908081 -8.86076355 156.33908081 -8.84057617 153.98388672 C-8.84034958 153.10312469 -8.84012299 152.22236267 -8.83988953 151.31491089 C-8.82440567 150.36278717 -8.80892181 149.41066345 -8.79296875 148.4296875 C-8.78872391 147.45589142 -8.78447906 146.48209534 -8.78010559 145.47879028 C-8.76327786 142.36058195 -8.72561811 139.24301383 -8.6875 136.125 C-8.67245846 134.01433223 -8.65876914 131.90365436 -8.64648438 129.79296875 C-8.61336109 124.61175977 -8.56312151 119.43092561 -8.5 114.25 C-9.799375 114.270625 -11.09875 114.29125 -12.4375 114.3125 C-13.79165633 114.33399454 -15.14756083 114.32148199 -16.5 114.25 C-18.08937556 112.66062444 -17.62981143 111.01100154 -17.6328125 108.8125 C-17.63410156 107.91789062 -17.63539063 107.02328125 -17.63671875 106.1015625 C-17.63091797 104.69003906 -17.63091797 104.69003906 -17.625 103.25 C-17.62886719 102.30898437 -17.63273438 101.36796875 -17.63671875 100.3984375 C-17.63542969 99.50382812 -17.63414062 98.60921875 -17.6328125 97.6875 C-17.63112061 96.44806641 -17.63112061 96.44806641 -17.62939453 95.18359375 C-17.5 93.25 -17.5 93.25 -16.5 92.25 C-13.82941149 92.10884839 -11.17567762 92.20752893 -8.5 92.25 C-8.50666183 91.12691437 -8.51332367 90.00382874 -8.52018738 88.84671021 C-8.58090805 78.28117188 -8.62592905 67.71566879 -8.65543652 57.1499958 C-8.67111639 51.71759922 -8.69239695 46.28534308 -8.72631836 40.85302734 C-8.7588291 35.61404915 -8.7768355 30.37520635 -8.78463173 25.1361351 C-8.79019017 23.13376609 -8.80104391 21.13140479 -8.81719017 19.12909317 C-8.83885442 16.33215359 -8.84197157 13.53577901 -8.84057617 10.73876953 C-8.851362 9.90439362 -8.86214783 9.0700177 -8.8732605 8.21035767 C-8.86076355 5.90725708 -8.86076355 5.90725708 -8.5 2.25 C-5.14802157 0.01534771 -3.92208754 -0.02108649 0 0 Z "
        fill="#CED3D6" transform="translate(158.5,19.75)" />
    <path
        d="M0 0 C1.43859375 -0.00773437 1.43859375 -0.00773437 2.90625 -0.015625 C5.5 0.25 5.5 0.25 8.5 2.25 C8.86076355 4.80630493 8.86076355 4.80630493 8.84057617 8.07666016 C8.84034958 9.29777496 8.84012299 10.51888977 8.83988953 11.77700806 C8.82456852 13.11436323 8.80892051 14.4517147 8.79296875 15.7890625 C8.78737422 17.15383438 8.78310344 18.51861228 8.78010559 19.88339233 C8.7686454 23.47730107 8.73916871 27.07084667 8.70599365 30.66461182 C8.67531771 34.3310454 8.66160559 37.9975376 8.64648438 41.6640625 C8.61429964 48.85954064 8.56308972 56.05471946 8.5 63.25 C9.799375 63.229375 11.09875 63.20875 12.4375 63.1875 C13.79165633 63.16600546 15.14756083 63.17851801 16.5 63.25 C17.5 64.25 17.5 64.25 17.61352539 66.19946289 C17.60828857 67.0321167 17.60305176 67.86477051 17.59765625 68.72265625 C17.59443359 69.62177734 17.59121094 70.52089844 17.58789062 71.44726562 C17.57532227 72.86555664 17.57532227 72.86555664 17.5625 74.3125 C17.55798828 75.26189453 17.55347656 76.21128906 17.54882812 77.18945312 C17.5370011 79.54303065 17.52052025 81.89648477 17.5 84.25 C14.54335481 85.7283226 11.75770263 85.31032783 8.5 85.25 C8.50666183 86.16010834 8.51332367 87.07021667 8.52018738 88.00790405 C8.58022252 96.57204886 8.62593563 105.13612331 8.65543652 113.70042992 C8.67111294 118.10376311 8.69238698 122.50692288 8.72631836 126.91015625 C8.75884175 131.15710791 8.77683811 135.40389246 8.78463173 139.65095901 C8.79018792 141.27374529 8.80103743 142.89652212 8.81719017 144.51923752 C8.83887178 146.7869541 8.84197091 149.05397431 8.84057617 151.32177734 C8.84723801 152.61417328 8.85389984 153.90656921 8.86076355 155.23812866 C8.74171158 156.2320462 8.62265961 157.22596375 8.5 158.25 C5.14802157 160.48465229 3.92208754 160.52108649 0 160.5 C-1.43859375 160.50773437 -1.43859375 160.50773437 -2.90625 160.515625 C-5.5 160.25 -5.5 160.25 -8.5 158.25 C-8.86076355 155.23812866 -8.86076355 155.23812866 -8.84057617 151.32177734 C-8.84101425 150.60947464 -8.84145233 149.89717194 -8.84190369 149.1632843 C-8.8398101 146.80389188 -8.81645325 144.44520609 -8.79296875 142.0859375 C-8.7873748 140.45212187 -8.78310375 138.81830122 -8.78010559 137.18447876 C-8.76864094 132.88039298 -8.73916008 128.57661002 -8.70599365 124.27264404 C-8.67532751 119.88232521 -8.66160767 115.49195753 -8.64648438 111.1015625 C-8.61429171 102.4842359 -8.56307608 93.8671556 -8.5 85.25 C-9.634375 85.270625 -10.76875 85.29125 -11.9375 85.3125 C-15.5 85.25 -15.5 85.25 -16.5 84.25 C-16.58685603 82.68827255 -16.60702219 81.12270656 -16.59765625 79.55859375 C-16.59443359 78.61435547 -16.59121094 77.67011719 -16.58789062 76.69726562 C-16.57951172 75.70404297 -16.57113281 74.71082031 -16.5625 73.6875 C-16.55798828 72.69041016 -16.55347656 71.69332031 -16.54882812 70.66601562 C-16.53700007 68.19395151 -16.52051849 65.72200482 -16.5 63.25 C-13.86 63.25 -11.22 63.25 -8.5 63.25 C-8.50666183 62.49022858 -8.51332367 61.73045715 -8.52018738 60.94766235 C-8.58023631 53.79625874 -8.62594245 46.64497692 -8.65543652 39.49338722 C-8.67110937 35.81644585 -8.69237658 32.13971235 -8.72631836 28.46289062 C-8.75885497 24.91619187 -8.77684081 21.36969336 -8.78463173 17.8228569 C-8.79018558 16.46800965 -8.80103069 15.11317367 -8.81719017 13.75841141 C-8.83888603 11.86460255 -8.84022473 9.97059325 -8.84057617 8.07666016 C-8.84723801 6.99744293 -8.85389984 5.91822571 -8.86076355 4.80630493 C-8.74171158 3.9627243 -8.62265961 3.11914368 -8.5 2.25 C-5.14802157 0.01534771 -3.92208754 -0.02108649 0 0 Z "
        fill="#CFD3D6" transform="translate(41.5,19.75)" />
    <path
        d="M0 0 C5.61 0 11.22 0 17 0 C17.0676934 9.61385158 17.12276824 19.22754568 17.15543652 28.84158134 C17.17111319 33.30544746 17.19238769 37.76914251 17.22631836 42.23291016 C17.25884085 46.53821628 17.27683792 50.84335756 17.28463173 55.14877701 C17.29018808 56.79389162 17.30103789 58.4389969 17.31719017 60.0840416 C17.33887053 62.38288846 17.34197096 64.68104834 17.34057617 66.97998047 C17.34723801 68.2901413 17.35389984 69.60030212 17.36076355 70.95016479 C17.24171158 71.95661041 17.12265961 72.96305603 17 74 C13.64802157 76.23465229 12.42208754 76.27108649 8.5 76.25 C7.06140625 76.25773437 7.06140625 76.25773437 5.59375 76.265625 C3 76 3 76 0 74 C-0.36076355 70.95016479 -0.36076355 70.95016479 -0.34057617 66.97998047 C-0.34101425 66.25792419 -0.34145233 65.53586792 -0.34190369 64.79193115 C-0.33980999 62.40007692 -0.31645257 60.0089196 -0.29296875 57.6171875 C-0.28737484 55.96095157 -0.28310377 54.30471068 -0.28010559 52.64846802 C-0.26864063 48.2852004 -0.23915948 43.92223148 -0.20599365 39.55908203 C-0.17532818 35.10843955 -0.16160781 30.65774889 -0.14648438 26.20703125 C-0.1142911 17.47120169 -0.06150993 8.73567239 0 0 Z "
        fill="#1791E7" transform="translate(33,104)" />
    <path
        d="M0 0 C1.051875 -0.00773437 2.10375 -0.01546875 3.1875 -0.0234375 C6 0.375 6 0.375 7.6574707 1.58081055 C9.45866333 3.98796905 9.34473503 5.49528022 9.29296875 8.48046875 C9.28330078 9.46337891 9.27363281 10.44628906 9.26367188 11.45898438 C9.23853516 12.48314453 9.21339844 13.50730469 9.1875 14.5625 C9.16719727 16.11614258 9.16719727 16.11614258 9.14648438 17.70117188 C9.11111389 20.25963699 9.06175544 22.8170578 9 25.375 C10.134375 25.354375 11.26875 25.33375 12.4375 25.3125 C16 25.375 16 25.375 17 26.375 C17.08685603 27.93672745 17.10702219 29.50229344 17.09765625 31.06640625 C17.09515869 31.91662354 17.09266113 32.76684082 17.09008789 33.64282227 C17.08098389 34.73006592 17.07187988 35.81730957 17.0625 36.9375 C17.041875 40.381875 17.02125 43.82625 17 47.375 C5.78 47.375 -5.44 47.375 -17 47.375 C-17.020625 43.930625 -17.04125 40.48625 -17.0625 36.9375 C-17.071604 35.85025635 -17.08070801 34.7630127 -17.09008789 33.64282227 C-17.09258545 32.79260498 -17.09508301 31.9423877 -17.09765625 31.06640625 C-17.10289307 30.19185791 -17.10812988 29.31730957 -17.11352539 28.41625977 C-17 26.375 -17 26.375 -16 25.375 C-13.66702567 25.33407063 -11.33294775 25.33258277 -9 25.375 C-9.01571045 24.72426514 -9.0314209 24.07353027 -9.04760742 23.40307617 C-9.10994649 20.45630576 -9.14898684 17.50967402 -9.1875 14.5625 C-9.21263672 13.53833984 -9.23777344 12.51417969 -9.26367188 11.45898438 C-9.27333984 10.47607422 -9.28300781 9.49316406 -9.29296875 8.48046875 C-9.31653442 7.12151489 -9.31653442 7.12151489 -9.34057617 5.73510742 C-9 3.375 -9 3.375 -7.6574707 1.58081055 C-5.15423512 -0.24029426 -3.05179316 -0.02243966 0 0 Z "
        fill="#82EBFE" transform="translate(100,19.625)" />
    <path
        d="M0 0 C5.61 0 11.22 0 17 0 C17.07400528 6.37204425 17.12853333 12.74383989 17.16479492 19.11621094 C17.179907 21.28520056 17.20039735 23.4541595 17.22631836 25.62304688 C17.26259534 28.73575396 17.2797019 31.84805805 17.29296875 34.9609375 C17.30845261 35.934935 17.32393646 36.9089325 17.33988953 37.91244507 C17.34011612 38.81322784 17.34034271 39.71401062 17.34057617 40.64208984 C17.34723801 41.43706879 17.35389984 42.23204773 17.36076355 43.05111694 C17.18218559 44.01581406 17.18218559 44.01581406 17 45 C13.64802157 47.23465229 12.42208754 47.27108649 8.5 47.25 C7.06140625 47.25773437 7.06140625 47.25773437 5.59375 47.265625 C3 47 3 47 0 45 C-0.36076355 43.05111694 -0.36076355 43.05111694 -0.34057617 40.64208984 C-0.34034958 39.74130707 -0.34012299 38.84052429 -0.33988953 37.91244507 C-0.32440567 36.93844757 -0.30892181 35.96445007 -0.29296875 34.9609375 C-0.28872391 33.96494537 -0.28447906 32.96895325 -0.28010559 31.94277954 C-0.2632768 28.75324775 -0.22561676 25.56434167 -0.1875 22.375 C-0.1724586 20.21615494 -0.15876925 18.0573 -0.14648438 15.8984375 C-0.11335949 10.59871626 -0.06154828 5.29946431 0 0 Z "
        fill="#1993E8" transform="translate(150,133)" />
    <path
        d="M0 0 C4.68139254 -0.02465288 9.36274759 -0.04283739 14.04418945 -0.05493164 C15.63794614 -0.05997157 17.23169819 -0.0668035 18.82543945 -0.07543945 C21.11150253 -0.08751999 23.39750467 -0.09323155 25.68359375 -0.09765625 C26.40026718 -0.10281754 27.11694061 -0.10797882 27.85533142 -0.11329651 C29.57063672 -0.11349263 31.28581266 -0.06192007 33 0 C34 1 34 1 34.11352539 2.94946289 C34.10828857 3.7821167 34.10305176 4.61477051 34.09765625 5.47265625 C34.09443359 6.37177734 34.09121094 7.27089844 34.08789062 8.19726562 C34.07532227 9.61555664 34.07532227 9.61555664 34.0625 11.0625 C34.05798828 12.01189453 34.05347656 12.96128906 34.04882812 13.93945312 C34.0370011 16.29303065 34.02052025 18.64648477 34 21 C31.03749913 22.48125044 28.36087105 22.12990684 25.05859375 22.1328125 C24.37571793 22.13376923 23.6928421 22.13472595 22.98927307 22.13571167 C21.54598905 22.13639223 20.10270197 22.1345466 18.65942383 22.13037109 C16.44280172 22.12501282 14.22638148 22.13032443 12.00976562 22.13671875 C10.60937455 22.13605811 9.2089836 22.13477723 7.80859375 22.1328125 C5.88744751 22.13112061 5.88744751 22.13112061 3.92749023 22.12939453 C1 22 1 22 0 21 C-0.08685603 19.43827255 -0.10702219 17.87270656 -0.09765625 16.30859375 C-0.09443359 15.36435547 -0.09121094 14.42011719 -0.08789062 13.44726562 C-0.07951172 12.45404297 -0.07113281 11.46082031 -0.0625 10.4375 C-0.05798828 9.44041016 -0.05347656 8.44332031 -0.04882812 7.41601562 C-0.03700007 4.94395151 -0.02051849 2.47200482 0 0 Z "
        fill="#7CE8FE" transform="translate(25,83)" />
    <path
        d="M0 0 C1.39120471 0.00015906 2.78241534 0.00585033 4.17358398 0.01586914 C4.90463852 0.01728409 5.63569305 0.01869904 6.38890076 0.02015686 C8.73253406 0.02577131 11.07607313 0.03832617 13.41967773 0.05102539 C15.00496282 0.05603853 16.59024939 0.06060176 18.17553711 0.06469727 C22.06945383 0.07574542 25.96329979 0.09301967 29.85717773 0.11352539 C29.88605587 3.5926748 29.9039346 7.0717937 29.91967773 10.55102539 C29.92805664 11.54424805 29.93643555 12.5374707 29.94506836 13.56079102 C29.94829102 14.5050293 29.95151367 15.44926758 29.95483398 16.42211914 C29.9600708 17.29666748 29.96530762 18.17121582 29.97070312 19.07226562 C29.85717773 21.11352539 29.85717773 21.11352539 28.85717773 22.11352539 C26.49319305 22.21430659 24.15906462 22.25325754 21.79467773 22.24633789 C21.08819092 22.24729462 20.3817041 22.24825134 19.65380859 22.24923706 C18.1574698 22.24991872 16.66112806 22.24806544 15.16479492 22.24389648 C12.86687616 22.23854796 10.56915287 22.2438419 8.27124023 22.25024414 C6.82071897 22.24958336 5.37019782 22.24830219 3.91967773 22.24633789 C2.88218384 22.24937424 2.88218384 22.24937424 1.82373047 22.25247192 C-3.02787003 22.22847763 -3.02787003 22.22847763 -4.14282227 21.11352539 C-4.24163024 19.63699875 -4.27361472 18.15585303 -4.27563477 16.67602539 C-4.27692383 15.78141602 -4.27821289 14.88680664 -4.27954102 13.96508789 C-4.27374023 12.55356445 -4.27374023 12.55356445 -4.26782227 11.11352539 C-4.27168945 10.17250977 -4.27555664 9.23149414 -4.27954102 8.26196289 C-4.27825195 7.36735352 -4.27696289 6.47274414 -4.27563477 5.55102539 C-4.27394287 4.3115918 -4.27394287 4.3115918 -4.2722168 3.04711914 C-4.0518498 -0.24591222 -3.37613754 0.12195323 0 0 Z "
        fill="#7DE8FF" transform="translate(145.142822265625,111.886474609375)" />
    <path
        d="M0 0 C1.051875 -0.00773437 2.10375 -0.01546875 3.1875 -0.0234375 C6 0.375 6 0.375 7.6574707 1.56713867 C9.4892091 4.03377312 9.34353315 5.64849981 9.29296875 8.69921875 C9.28330078 9.72724609 9.27363281 10.75527344 9.26367188 11.81445312 C9.23853516 12.88630859 9.21339844 13.95816406 9.1875 15.0625 C9.16719727 16.68768555 9.16719727 16.68768555 9.14648438 18.34570312 C9.11111023 21.02234704 9.05730304 23.69873575 9 26.375 C3.06 26.375 -2.88 26.375 -9 26.375 C-9.08074862 22.60374047 -9.1403818 18.83420007 -9.1875 15.0625 C-9.21263672 13.99064453 -9.23777344 12.91878906 -9.26367188 11.81445312 C-9.27333984 10.78642578 -9.28300781 9.75839844 -9.29296875 8.69921875 C-9.3086792 7.75135498 -9.32438965 6.80349121 -9.34057617 5.8269043 C-9 3.375 -9 3.375 -7.6574707 1.56713867 C-5.15167543 -0.23515891 -3.04365653 -0.02237983 0 0 Z "
        fill="#CBD0D4" transform="translate(100,19.625)" />
</svg>