<svg xmlns="http://www.w3.org/2000/svg" version="1.1" viewBox="0.00 0.00 200.00 200.00"
    width="200.00" height="200.00">
    <g stroke-width="2.00" fill="none" stroke-linecap="butt">
        <path stroke="#f4f8fb"
            d="&#10;  M 196.91 43.44&#10;  Q 193.07 40.65 191.00 40.65&#10;  Q 140.52 40.61 90.03 40.63&#10;  Q 84.06 40.64 83.75 40.70&#10;  Q 80.52 41.30 78.14 44.24" />
        <path stroke="#b8c4d6"
            d="&#10;  M 196.90 56.28&#10;  L 181.60 56.13&#10;  A 0.47 0.47 0.0 0 0 181.12 56.60&#10;  L 181.08 103.10" />
        <path stroke="#f6a2ab" d="&#10;  M 181.08 103.10&#10;  L 118.68 103.09" />
        <path stroke="#d7e2f1"
            d="&#10;  M 118.68 103.09&#10;  L 118.74 57.35&#10;  Q 118.74 56.37 117.76 56.37&#10;  L 90.02 56.38&#10;  Q 89.64 56.38 89.30 56.55&#10;  Q 88.85 56.78 88.42 56.59&#10;  Q 87.01 55.96 87.29 57.52&#10;  C 87.73 59.96 87.41 61.98 87.39 64.04&#10;  Q 87.25 80.84 87.58 97.63&#10;  Q 87.59 98.14 87.43 100.34&#10;  Q 87.34 101.65 87.52 103.07" />
        <path stroke="#f6a2ab" d="&#10;  M 87.52 103.07&#10;  L 78.50 103.02" />
        <path stroke="#e2eaf3" d="&#10;  M 78.50 103.02&#10;  L 78.45 62.61" />
        <path stroke="#779abd" d="&#10;  M 78.45 62.61&#10;  L 78.23 53.02" />
        <path stroke="#eb98a3" d="&#10;  M 78.50 103.02&#10;  Q 78.56 103.02 78.62 103.01" />
        <path stroke="#c58791" d="&#10;  M 78.62 103.01&#10;  L 69.00 102.97" />
        <path stroke="#e2eaf3" d="&#10;  M 69.00 102.97&#10;  L 68.81 62.75" />
        <path stroke="#6b90b6" d="&#10;  M 78.45 62.61&#10;  L 68.81 62.75" />
        <path stroke="#779abd" d="&#10;  M 68.81 62.75&#10;  L 65.78 62.81" />
        <path stroke="#0d9cbd" d="&#10;  M 65.78 62.81&#10;  L 62.78 62.60" />
        <path stroke="#e090a2" d="&#10;  M 118.68 103.09&#10;  Q 118.33 104.11 118.62 105.65" />
        <path stroke="#ba7f90" d="&#10;  M 118.62 105.65&#10;  L 118.60 108.35" />
        <path stroke="#e090a2" d="&#10;  M 118.60 108.35&#10;  L 118.71 115.63" />
        <path stroke="#d7e2f1" d="&#10;  M 118.71 115.63&#10;  L 118.69 149.96" />
        <path stroke="#d7e2f1"
            d="&#10;  M 87.79 149.94&#10;  Q 87.76 149.20 87.55 148.73&#10;  Q 87.34 148.28 87.34 147.78&#10;  L 87.46 116.22&#10;  Q 87.46 115.76 87.01 115.76&#10;  L 80.28 115.66" />
        <path stroke="#ba7f90"
            d="&#10;  M 80.28 115.66&#10;  L 87.12 115.62&#10;  A 0.49 0.47 -62.9 0 0 87.41 115.52&#10;  Q 87.82 115.18 87.55 114.77" />
        <path stroke="#e090a2" d="&#10;  M 87.55 114.77&#10;  L 87.52 103.07" />
        <path stroke="#f6a2ab" d="&#10;  M 181.13 115.64&#10;  L 118.71 115.63" />
        <path stroke="#d93f49" d="&#10;  M 118.60 108.35&#10;  Q 119.30 107.06 118.62 105.65" />
        <path stroke="#a2b2cd"
            d="&#10;  M 196.88 65.48&#10;  C 193.16 65.49 189.95 65.70 188.27 68.91&#10;  Q 187.51 70.35 187.51 73.73&#10;  Q 187.49 111.83 187.50 149.95" />
        <path stroke="#b8c4d6" d="&#10;  M 181.18 149.96&#10;  L 181.13 115.64" />
        <path stroke="#c17287" d="&#10;  M 181.13 115.64&#10;  L 181.08 103.10" />
        <path stroke="#d93f49"
            d="&#10;  M 78.62 103.01&#10;  L 78.55 114.65&#10;  Q 78.55 115.17 79.07 115.15&#10;  L 87.55 114.77" />
        <path stroke="#d09199" d="&#10;  M 80.28 115.66&#10;  L 78.84 115.73" />
        <path stroke="#c58791" d="&#10;  M 78.84 115.73&#10;  L 68.86 115.79" />
        <path stroke="#d09199" d="&#10;  M 68.86 115.79&#10;  L 50.98 115.79" />
        <path stroke="#c58791" d="&#10;  M 50.98 115.79&#10;  L 45.16 115.61" />
        <path stroke="#d09199" d="&#10;  M 69.00 102.97&#10;  Q 68.26 103.14 68.18 102.94" />
        <path stroke="#df959e" d="&#10;  M 68.18 102.94&#10;  L 33.57 102.76" />
        <path stroke="#f4f8fb"
            d="&#10;  M 33.57 102.76&#10;  Q 43.70 96.35 53.57 92.11&#10;  Q 54.03 91.91 54.19 91.44&#10;  Q 54.35 90.99 54.26 90.54" />
        <path stroke="#83f6fa"
            d="&#10;  M 54.26 90.54&#10;  L 65.06 90.84&#10;  A 0.74 0.74 0.0 0 0 65.82 90.10&#10;  L 65.80 74.48" />
        <path stroke="#c2f9fd" d="&#10;  M 65.80 74.48&#10;  Q 66.15 73.54 65.71 73.26" />
        <path stroke="#5a4f89" d="&#10;  M 62.75 53.16&#10;  L 62.79 59.33" />
        <path stroke="#5a375c" d="&#10;  M 62.79 59.33&#10;  L 62.78 62.60" />
        <path stroke="#669399" d="&#10;  M 62.78 62.60&#10;  L 53.42 62.79" />
        <path stroke="#0058ae"
            d="&#10;  M 75.17 53.10&#10;  C 74.98 55.11 75.39 58.91 72.51 59.25&#10;  Q 68.83 59.69 62.79 59.33" />
        <path stroke="#83f6fa" d="&#10;  M 65.78 62.81&#10;  L 65.71 73.26" />
        <path stroke="#58fbfd"
            d="&#10;  M 65.71 73.26&#10;  L 65.44 64.20&#10;  A 0.63 0.63 0.0 0 0 64.36 63.77&#10;  L 41.56 86.41" />
        <path stroke="#98a0a9"
            d="&#10;  M 174.92 149.96&#10;  C 175.02 129.81 151.97 117.69 135.48 129.71&#10;  Q 125.23 137.17 125.04 149.95" />
        <path stroke="#c2323c"
            d="&#10;  M 68.18 102.94&#10;  Q 68.77 103.62 68.77 104.25&#10;  Q 68.79 109.54 68.71 113.74&#10;  Q 68.68 115.20 67.22 115.22&#10;  L 45.16 115.61" />
        <path stroke="#d48b96" d="&#10;  M 45.16 115.61&#10;  L 18.51 115.61" />
        <path stroke="#e2eaf3"
            d="&#10;  M 50.98 115.79&#10;  Q 49.64 115.79 48.81 116.21&#10;  Q 48.17 116.53 48.87 116.69&#10;  Q 62.92 119.89 67.87 134.20&#10;  Q 68.78 136.81 68.79 134.05&#10;  L 68.86 115.79" />
        <path stroke="#e2eaf3" d="&#10;  M 78.84 115.73&#10;  L 78.75 149.97" />
        <path stroke="#8c96a1"
            d="&#10;  M 62.27 149.97&#10;  Q 62.27 142.82 58.89 137.34&#10;  Q 51.91 126.01 38.14 125.19&#10;  Q 32.45 124.85 26.09 127.99&#10;  Q 25.59 128.23 25.04 128.22&#10;  Q 24.54 128.21 24.38 128.37" />
        <path stroke="#eb98a3"
            d="&#10;  M 24.38 128.37&#10;  Q 24.33 128.24 24.28 128.12&#10;  Q 24.25 128.03 24.16 128.03&#10;  L 9.19 127.96" />
        <path stroke="#8af9fb" d="&#10;  M 54.26 90.54&#10;  L 50.21 90.59" />
        <path stroke="#58fbfd"
            d="&#10;  M 65.80 74.48&#10;  L 49.95 90.33&#10;  Q 49.84 90.44 49.97 90.50&#10;  Q 50.07 90.55 50.21 90.59" />
        <path stroke="#c9fdfd" d="&#10;  M 50.21 90.59&#10;  L 40.59 90.51" />
        <path stroke="#e6999e" d="&#10;  M 33.57 102.76&#10;  L 29.31 103.11" />
        <path stroke="#fda6ab" d="&#10;  M 29.31 103.11&#10;  L 16.13 102.80" />
        <path stroke="#d93f49"
            d="&#10;  M 59.44 53.13&#10;  C 59.55 56.34 59.37 59.48 55.73 59.47&#10;  Q 51.27 59.47 46.87 59.45" />
        <path stroke="#4f5a68"
            d="&#10;  M 168.75 149.97&#10;  C 168.40 134.39 150.66 125.34 138.25 135.50&#10;  Q 131.43 141.07 131.29 149.96" />
        <path stroke="#444a58"
            d="&#10;  M 165.62 150.01&#10;  Q 165.34 141.09 158.56 136.90&#10;  Q 153.15 133.56 147.98 134.48&#10;  Q 135.52 136.70 134.51 149.96" />
        <path stroke="#4f5a68"
            d="&#10;  M 56.41 149.98&#10;  Q 55.49 138.69 46.65 133.69&#10;  C 41.98 131.05 35.93 130.45 31.00 132.40&#10;  Q 19.45 136.96 18.67 149.96" />
        <path stroke="#8a414c" d="&#10;  M 12.50 149.91&#10;  Q 12.64 139.29 20.36 131.56" />
        <path stroke="#a14e59" d="&#10;  M 20.36 131.56&#10;  Q 22.97 130.43 24.38 128.37" />
        <path stroke="#444a58"
            d="&#10;  M 53.09 149.99&#10;  C 52.35 129.37 22.94 129.33 22.06 149.98" />
        <path stroke="#e8434e"
            d="&#10;  M 29.31 103.11&#10;  Q 27.01 105.64 23.75 107.10&#10;  Q 21.20 108.25 20.55 108.95&#10;  C 18.48 111.14 19.02 112.98 18.51 115.61" />
        <path stroke="#eb98a3" d="&#10;  M 18.51 115.61&#10;  L 9.22 115.69" />
        <path stroke="#e8434e"
            d="&#10;  M 20.36 131.56&#10;  Q 14.11 130.77 11.99 131.34&#10;  Q 9.41 132.03 9.39 135.01&#10;  Q 9.33 142.45 9.50 149.94" />
        <path stroke="#f6a2ab"
            d="&#10;  M 165.6448 44.1455&#10;  A 0.39 0.39 0.0 0 0 165.2554 43.7548&#10;  L 159.7554 43.7452&#10;  A 0.39 0.39 0.0 0 0 159.3648 44.1345&#10;  L 159.3552 49.5945&#10;  A 0.39 0.39 0.0 0 0 159.7446 49.9852&#10;  L 165.2446 49.9948&#10;  A 0.39 0.39 0.0 0 0 165.6352 49.6055&#10;  L 165.6448 44.1455" />
        <path stroke="#f6a2ab"
            d="&#10;  M 181.2501 44.0391&#10;  A 0.31 0.31 0.0 0 0 180.9391 43.7302&#10;  L 175.2991 43.7499&#10;  A 0.31 0.31 0.0 0 0 174.9902 44.0609&#10;  L 175.0099 49.7009&#10;  A 0.31 0.31 0.0 0 0 175.3209 50.0098&#10;  L 180.9609 49.9901&#10;  A 0.31 0.31 0.0 0 0 181.2698 49.6791&#10;  L 181.2501 44.0391" />
        <path stroke="#f6a2ab"
            d="&#10;  M 190.6495 44.1410&#10;  A 0.38 0.38 0.0 0 0 190.2709 43.7597&#10;  L 184.7509 43.7404&#10;  A 0.38 0.38 0.0 0 0 184.3696 44.1191&#10;  L 184.3505 49.5990&#10;  A 0.38 0.38 0.0 0 0 184.7291 49.9803&#10;  L 190.2491 49.9996&#10;  A 0.38 0.38 0.0 0 0 190.6304 49.6209&#10;  L 190.6495 44.1410" />
        <path stroke="#d09199"
            d="&#10;  M 143.63 58.54&#10;  L 143.61 64.92&#10;  Q 143.60 65.50 143.02 65.51&#10;  L 142.17 65.51" />
        <path stroke="#f6a2ab"
            d="&#10;  M 142.17 65.51&#10;  L 134.82 65.48&#10;  A 0.50 0.50 0.0 0 0 134.31 65.98&#10;  L 134.36 77.65&#10;  Q 134.36 78.31 135.02 78.31&#10;  L 143.79 78.34" />
        <path stroke="#d09199" d="&#10;  M 143.79 78.34&#10;  L 143.72 85.80" />
        <path stroke="#f6a2ab"
            d="&#10;  M 143.72 85.80&#10;  Q 143.49 86.65 143.72 87.21&#10;  Q 143.87 87.58 144.26 87.58&#10;  L 155.66 87.60&#10;  A 0.72 0.72 0.0 0 0 156.38 86.88&#10;  L 156.39 78.80&#10;  Q 156.39 78.25 156.95 78.25&#10;  L 164.97 78.24&#10;  A 0.72 0.72 0.0 0 0 165.69 77.53&#10;  L 165.71 66.22&#10;  A 0.75 0.74 -90.0 0 0 164.97 65.47&#10;  L 157.16 65.48&#10;  Q 156.53 65.48 156.48 64.85&#10;  L 156.29 62.32" />
        <path stroke="#d09199" d="&#10;  M 156.29 62.32&#10;  L 156.31 56.69" />
        <path stroke="#f6a2ab"
            d="&#10;  M 156.31 56.69&#10;  Q 156.24 56.56 156.16 56.45&#10;  Q 156.01 56.23 155.74 56.23&#10;  L 144.25 56.20&#10;  Q 143.74 56.20 143.71 56.71&#10;  L 143.63 58.54" />
        <path stroke="#d93f49" d="&#10;  M 156.31 56.69&#10;  Q 155.77 59.56 156.29 62.32" />
        <path stroke="#d93f49" d="&#10;  M 143.72 85.80&#10;  L 143.79 78.34" />
        <path stroke="#d93f49"
            d="&#10;  M 142.17 65.51&#10;  Q 142.57 66.08 143.38 65.83&#10;  Q 143.87 65.67 143.88 65.16&#10;  Q 143.95 62.20 143.96 59.25&#10;  Q 143.96 57.29 143.63 58.54" />
        <path stroke="#d7e2f1"
            d="&#10;  M 115.5844 96.7646&#10;  A 2.94 2.94 0.0 0 0 112.6392 93.8297&#10;  L 112.3392 93.8303&#10;  A 2.94 2.94 0.0 0 0 109.4044 96.7754&#10;  L 109.4156 103.2354&#10;  A 2.94 2.94 0.0 0 0 112.3608 106.1703&#10;  L 112.6608 106.1697&#10;  A 2.94 2.94 0.0 0 0 115.5956 103.2246&#10;  L 115.5844 96.7646" />
        <path stroke="#576075"
            d="&#10;  M 43.64 149.98&#10;  A 6.14 6.14 0.0 0 0 37.50 143.84&#10;  A 6.14 6.14 0.0 0 0 31.36 149.98&#10;  A 6.14 6.14 0.0 0 0 37.50 156.12&#10;  A 6.14 6.14 0.0 0 0 43.64 149.98" />
        <path stroke="#576075"
            d="&#10;  M 156.20 150.05&#10;  A 6.20 6.20 0.0 0 0 150.00 143.85&#10;  A 6.20 6.20 0.0 0 0 143.80 150.05&#10;  A 6.20 6.20 0.0 0 0 150.00 156.25&#10;  A 6.20 6.20 0.0 0 0 156.20 150.05" />
    </g>
    <path fill="#fbfbfb"
        d="&#10;  M 196.91 43.44&#10;  Q 193.07 40.65 191.00 40.65&#10;  Q 140.52 40.61 90.03 40.63&#10;  Q 84.06 40.64 83.75 40.70&#10;  Q 80.52 41.30 78.14 44.24&#10;  C 77.65 40.33 77.96 36.54 81.54 34.86&#10;  Q 83.02 34.17 84.74 34.17&#10;  Q 133.40 34.20 190.17 34.16&#10;  Q 192.54 34.16 194.40 35.47&#10;  Q 197.64 37.73 196.91 43.44&#10;  Z" />
    <path fill="#edf4fa"
        d="&#10;  M 196.91 43.44&#10;  L 196.90 56.28&#10;  L 181.60 56.13&#10;  A 0.47 0.47 0.0 0 0 181.12 56.60&#10;  L 181.08 103.10&#10;  L 118.68 103.09&#10;  L 118.74 57.35&#10;  Q 118.74 56.37 117.76 56.37&#10;  L 90.02 56.38&#10;  Q 89.64 56.38 89.30 56.55&#10;  Q 88.85 56.78 88.42 56.59&#10;  Q 87.01 55.96 87.29 57.52&#10;  C 87.73 59.96 87.41 61.98 87.39 64.04&#10;  Q 87.25 80.84 87.58 97.63&#10;  Q 87.59 98.14 87.43 100.34&#10;  Q 87.34 101.65 87.52 103.07&#10;  L 78.50 103.02&#10;  L 78.45 62.61&#10;  L 78.23 53.02&#10;  L 78.14 44.24&#10;  Q 80.52 41.30 83.75 40.70&#10;  Q 84.06 40.64 90.03 40.63&#10;  Q 140.52 40.61 191.00 40.65&#10;  Q 193.07 40.65 196.91 43.44&#10;  Z&#10;  M 165.6448 44.1455&#10;  A 0.39 0.39 0.0 0 0 165.2554 43.7548&#10;  L 159.7554 43.7452&#10;  A 0.39 0.39 0.0 0 0 159.3648 44.1345&#10;  L 159.3552 49.5945&#10;  A 0.39 0.39 0.0 0 0 159.7446 49.9852&#10;  L 165.2446 49.9948&#10;  A 0.39 0.39 0.0 0 0 165.6352 49.6055&#10;  L 165.6448 44.1455&#10;  Z&#10;  M 181.2501 44.0391&#10;  A 0.31 0.31 0.0 0 0 180.9391 43.7302&#10;  L 175.2991 43.7499&#10;  A 0.31 0.31 0.0 0 0 174.9902 44.0609&#10;  L 175.0099 49.7009&#10;  A 0.31 0.31 0.0 0 0 175.3209 50.0098&#10;  L 180.9609 49.9901&#10;  A 0.31 0.31 0.0 0 0 181.2698 49.6791&#10;  L 181.2501 44.0391&#10;  Z&#10;  M 190.6495 44.1410&#10;  A 0.38 0.38 0.0 0 0 190.2709 43.7597&#10;  L 184.7509 43.7404&#10;  A 0.38 0.38 0.0 0 0 184.3696 44.1191&#10;  L 184.3505 49.5990&#10;  A 0.38 0.38 0.0 0 0 184.7291 49.9803&#10;  L 190.2491 49.9996&#10;  A 0.38 0.38 0.0 0 0 190.6304 49.6209&#10;  L 190.6495 44.1410&#10;  Z&#10;  M 143.63 58.54&#10;  L 143.61 64.92&#10;  Q 143.60 65.50 143.02 65.51&#10;  L 142.17 65.51&#10;  L 134.82 65.48&#10;  A 0.50 0.50 0.0 0 0 134.31 65.98&#10;  L 134.36 77.65&#10;  Q 134.36 78.31 135.02 78.31&#10;  L 143.79 78.34&#10;  L 143.72 85.80&#10;  Q 143.49 86.65 143.72 87.21&#10;  Q 143.87 87.58 144.26 87.58&#10;  L 155.66 87.60&#10;  A 0.72 0.72 0.0 0 0 156.38 86.88&#10;  L 156.39 78.80&#10;  Q 156.39 78.25 156.95 78.25&#10;  L 164.97 78.24&#10;  A 0.72 0.72 0.0 0 0 165.69 77.53&#10;  L 165.71 66.22&#10;  A 0.75 0.74 -90.0 0 0 164.97 65.47&#10;  L 157.16 65.48&#10;  Q 156.53 65.48 156.48 64.85&#10;  L 156.29 62.32&#10;  L 156.31 56.69&#10;  Q 156.24 56.56 156.16 56.45&#10;  Q 156.01 56.23 155.74 56.23&#10;  L 144.25 56.20&#10;  Q 143.74 56.20 143.71 56.71&#10;  L 143.63 58.54&#10;  Z" />
    <rect fill="#ff505b" x="-3.14" y="-3.12" transform="translate(162.50,46.87) rotate(0.1)"
        width="6.28" height="6.24" rx="0.39" />
    <rect fill="#ff505b" x="-3.13" y="-3.13" transform="translate(178.13,46.87) rotate(-0.2)"
        width="6.26" height="6.26" rx="0.31" />
    <rect fill="#ff505b" x="-3.14" y="-3.12" transform="translate(187.50,46.87) rotate(0.2)"
        width="6.28" height="6.24" rx="0.38" />
    <path fill="#ff505b"
        d="&#10;  M 59.44 53.13&#10;  C 59.55 56.34 59.37 59.48 55.73 59.47&#10;  Q 51.27 59.47 46.87 59.45&#10;  L 46.97 53.76&#10;  Q 46.98 53.24 47.50 53.23&#10;  L 59.44 53.13&#10;  Z" />
    <path fill="#b32e37"
        d="&#10;  M 59.44 53.13&#10;  Q 61.11 52.83 62.75 53.16&#10;  L 62.79 59.33&#10;  L 62.78 62.60&#10;  L 53.42 62.79&#10;  L 47.49 62.72&#10;  Q 46.98 62.71 46.86 62.21&#10;  Q 46.56 60.93 46.87 59.45&#10;  Q 51.27 59.47 55.73 59.47&#10;  C 59.37 59.48 59.55 56.34 59.44 53.13&#10;  Z" />
    <path fill="#006fdb"
        d="&#10;  M 75.17 53.10&#10;  C 74.98 55.11 75.39 58.91 72.51 59.25&#10;  Q 68.83 59.69 62.79 59.33&#10;  L 62.75 53.16&#10;  L 75.17 53.10&#10;  Z" />
    <path fill="#004080"
        d="&#10;  M 75.17 53.10&#10;  L 78.23 53.02&#10;  L 78.45 62.61&#10;  L 68.81 62.75&#10;  L 65.78 62.81&#10;  L 62.78 62.60&#10;  L 62.79 59.33&#10;  Q 68.83 59.69 72.51 59.25&#10;  C 75.39 58.91 74.98 55.11 75.17 53.10&#10;  Z" />
    <path fill="#8394b2"
        d="&#10;  M 196.90 56.28&#10;  L 196.88 65.48&#10;  C 193.16 65.49 189.95 65.70 188.27 68.91&#10;  Q 187.51 70.35 187.51 73.73&#10;  Q 187.49 111.83 187.50 149.95&#10;  L 181.18 149.96&#10;  L 181.13 115.64&#10;  L 181.08 103.10&#10;  L 181.12 56.60&#10;  A 0.47 0.47 0.0 0 1 181.60 56.13&#10;  L 196.90 56.28&#10;  Z" />
    <path fill="#c1cfe8"
        d="&#10;  M 118.68 103.09&#10;  Q 118.33 104.11 118.62 105.65&#10;  L 118.60 108.35&#10;  L 118.71 115.63&#10;  L 118.69 149.96&#10;  L 87.79 149.94&#10;  Q 87.76 149.20 87.55 148.73&#10;  Q 87.34 148.28 87.34 147.78&#10;  L 87.46 116.22&#10;  Q 87.46 115.76 87.01 115.76&#10;  L 80.28 115.66&#10;  L 87.12 115.62&#10;  A 0.49 0.47 -62.9 0 0 87.41 115.52&#10;  Q 87.82 115.18 87.55 114.77&#10;  L 87.52 103.07&#10;  Q 87.34 101.65 87.43 100.34&#10;  Q 87.59 98.14 87.58 97.63&#10;  Q 87.25 80.84 87.39 64.04&#10;  C 87.41 61.98 87.73 59.96 87.29 57.52&#10;  Q 87.01 55.96 88.42 56.59&#10;  Q 88.85 56.78 89.30 56.55&#10;  Q 89.64 56.38 90.02 56.38&#10;  L 117.76 56.37&#10;  Q 118.74 56.37 118.74 57.35&#10;  L 118.68 103.09&#10;  Z&#10;  M 115.5844 96.7646&#10;  A 2.94 2.94 0.0 0 0 112.6392 93.8297&#10;  L 112.3392 93.8303&#10;  A 2.94 2.94 0.0 0 0 109.4044 96.7754&#10;  L 109.4156 103.2354&#10;  A 2.94 2.94 0.0 0 0 112.3608 106.1703&#10;  L 112.6608 106.1697&#10;  A 2.94 2.94 0.0 0 0 115.5956 103.2246&#10;  L 115.5844 96.7646&#10;  Z" />
    <path fill="#ff505b"
        d="&#10;  M 156.31 56.69&#10;  Q 155.77 59.56 156.29 62.32&#10;  L 156.48 64.85&#10;  Q 156.53 65.48 157.16 65.48&#10;  L 164.97 65.47&#10;  A 0.75 0.74 -90.0 0 1 165.71 66.22&#10;  L 165.69 77.53&#10;  A 0.72 0.72 0.0 0 1 164.97 78.24&#10;  L 156.95 78.25&#10;  Q 156.39 78.25 156.39 78.80&#10;  L 156.38 86.88&#10;  A 0.72 0.72 0.0 0 1 155.66 87.60&#10;  L 144.26 87.58&#10;  Q 143.87 87.58 143.72 87.21&#10;  Q 143.49 86.65 143.72 85.80&#10;  L 143.79 78.34&#10;  L 135.02 78.31&#10;  Q 134.36 78.31 134.36 77.65&#10;  L 134.31 65.98&#10;  A 0.50 0.50 0.0 0 1 134.82 65.48&#10;  L 142.17 65.51&#10;  Q 142.57 66.08 143.38 65.83&#10;  Q 143.87 65.67 143.88 65.16&#10;  Q 143.95 62.20 143.96 59.25&#10;  Q 143.96 57.29 143.63 58.54&#10;  L 143.71 56.71&#10;  Q 143.74 56.20 144.25 56.20&#10;  L 155.74 56.23&#10;  Q 156.01 56.23 156.16 56.45&#10;  Q 156.24 56.56 156.31 56.69&#10;  Z" />
    <path fill="#b32e37"
        d="&#10;  M 156.31 56.69&#10;  L 156.29 62.32&#10;  Q 155.77 59.56 156.31 56.69&#10;  Z" />
    <path fill="#b32e37"
        d="&#10;  M 142.17 65.51&#10;  L 143.02 65.51&#10;  Q 143.60 65.50 143.61 64.92&#10;  L 143.63 58.54&#10;  Q 143.96 57.29 143.96 59.25&#10;  Q 143.95 62.20 143.88 65.16&#10;  Q 143.87 65.67 143.38 65.83&#10;  Q 142.57 66.08 142.17 65.51&#10;  Z" />
    <path fill="#19f7fa"
        d="&#10;  M 62.78 62.60&#10;  L 65.78 62.81&#10;  L 65.71 73.26&#10;  L 65.44 64.20&#10;  A 0.63 0.63 0.0 0 0 64.36 63.77&#10;  L 41.56 86.41&#10;  Q 42.29 82.42 44.20 73.50&#10;  Q 45.95 65.33 53.42 62.79&#10;  L 62.78 62.60&#10;  Z" />
    <path fill="#d6e0eb"
        d="&#10;  M 78.45 62.61&#10;  L 78.50 103.02&#10;  Q 78.56 103.02 78.62 103.01&#10;  L 69.00 102.97&#10;  L 68.81 62.75&#10;  L 78.45 62.61&#10;  Z" />
    <path fill="#edf4fa"
        d="&#10;  M 65.78 62.81&#10;  L 68.81 62.75&#10;  L 69.00 102.97&#10;  Q 68.26 103.14 68.18 102.94&#10;  L 33.57 102.76&#10;  Q 43.70 96.35 53.57 92.11&#10;  Q 54.03 91.91 54.19 91.44&#10;  Q 54.35 90.99 54.26 90.54&#10;  L 65.06 90.84&#10;  A 0.74 0.74 0.0 0 0 65.82 90.10&#10;  L 65.80 74.48&#10;  Q 66.15 73.54 65.71 73.26&#10;  L 65.78 62.81&#10;  Z" />
    <path fill="#96feff"
        d="&#10;  M 65.71 73.26&#10;  Q 66.15 73.54 65.80 74.48&#10;  L 49.95 90.33&#10;  Q 49.84 90.44 49.97 90.50&#10;  Q 50.07 90.55 50.21 90.59&#10;  L 40.59 90.51&#10;  L 41.56 86.41&#10;  L 64.36 63.77&#10;  A 0.63 0.63 0.0 0 1 65.44 64.20&#10;  L 65.71 73.26&#10;  Z" />
    <path fill="#c1cfe8"
        d="&#10;  M 196.88 65.48&#10;  Q 196.85 104.49 196.88 143.50&#10;  C 196.89 148.93 192.29 150.42 187.50 149.95&#10;  Q 187.49 111.83 187.51 73.73&#10;  Q 187.51 70.35 188.27 68.91&#10;  C 189.95 65.70 193.16 65.49 196.88 65.48&#10;  Z" />
    <path fill="#19f7fa"
        d="&#10;  M 65.80 74.48&#10;  L 65.82 90.10&#10;  A 0.74 0.74 0.0 0 1 65.06 90.84&#10;  L 54.26 90.54&#10;  L 50.21 90.59&#10;  Q 50.07 90.55 49.97 90.50&#10;  Q 49.84 90.44 49.95 90.33&#10;  L 65.80 74.48&#10;  Z" />
    <path fill="#b32e37" d="&#10;  M 143.79 78.34&#10;  L 143.72 85.80&#10;  L 143.79 78.34&#10;  Z" />
    <path fill="#fbfbfb"
        d="&#10;  M 40.59 90.51&#10;  L 50.21 90.59&#10;  L 54.26 90.54&#10;  Q 54.35 90.99 54.19 91.44&#10;  Q 54.03 91.91 53.57 92.11&#10;  Q 43.70 96.35 33.57 102.76&#10;  L 29.31 103.11&#10;  L 16.13 102.80&#10;  L 40.59 90.51&#10;  Z" />
    <rect fill="#edf4fa" x="-3.09" y="-6.17" transform="translate(112.50,100.00) rotate(-0.1)"
        width="6.18" height="12.34" rx="2.94" />
    <path fill="#ff505b"
        d="&#10;  M 16.13 102.80&#10;  L 29.31 103.11&#10;  Q 27.01 105.64 23.75 107.10&#10;  Q 21.20 108.25 20.55 108.95&#10;  C 18.48 111.14 19.02 112.98 18.51 115.61&#10;  L 9.22 115.69&#10;  C 9.02 111.44 8.62 108.19 11.34 105.34&#10;  Q 12.40 104.23 16.13 102.80&#10;  Z" />
    <path fill="#d13641"
        d="&#10;  M 29.31 103.11&#10;  L 33.57 102.76&#10;  L 68.18 102.94&#10;  Q 68.77 103.62 68.77 104.25&#10;  Q 68.79 109.54 68.71 113.74&#10;  Q 68.68 115.20 67.22 115.22&#10;  L 45.16 115.61&#10;  L 18.51 115.61&#10;  C 19.02 112.98 18.48 111.14 20.55 108.95&#10;  Q 21.20 108.25 23.75 107.10&#10;  Q 27.01 105.64 29.31 103.11&#10;  Z" />
    <path fill="#b32e37"
        d="&#10;  M 68.18 102.94&#10;  Q 68.26 103.14 69.00 102.97&#10;  L 78.62 103.01&#10;  L 78.55 114.65&#10;  Q 78.55 115.17 79.07 115.15&#10;  L 87.55 114.77&#10;  Q 87.82 115.18 87.41 115.52&#10;  A 0.49 0.47 -62.9 0 1 87.12 115.62&#10;  L 80.28 115.66&#10;  L 78.84 115.73&#10;  L 68.86 115.79&#10;  L 50.98 115.79&#10;  L 45.16 115.61&#10;  L 67.22 115.22&#10;  Q 68.68 115.20 68.71 113.74&#10;  Q 68.79 109.54 68.77 104.25&#10;  Q 68.77 103.62 68.18 102.94&#10;  Z" />
    <path fill="#ff505b"
        d="&#10;  M 78.62 103.01&#10;  Q 78.56 103.02 78.50 103.02&#10;  L 87.52 103.07&#10;  L 87.55 114.77&#10;  L 79.07 115.15&#10;  Q 78.55 115.17 78.55 114.65&#10;  L 78.62 103.01&#10;  Z" />
    <path fill="#ff505b"
        d="&#10;  M 118.68 103.09&#10;  L 181.08 103.10&#10;  L 181.13 115.64&#10;  L 118.71 115.63&#10;  L 118.60 108.35&#10;  Q 119.30 107.06 118.62 105.65&#10;  Q 118.33 104.11 118.68 103.09&#10;  Z" />
    <path fill="#b32e37"
        d="&#10;  M 118.62 105.65&#10;  Q 119.30 107.06 118.60 108.35&#10;  L 118.62 105.65&#10;  Z" />
    <path fill="#d6e0eb"
        d="&#10;  M 45.16 115.61&#10;  L 50.98 115.79&#10;  Q 49.64 115.79 48.81 116.21&#10;  Q 48.17 116.53 48.87 116.69&#10;  Q 62.92 119.89 67.87 134.20&#10;  Q 68.78 136.81 68.79 134.05&#10;  L 68.86 115.79&#10;  L 78.84 115.73&#10;  L 78.75 149.97&#10;  L 62.27 149.97&#10;  Q 62.27 142.82 58.89 137.34&#10;  Q 51.91 126.01 38.14 125.19&#10;  Q 32.45 124.85 26.09 127.99&#10;  Q 25.59 128.23 25.04 128.22&#10;  Q 24.54 128.21 24.38 128.37&#10;  Q 24.33 128.24 24.28 128.12&#10;  Q 24.25 128.03 24.16 128.03&#10;  L 9.19 127.96&#10;  L 9.22 115.69&#10;  L 18.51 115.61&#10;  L 45.16 115.61&#10;  Z" />
    <path fill="#edf4fa"
        d="&#10;  M 181.13 115.64&#10;  L 181.18 149.96&#10;  L 174.92 149.96&#10;  C 175.02 129.81 151.97 117.69 135.48 129.71&#10;  Q 125.23 137.17 125.04 149.95&#10;  L 118.69 149.96&#10;  L 118.71 115.63&#10;  L 181.13 115.64&#10;  Z" />
    <path fill="#edf4fa"
        d="&#10;  M 50.98 115.79&#10;  L 68.86 115.79&#10;  L 68.79 134.05&#10;  Q 68.78 136.81 67.87 134.20&#10;  Q 62.92 119.89 48.87 116.69&#10;  Q 48.17 116.53 48.81 116.21&#10;  Q 49.64 115.79 50.98 115.79&#10;  Z" />
    <path fill="#edf4fa"
        d="&#10;  M 78.84 115.73&#10;  L 80.28 115.66&#10;  L 87.01 115.76&#10;  Q 87.46 115.76 87.46 116.22&#10;  L 87.34 147.78&#10;  Q 87.34 148.28 87.55 148.73&#10;  Q 87.76 149.20 87.79 149.94&#10;  L 78.75 149.97&#10;  L 78.84 115.73&#10;  Z" />
    <path fill="#424b57"
        d="&#10;  M 62.27 149.97&#10;  L 56.41 149.98&#10;  Q 55.49 138.69 46.65 133.69&#10;  C 41.98 131.05 35.93 130.45 31.00 132.40&#10;  Q 19.45 136.96 18.67 149.96&#10;  L 12.50 149.91&#10;  Q 12.64 139.29 20.36 131.56&#10;  Q 22.97 130.43 24.38 128.37&#10;  Q 24.54 128.21 25.04 128.22&#10;  Q 25.59 128.23 26.09 127.99&#10;  Q 32.45 124.85 38.14 125.19&#10;  Q 51.91 126.01 58.89 137.34&#10;  Q 62.27 142.82 62.27 149.97&#10;  Z" />
    <path fill="#424b57"
        d="&#10;  M 174.92 149.96&#10;  L 168.75 149.97&#10;  C 168.40 134.39 150.66 125.34 138.25 135.50&#10;  Q 131.43 141.07 131.29 149.96&#10;  L 125.04 149.95&#10;  Q 125.23 137.17 135.48 129.71&#10;  C 151.97 117.69 175.02 129.81 174.92 149.96&#10;  Z" />
    <path fill="#ff505b"
        d="&#10;  M 9.19 127.96&#10;  L 24.16 128.03&#10;  Q 24.25 128.03 24.28 128.12&#10;  Q 24.33 128.24 24.38 128.37&#10;  Q 22.97 130.43 20.36 131.56&#10;  Q 14.11 130.77 11.99 131.34&#10;  Q 9.41 132.03 9.39 135.01&#10;  Q 9.33 142.45 9.50 149.94&#10;  L 5.83 149.97&#10;  A 2.81 2.80 89.8 0 1 3.01 147.16&#10;  Q 3.01 139.89 3.00 131.37&#10;  C 2.99 129.30 4.39 128.02 6.49 128.05&#10;  Q 7.94 128.07 9.19 127.96&#10;  Z" />
    <path fill="#d13641"
        d="&#10;  M 20.36 131.56&#10;  Q 12.64 139.29 12.50 149.91&#10;  L 9.50 149.94&#10;  Q 9.33 142.45 9.39 135.01&#10;  Q 9.41 132.03 11.99 131.34&#10;  Q 14.11 130.77 20.36 131.56&#10;  Z" />
    <path fill="#5c6979"
        d="&#10;  M 56.41 149.98&#10;  L 53.09 149.99&#10;  C 52.35 129.37 22.94 129.33 22.06 149.98&#10;  L 18.67 149.96&#10;  Q 19.45 136.96 31.00 132.40&#10;  C 35.93 130.45 41.98 131.05 46.65 133.69&#10;  Q 55.49 138.69 56.41 149.98&#10;  Z" />
    <path fill="#5c6979"
        d="&#10;  M 168.75 149.97&#10;  L 165.62 150.01&#10;  Q 165.34 141.09 158.56 136.90&#10;  Q 153.15 133.56 147.98 134.48&#10;  Q 135.52 136.70 134.51 149.96&#10;  L 131.29 149.96&#10;  Q 131.43 141.07 138.25 135.50&#10;  C 150.66 125.34 168.40 134.39 168.75 149.97&#10;  Z" />
    <path fill="#2b2b37"
        d="&#10;  M 53.09 149.99&#10;  Q 52.98 155.01 50.19 158.92&#10;  Q 49.87 159.37 50.42 159.37&#10;  L 137.20 159.37&#10;  Q 137.64 159.37 137.40 158.99&#10;  Q 134.77 154.87 134.51 149.96&#10;  Q 135.52 136.70 147.98 134.48&#10;  Q 153.15 133.56 158.56 136.90&#10;  Q 165.34 141.09 165.62 150.01&#10;  Q 165.42 154.87 162.77 158.96&#10;  Q 162.50 159.37 162.99 159.37&#10;  L 180.89 159.37&#10;  Q 181.25 159.37 181.25 159.72&#10;  L 181.25 165.29&#10;  Q 181.25 165.64 180.90 165.64&#10;  L 6.62 165.64&#10;  A 0.37 0.37 0.0 0 1 6.25 165.27&#10;  L 6.25 159.69&#10;  Q 6.25 159.37 6.56 159.37&#10;  L 24.73 159.37&#10;  Q 25.20 159.37 24.94 158.98&#10;  Q 22.22 154.92 22.06 149.98&#10;  C 22.94 129.33 52.35 129.37 53.09 149.99&#10;  Z&#10;  M 43.64 149.98&#10;  A 6.14 6.14 0.0 0 0 37.50 143.84&#10;  A 6.14 6.14 0.0 0 0 31.36 149.98&#10;  A 6.14 6.14 0.0 0 0 37.50 156.12&#10;  A 6.14 6.14 0.0 0 0 43.64 149.98&#10;  Z&#10;  M 156.20 150.05&#10;  A 6.20 6.20 0.0 0 0 150.00 143.85&#10;  A 6.20 6.20 0.0 0 0 143.80 150.05&#10;  A 6.20 6.20 0.0 0 0 150.00 156.25&#10;  A 6.20 6.20 0.0 0 0 156.20 150.05&#10;  Z" />
    <circle fill="#8394b2" cx="37.50" cy="149.98" r="6.14" />
    <circle fill="#8394b2" cx="150.00" cy="150.05" r="6.20" />
    <rect fill="#2b2b37" x="187.50" y="159.37" width="9.38" height="6.26" rx="0.38" />
</svg>