<svg xmlns="http://www.w3.org/2000/svg" version="1.1" viewBox="0 0 200 200" width="200" height="200">
    <g stroke-width="2" fill="none" stroke-linecap="butt">
        <path stroke="#0370c7"
            d="M 66.52 33.32 Q 63.85 34.86 61.01 34.67 A 3.01 3.00 7.3 0 0 57.85 37.10 L 57.22 40.37 Q 57.12 40.84 57.26 41.31 Q 57.52 42.17 57.75 43.01 Q 58.04 44.05 57.48 44.53"
            data-c-stroke="0370c7" />
        <path stroke="#2f9fe2"
            d="M 57.48 44.53 Q 54.19 40.74 50.31 41.97 C 42.75 44.38 45.28 54.80 53.38 54.11"
            data-c-stroke="2f9fe2" />
        <path stroke="#0370c7"
            d="M 53.38 54.11 Q 52.86 54.87 51.82 54.87 Q 51.13 54.88 51.20 55.56 Q 51.31 56.52 50.55 56.98 Q 50.10 57.26 50.11 57.80 L 50.14 61.24 Q 50.15 61.62 49.77 61.63 Q 33.64 62.06 17.87 61.82 Q 17.72 61.82 17.60 61.91 Q 17.40 62.05 17.46 62.28"
            data-c-stroke="0370c7" />
        <path stroke="#0668ba" d="M 17.46 62.28 Q 17.57 62.27 17.29 62.73" data-c-stroke="0668ba" />
        <path stroke="#29ade6" d="M 17.29 62.73 Q 17.34 62.57 16.71 62.72" data-c-stroke="29ade6" />
        <path stroke="#2f9fe2"
            d="M 37.48 47.91 A 6.23 6.23 0.0 0 0 31.25 41.68 A 6.23 6.23 0.0 0 0 25.02 47.91 A 6.23 6.23 0.0 0 0 31.25 54.14 A 6.23 6.23 0.0 0 0 37.48 47.91"
            data-c-stroke="2f9fe2" />
        <path stroke="#0764b4"
            d="M 138.21 33.32 Q 137.04 33.91 135.77 33.96 Q 135.26 33.98 135.19 34.48 Q 135.05 35.48 134.30 36.00 A 0.94 0.93 -17.0 0 0 133.88 36.78 L 133.88 40.24 Q 133.88 40.82 133.32 40.96 Q 133.19 41.00 133.12 41.11 Q 132.88 41.47 132.88 41.87 Q 132.87 43.49 132.90 45.31 Q 132.90 45.85 132.38 45.94 Q 132.21 45.97 132.11 46.12 Q 131.88 46.47 131.88 46.86 Q 131.87 48.49 131.90 50.29 Q 131.91 50.86 131.35 50.95 Q 131.21 50.97 131.13 51.10 Q 130.85 51.50 130.86 52.00 Q 130.89 53.76 130.89 55.37 Q 130.89 55.67 130.63 55.83 Q 130.52 55.89 130.40 55.94 Q 129.88 56.17 129.88 56.73 L 129.88 60.04 Q 129.88 60.55 130.33 60.80 Q 131.44 61.44 132.61 61.38 Q 132.62 61.38 132.62 61.39 Q 132.67 61.44 132.60 61.44 C 123.32 61.38 117.41 61.70 109.79 61.78 Q 66.29 62.27 20.50 62.34 Q 19.02 62.34 17.46 62.28"
            data-c-stroke="0764b4" />
        <path stroke="#309bdc"
            d="M53.38 54.11Q60.23 51.57 57.48 44.53M79.14 47.9A6.23 6.23 0 0 0 72.91 41.67 6.23 6.23 0 0 0 66.68 47.9 6.23 6.23 0 0 0 72.91 54.13 6.23 6.23 0 0 0 79.14 47.9"
            data-c-stroke="309bdc" />
        <path stroke="#2da1d3" d="M 183.30 62.77 L 17.29 62.73" data-c-stroke="2da1d3" />
        <path stroke="#a4d080" d="M 183.31 139.52 Q 182.34 139.02 181.56 137.22"
            data-c-stroke="a4d080" />
        <path stroke="#4895a4" d="M 181.56 137.22 L 180.33 135.23" data-c-stroke="4895a4" />
        <path stroke="#509ead"
            d="M 180.33 135.23 L 173.93 127.73 Q 173.59 127.33 173.96 126.96 L 180.55 120.32 Q 181.70 119.16 180.90 117.75 Q 180.75 117.47 180.49 117.28 Q 178.91 116.15 177.52 117.51 L 169.99 124.85"
            data-c-stroke="509ead" />
        <path stroke="#59a7b6" d="M 169.99 124.85 Q 156.05 116.88 142.47 124.90"
            data-c-stroke="59a7b6" />
        <path stroke="#509ead"
            d="M 142.47 124.90 Q 139.17 121.22 133.63 116.48 Q 133.03 115.96 131.66 116.60 Q 131.42 116.71 131.32 116.96 Q 130.57 118.74 132.00 120.26 Q 135.45 123.94 138.63 127.00 Q 139.08 127.43 138.60 127.82 Q 135.14 130.67 132.47 135.06"
            data-c-stroke="509ead" />
        <path stroke="#4895a4" d="M 132.47 135.06 Q 131.80 135.47 130.95 137.17"
            data-c-stroke="4895a4" />
        <path stroke="#a4d080" d="M 130.95 137.17 L 127.86 143.39" data-c-stroke="a4d080" />
        <path stroke="#509ead"
            d="M 127.86 143.39 L 118.46 139.43 A 1.22 1.22 0.0 0 0 116.77 140.55 Q 116.77 140.78 116.73 141.00 A 2.71 2.36 19.2 0 0 118.27 143.69 Q 122.14 145.54 126.68 147.73"
            data-c-stroke="509ead" />
        <path stroke="#a4d080" d="M 126.68 147.73 L 125.37 154.46" data-c-stroke="a4d080" />
        <path stroke="#a1c080" d="M 125.37 154.46 L 124.99 162.44" data-c-stroke="a1c080" />
        <path stroke="#509ead"
            d="M 124.99 162.44 Q 120.29 162.54 115.68 162.58 Q 113.77 162.59 113.09 163.27 Q 111.94 164.42 113.61 166.71"
            data-c-stroke="509ead" />
        <path stroke="#000000"
            d="M 142.47 124.90 Q 141.29 125.97 141.12 126.08 Q 137.76 128.37 141.83 128.40 Q 156.24 128.48 171.01 128.14 Q 173.79 128.08 171.67 126.28 L 169.99 124.85"
            data-c-stroke="5.95e+65" />
        <path stroke="#484d51" d="M 180.33 135.23 L 132.47 135.06" data-c-stroke="484d51" />
        <path stroke="#9c7f24" d="M 181.56 137.22 Q 170.04 143.43 157.67 143.73"
            data-c-stroke="9c7f24" />
        <path stroke="#896f24" d="M 157.67 143.73 L 154.53 143.73" data-c-stroke="896f24" />
        <path stroke="#9c7f24" d="M 154.53 143.73 Q 142.06 143.31 130.95 137.17"
            data-c-stroke="9c7f24" />
        <path stroke="#e5aa00" d="M 154.53 143.73 L 154.18 156.00" data-c-stroke="e5aa00" />
        <path stroke="#f5aa00"
            d="M 154.18 156.00 L 126.79 156.09 Q 126.30 156.09 126.13 155.63 Q 125.90 154.99 125.37 154.46"
            data-c-stroke="f5aa00" />
        <path stroke="#a4872d" d="M126.68 147.73 127.86 143.39M184.58 143.61 185.85 147.63"
            data-c-stroke="a4872d" />
        <path stroke="#f5aa00"
            d="M 187.25 156.23 Q 173.59 156.03 160.00 156.11 Q 158.28 156.12 158.27 154.56"
            data-c-stroke="f5aa00" />
        <path stroke="#e5aa00" d="M 158.27 154.56 L 157.67 143.73" data-c-stroke="e5aa00" />
        <path stroke="#e19a00" d="M 158.27 154.56 L 158.32 166.56" data-c-stroke="e19a00" />
        <path stroke="#de8f01" d="M 158.32 166.56 Q 158.46 167.20 158.14 167.84"
            data-c-stroke="de8f01" />
        <path stroke="#c98201" d="M 158.14 167.84 Q 154.61 166.21 154.25 168.23"
            data-c-stroke="c98201" />
        <path stroke="#e19a00" d="M 154.25 168.23 L 154.18 156.00" data-c-stroke="e19a00" />
        <path stroke="#d98201" d="M 154.25 168.23 L 154.17 178.05" data-c-stroke="d98201" />
        <path stroke="#ee8f01"
            d="M 154.17 178.05 L 129.82 178.13 Q 129.35 178.14 129.02 177.80 Q 128.70 177.48 128.20 177.74"
            data-c-stroke="ee8f01" />
        <path stroke="#a1782d"
            d="M125.38 166.86 124.99 162.44M187.39 162.81Q187.51 163.67 187.18 165.02"
            data-c-stroke="a1782d" />
        <path stroke="#ee8f01"
            d="M 187.18 165.02 Q 186.85 165.20 186.78 165.94 Q 186.73 166.47 186.20 166.47 L 158.32 166.56"
            data-c-stroke="ee8f01" />
        <path stroke="#9e6c2e" d="M 187.15 166.43 Q 187.32 165.92 187.18 165.02"
            data-c-stroke="9e6c2e" />
        <path stroke="#966425" d="M 183.96 178.78 L 182.21 182.51" data-c-stroke="966425" />
        <path stroke="#d67701"
            d="M158.5 199.99 158.14 167.84M153.38 199.84 153.91 198.72Q154.12 198.27 154.13 197.79L154.17 178.05"
            data-c-stroke="d67701" />
        <path stroke="#9e6c2e" d="M 130.31 182.55 L 128.44 178.75" data-c-stroke="9e6c2e" />
        <path stroke="#51565a" d="M 189.88 182.87 L 187.78 186.37" data-c-stroke="51565a" />
    </g>
    <path fill="#0174cd"
        d="M 66.52 33.32 Q 63.85 34.86 61.01 34.67 A 3.01 3.00 7.3 0 0 57.85 37.10 L 57.22 40.37 Q 57.12 40.84 57.26 41.31 Q 57.52 42.17 57.75 43.01 Q 58.04 44.05 57.48 44.53 Q 54.19 40.74 50.31 41.97 C 42.75 44.38 45.28 54.80 53.38 54.11 Q 52.86 54.87 51.82 54.87 Q 51.13 54.88 51.20 55.56 Q 51.31 56.52 50.55 56.98 Q 50.10 57.26 50.11 57.80 L 50.14 61.24 Q 50.15 61.62 49.77 61.63 Q 33.64 62.06 17.87 61.82 Q 17.72 61.82 17.60 61.91 Q 17.40 62.05 17.46 62.28 Q 17.57 62.27 17.29 62.73 Q 17.34 62.57 16.71 62.72 Q 16.63 53.34 16.72 43.96 Q 16.77 39.02 18.21 36.84 Q 20.54 33.32 25.50 33.31 Q 45.94 33.30 66.52 33.32 Z M 37.48 47.91 A 6.23 6.23 0.0 0 0 31.25 41.68 A 6.23 6.23 0.0 0 0 25.02 47.91 A 6.23 6.23 0.0 0 0 31.25 54.14 A 6.23 6.23 0.0 0 0 37.48 47.91 Z"
        data-c-fill="0174cd" />
    <path fill="#046cc0"
        d="M 66.52 33.32 L 138.21 33.32 Q 137.04 33.91 135.77 33.96 Q 135.26 33.98 135.19 34.48 Q 135.05 35.48 134.30 36.00 A 0.94 0.93 -17.0 0 0 133.88 36.78 L 133.88 40.24 Q 133.88 40.82 133.32 40.96 Q 133.19 41.00 133.12 41.11 Q 132.88 41.47 132.88 41.87 Q 132.87 43.49 132.90 45.31 Q 132.90 45.85 132.38 45.94 Q 132.21 45.97 132.11 46.12 Q 131.88 46.47 131.88 46.86 Q 131.87 48.49 131.90 50.29 Q 131.91 50.86 131.35 50.95 Q 131.21 50.97 131.13 51.10 Q 130.85 51.50 130.86 52.00 Q 130.89 53.76 130.89 55.37 Q 130.89 55.67 130.63 55.83 Q 130.52 55.89 130.40 55.94 Q 129.88 56.17 129.88 56.73 L 129.88 60.04 Q 129.88 60.55 130.33 60.80 Q 131.44 61.44 132.61 61.38 Q 132.62 61.38 132.62 61.39 Q 132.67 61.44 132.60 61.44 C 123.32 61.38 117.41 61.70 109.79 61.78 Q 66.29 62.27 20.50 62.34 Q 19.02 62.34 17.46 62.28 Q 17.40 62.05 17.60 61.91 Q 17.72 61.82 17.87 61.82 Q 33.64 62.06 49.77 61.63 Q 50.15 61.62 50.14 61.24 L 50.11 57.80 Q 50.10 57.26 50.55 56.98 Q 51.31 56.52 51.20 55.56 Q 51.13 54.88 51.82 54.87 Q 52.86 54.87 53.38 54.11 Q 60.23 51.57 57.48 44.53 Q 58.04 44.05 57.75 43.01 Q 57.52 42.17 57.26 41.31 Q 57.12 40.84 57.22 40.37 L 57.85 37.10 A 3.01 3.00 7.3 0 1 61.01 34.67 Q 63.85 34.86 66.52 33.32 Z M 79.14 47.90 A 6.23 6.23 0.0 0 0 72.91 41.67 A 6.23 6.23 0.0 0 0 66.68 47.90 A 6.23 6.23 0.0 0 0 72.91 54.13 A 6.23 6.23 0.0 0 0 79.14 47.90 Z"
        data-c-fill="046cc0" />
    <path fill="#0a5ca7"
        d="M 138.21 33.32 Q 154.70 33.30 171.18 33.31 Q 176.95 33.32 179.12 34.48 Q 183.22 36.66 183.25 42.50 Q 183.31 52.31 183.30 62.77 L 17.29 62.73 Q 17.57 62.27 17.46 62.28 Q 19.02 62.34 20.50 62.34 Q 66.29 62.27 109.79 61.78 C 117.41 61.70 123.32 61.38 132.60 61.44 Q 132.67 61.44 132.62 61.39 Q 132.62 61.38 132.61 61.38 Q 131.44 61.44 130.33 60.80 Q 129.88 60.55 129.88 60.04 L 129.88 56.73 Q 129.88 56.17 130.40 55.94 Q 130.52 55.89 130.63 55.83 Q 130.89 55.67 130.89 55.37 Q 130.89 53.76 130.86 52.00 Q 130.85 51.50 131.13 51.10 Q 131.21 50.97 131.35 50.95 Q 131.91 50.86 131.90 50.29 Q 131.87 48.49 131.88 46.86 Q 131.88 46.47 132.11 46.12 Q 132.21 45.97 132.38 45.94 Q 132.90 45.85 132.90 45.31 Q 132.87 43.49 132.88 41.87 Q 132.88 41.47 133.12 41.11 Q 133.19 41.00 133.32 40.96 Q 133.88 40.82 133.88 40.24 L 133.88 36.78 A 0.94 0.93 -17.0 0 1 134.30 36.00 Q 135.05 35.48 135.19 34.48 Q 135.26 33.98 135.77 33.96 Q 137.04 33.91 138.21 33.32 Z"
        data-c-fill="0a5ca7" />
    <circle fill="#5ccaf7" cx="31.25" cy="47.91" r="6.23" data-c-fill="5ccaf7" />
    <path fill="#5ccaf7"
        d="M 57.48 44.53 Q 60.23 51.57 53.38 54.11 C 45.28 54.80 42.75 44.38 50.31 41.97 Q 54.19 40.74 57.48 44.53 Z"
        data-c-fill="5ccaf7" />
    <circle fill="#5ccaf7" cx="72.91" cy="47.9" r="6.23" data-c-fill="5ccaf7" />
    <path fill="#50e6ff"
        d="M 183.30 62.77 L 183.31 139.52 Q 182.34 139.02 181.56 137.22 L 180.33 135.23 L 173.93 127.73 Q 173.59 127.33 173.96 126.96 L 180.55 120.32 Q 181.70 119.16 180.90 117.75 Q 180.75 117.47 180.49 117.28 Q 178.91 116.15 177.52 117.51 L 169.99 124.85 Q 156.05 116.88 142.47 124.90 Q 139.17 121.22 133.63 116.48 Q 133.03 115.96 131.66 116.60 Q 131.42 116.71 131.32 116.96 Q 130.57 118.74 132.00 120.26 Q 135.45 123.94 138.63 127.00 Q 139.08 127.43 138.60 127.82 Q 135.14 130.67 132.47 135.06 Q 131.80 135.47 130.95 137.17 L 127.86 143.39 L 118.46 139.43 A 1.22 1.22 0.0 0 0 116.77 140.55 Q 116.77 140.78 116.73 141.00 A 2.71 2.36 19.2 0 0 118.27 143.69 Q 122.14 145.54 126.68 147.73 L 125.37 154.46 L 124.99 162.44 Q 120.29 162.54 115.68 162.58 Q 113.77 162.59 113.09 163.27 Q 111.94 164.42 113.61 166.71 Q 70.89 166.81 28.33 166.68 C 23.33 166.66 19.45 166.36 17.49 161.81 Q 16.73 160.04 16.73 156.93 Q 16.64 109.82 16.71 62.72 Q 17.34 62.57 17.29 62.73 L 183.30 62.77 Z"
        data-c-fill="50e6ff" />
    <path fill="#50555a"
        d="M 142.47 124.90 Q 141.29 125.97 141.12 126.08 Q 137.76 128.37 141.83 128.40 Q 156.24 128.48 171.01 128.14 Q 173.79 128.08 171.67 126.28 L 169.99 124.85 L 177.52 117.51 Q 178.91 116.15 180.49 117.28 Q 180.75 117.47 180.90 117.75 Q 181.70 119.16 180.55 120.32 L 173.96 126.96 Q 173.59 127.33 173.93 127.73 L 180.33 135.23 L 132.47 135.06 Q 135.14 130.67 138.60 127.82 Q 139.08 127.43 138.63 127.00 Q 135.45 123.94 132.00 120.26 Q 130.57 118.74 131.32 116.96 Q 131.42 116.71 131.66 116.60 Q 133.03 115.96 133.63 116.48 Q 139.17 121.22 142.47 124.90 Z"
        data-c-fill="50555a" />
    <path fill="#61676c"
        d="M 169.99 124.85 L 171.67 126.28 Q 173.79 128.08 171.01 128.14 Q 156.24 128.48 141.83 128.40 Q 137.76 128.37 141.12 126.08 Q 141.29 125.97 142.47 124.90 Q 156.05 116.88 169.99 124.85 Z"
        data-c-fill="61676c" />
    <path fill="#404448"
        d="M 132.47 135.06 L 180.33 135.23 L 181.56 137.22 Q 170.04 143.43 157.67 143.73 L 154.53 143.73 Q 142.06 143.31 130.95 137.17 Q 131.80 135.47 132.47 135.06 Z"
        data-c-fill="404448" />
    <path fill="#f8b900"
        d="M130.95 137.17Q142.06 143.31 154.53 143.73L154.18 156 126.79 156.09Q126.3 156.09 126.13 155.63 125.9 154.99 125.37 154.46L126.68 147.73 127.86 143.39 130.95 137.17ZM181.56 137.22Q182.34 139.02 183.31 139.52L184.58 143.61 185.85 147.63 187.25 156.23Q173.59 156.03 160 156.11 158.28 156.12 158.27 154.56L157.67 143.73Q170.04 143.43 181.56 137.22Z"
        data-c-fill="f8b900" />
    <path fill="#50555a"
        d="M127.86 143.39 126.68 147.73Q122.14 145.54 118.27 143.69A2.71 2.36 19.2 0 1 116.73 141Q116.77 140.78 116.77 140.55A1.22 1.22 0 0 1 118.46 139.43L127.86 143.39ZM185.85 147.63 184.58 143.61 192.87 139.81Q194 139.3 194.99 140.04 195.48 140.4 195.64 140.94 196.2 142.8 194.44 143.62L185.85 147.63Z"
        data-c-fill="50555a" />
    <path fill="#d19a00"
        d="M 154.53 143.73 L 157.67 143.73 L 158.27 154.56 L 158.32 166.56 Q 158.46 167.20 158.14 167.84 Q 154.61 166.21 154.25 168.23 L 154.18 156.00 L 154.53 143.73 Z"
        data-c-fill="d19a00" />
    <path fill="#f19a00"
        d="M125.37 154.46Q125.9 154.99 126.13 155.63 126.3 156.09 126.79 156.09L154.18 156 154.25 168.23 154.17 178.05 129.82 178.13Q129.35 178.14 129.02 177.8 128.7 177.48 128.2 177.74L125.38 166.86 124.99 162.44 125.37 154.46ZM158.27 154.56Q158.28 156.12 160 156.11 173.59 156.03 187.25 156.23L187.39 162.81Q187.51 163.67 187.18 165.02 186.85 165.2 186.78 165.94 186.73 166.47 186.2 166.47L158.32 166.56 158.27 154.56Z"
        data-c-fill="f19a00" />
    <path fill="#50555a"
        d="M124.99 162.44 125.38 166.86 113.61 166.71Q111.94 164.42 113.09 163.27 113.77 162.59 115.68 162.58 120.29 162.54 124.99 162.44ZM187.39 162.81Q195.49 161.55 200 163.62L200 165.66Q194.94 167.59 187.15 166.43 187.32 165.92 187.18 165.02 187.51 163.67 187.39 162.81Z"
        data-c-fill="50555a" />
    <path fill="#eb8301"
        d="M 187.18 165.02 Q 187.32 165.92 187.15 166.43 Q 186.20 173.12 183.96 178.78 L 182.21 182.51 Q 180.37 185.73 178.24 188.50 Q 170.92 198.05 158.50 199.99 L 158.14 167.84 Q 158.46 167.20 158.32 166.56 L 186.20 166.47 Q 186.73 166.47 186.78 165.94 Q 186.85 165.20 187.18 165.02 Z"
        data-c-fill="eb8301" />
    <path fill="#c06a01"
        d="M 158.14 167.84 L 158.50 199.99 Q 158.61 199.99 158.72 200.00 L 153.73 200.00 Q 153.70 199.22 153.38 199.84 L 153.91 198.72 Q 154.12 198.27 154.13 197.79 L 154.17 178.05 L 154.25 168.23 Q 154.61 166.21 158.14 167.84 Z"
        data-c-fill="c06a01" />
    <path fill="#eb8301"
        d="M 128.20 177.74 Q 128.70 177.48 129.02 177.80 Q 129.35 178.14 129.82 178.13 L 154.17 178.05 L 154.13 197.79 Q 154.12 198.27 153.91 198.72 L 153.38 199.84 Q 143.42 198.33 136.39 190.87 Q 132.90 187.17 130.31 182.55 L 128.44 178.75 Q 128.42 178.13 128.20 177.74 Z"
        data-c-fill="eb8301" />
    <path fill="#50555a"
        d="M 128.44 178.75 L 130.31 182.55 L 122.16 188.18 Q 120.63 189.24 119.18 188.06 Q 118.89 187.83 118.79 187.50 Q 118.28 185.91 119.21 185.25 Q 123.95 181.89 128.44 178.75 Z"
        data-c-fill="50555a" />
    <path fill="#404448"
        d="M 183.96 178.78 L 189.88 182.87 L 187.78 186.37 L 182.21 182.51 L 183.96 178.78 Z"
        data-c-fill="404448" />
    <path fill="#61676c"
        d="M 189.88 182.87 C 191.50 183.76 195.83 186.23 192.93 188.44 A 1.70 1.69 -46.8 0 1 190.97 188.51 L 187.78 186.37 L 189.88 182.87 Z"
        data-c-fill="61676c" />
</svg>