<svg version="1.1" xmlns="http://www.w3.org/2000/svg" xmlns:xlink="http://www.w3.org/1999/xlink"
    viewBox="-28.02 -316.89 1213.0904735737608 1133.1051951247293" xml:space="preserve" width="96px"
    height="96px" xmlns:svgjs="http://svgjs.dev/svgjs">
<path fill="#F78100" d="M784.025,512.011l5.872-20.311c6.998-24.169,4.394-46.511-7.349-62.926c-10.801-15.122-28.804-24.022-50.666-25.056l-414.114-5.281c-2.788-0.147-5.096-1.403-6.518-3.471c-1.44-2.123-1.773-4.856-0.886-7.478c1.366-4.08,5.41-7.164,9.62-7.349l417.954-5.299c49.576-2.271,103.252-42.505,122.048-91.564l23.837-62.28c0.657-1.696,0.952-3.493,0.94-5.294c-0.007-0.984-0.078-1.969-0.294-2.94C857.383,91.028,748.758,0,618.863,0c-119.685,0-221.312,77.254-257.76,184.623c-23.523-17.652-53.62-27.031-85.969-23.801c-57.423,5.706-103.565,51.94-109.271,109.363c-1.496,14.901-0.277,29.284,3.158,42.8C75.222,315.718,0,392.566,0,487.029c0,8.549,0.646,16.95,1.846,25.166c0.591,3.988,3.952,6.98,7.977,6.98l764.527,0.092c0.076,0,0.142-0.034,0.218-0.036C778.942,519.134,782.79,516.24,784.025,512.011z"/>
<path fill="#FBAC42" d="M921.982,225.558c-3.841,0-7.663,0.111-11.466,0.295c-0.628,0.033-1.224,0.185-1.796,0.385c-1.985,0.696-3.566,2.305-4.168,4.397l-16.286,56.242c-6.998,24.169-4.395,46.493,7.349,62.907c10.801,15.14,28.804,24.022,50.665,25.056l88.277,5.299c2.604,0.129,4.893,1.385,6.297,3.416c1.477,2.142,1.809,4.893,0.923,7.515c-1.385,4.081-5.41,7.164-9.601,7.349l-91.73,5.299c-49.798,2.29-103.473,42.505-122.27,91.564l-6.629,17.319c-1.206,3.134,1.039,6.472,4.354,6.635c0.084,0.004,0.159,0.031,0.244,0.031h315.626c3.766,0,7.127-2.456,8.142-6.075c5.484-19.498,8.402-40.048,8.402-61.301C1148.315,326.889,1046.984,225.558,921.982,225.558z"/>
</svg>