<svg xmlns="http://www.w3.org/2000/svg" version="1.1" viewBox="0 0 128 128" width="64" height="64">
    <g stroke-width="2" fill="none" stroke-linecap="butt">
        <path stroke="#29486e"
            d="M 100.88 31.73 A 4.60 4.60 0.0 0 0 96.28 27.13 L 31.72 27.13 A 4.60 4.60 0.0 0 0 27.12 31.73 L 27.12 96.27 A 4.60 4.60 0.0 0 0 31.72 100.87 L 96.28 100.87 A 4.60 4.60 0.0 0 0 100.88 96.27 L 100.88 31.73"
            data-c-stroke="29486e" />
        <path stroke="#29486e"
            d="M40.98 36A4.73 4.73 0 0 0 36.25 31.27 4.73 4.73 0 0 0 31.52 36 4.73 4.73 0 0 0 36.25 40.73 4.73 4.73 0 0 0 40.98 36M96.48 36A4.73 4.73 0 0 0 91.75 31.27 4.73 4.73 0 0 0 87.02 36 4.73 4.73 0 0 0 91.75 40.73 4.73 4.73 0 0 0 96.48 36M71.2187 52.7292A3.66 3.66 0 0 0 68.741 48.1847L68.5875 48.1395A3.66 3.66 0 0 0 64.0431 50.6173L56.7813 75.2908A3.66 3.66 0 0 0 59.259 79.8353L59.4125 79.8805A3.66 3.66 0 0 0 63.9569 77.4027L71.2187 52.7292M46.2 63.73 52.94 56.99Q55.09 54.85 53.97 52.02 53.75 51.47 53.3 51.12 50.39 48.93 47.81 51.5 43.62 55.7 38.53 60.75C36.79 62.48 36.15 64.78 38.09 66.74Q43.32 72.06 47.82 76.5 50.31 78.95 53.19 76.97 53.77 76.57 54.04 75.87 55.06 73.13 53 71.06L46.2 64.28A.4.39 45.5 0 1 46.2 63.73M81.57 64.5 74.88 71.23Q72.75 73.38 74.06 76.11 74.32 76.65 74.83 76.99 77.68 78.87 80.15 76.5 84.81 72.01 89.59 67.09 92.63 63.96 89.61 60.92 84.77 56.01 80.14 51.47 77.97 49.34 75.26 50.7C72.86 51.89 73.24 55.04 74.84 56.69Q78.11 60.08 81.57 63.46 82.09 63.98 81.57 64.5M40.98 92A4.73 4.73 0 0 0 36.25 87.27 4.73 4.73 0 0 0 31.52 92 4.73 4.73 0 0 0 36.25 96.73 4.73 4.73 0 0 0 40.98 92M96.48 92A4.73 4.73 0 0 0 91.75 87.27 4.73 4.73 0 0 0 87.02 92 4.73 4.73 0 0 0 91.75 96.73 4.73 4.73 0 0 0 96.48 92"
            data-c-stroke="29486e" />
        <path stroke="#386b7d"
            d="M38.45 36.01A2.19 2.19 0 0 0 36.26 33.82 2.19 2.19 0 0 0 34.07 36.01 2.19 2.19 0 0 0 36.26 38.2 2.19 2.19 0 0 0 38.45 36.01M93.95 36A2.21 2.21 0 0 0 91.74 33.79 2.21 2.21 0 0 0 89.53 36 2.21 2.21 0 0 0 91.74 38.21 2.21 2.21 0 0 0 93.95 36"
            data-c-stroke="386b7d" />
        <path stroke="#777a7e"
            d="M68.7798 52.0282A1.17 1.17 0 0 0 67.9827 50.5782L67.8291 50.5336A1.17 1.17 0 0 0 66.3791 51.3307L59.2202 75.9718A1.17 1.17 0 0 0 60.0173 77.4218L60.1709 77.4664A1.17 1.17 0 0 0 61.6209 76.6693L68.7798 52.0282M43.08 64.68A.95.95 0 0 1 43.08 63.33L51.52 54.88Q52.31 54.09 51.74 53.12 51.62 52.91 51.4 52.79 50.52 52.32 49.82 53.02L39.8 63.05Q38.85 64 39.8 64.95L49.76 74.94A1.23 1.18-16.1 0 0 50.39 75.27Q51.32 75.45 51.65 75.01 52.39 74.02 51.52 73.14L43.08 64.68M84.94 64.69 76.42 73.22Q75.55 74.1 76.37 75.03 76.5 75.17 76.69 75.24 77.61 75.58 78.31 74.89L88.45 64.7A1 1 0 0 0 88.45 63.29L78.22 53.03A.84.7-9.3 0 0 77.9 52.84Q76.73 52.5 76.34 52.99 75.59 53.95 76.45 54.81L84.94 63.31A.98.98 0 0 1 84.94 64.69"
            data-c-stroke="777a7e" />
        <path stroke="#386b7d"
            d="M38.47 92.01A2.21 2.21 0 0 0 36.26 89.8 2.21 2.21 0 0 0 34.05 92.01 2.21 2.21 0 0 0 36.26 94.22 2.21 2.21 0 0 0 38.47 92.01M93.95 92A2.21 2.21 0 0 0 91.74 89.79 2.21 2.21 0 0 0 89.53 92 2.21 2.21 0 0 0 91.74 94.21 2.21 2.21 0 0 0 93.95 92"
            data-c-stroke="386b7d" />
    </g>
    <path fill="#91d047"
        d="M 95.61 0.00 Q 96.90 0.67 96.81 1.85 A 1.66 1.65 -85.6 0 1 95.04 3.37 C 93.22 3.24 92.94 1.04 94.52 0.00 L 95.61 0.00 Z"
        data-c-fill="91d047" fill-opacity="0" />
    <path fill="#000000"
        d="M 55.11 24.00 L 55.11 8.15 Q 55.11 7.00 56.24 6.75 Q 56.80 6.63 57.31 7.18 A 1.16 1.13 24.3 0 1 57.61 7.95 L 57.61 23.99 Q 57.61 24.61 58.24 24.61 L 69.79 24.61 Q 70.44 24.61 70.44 23.96 L 70.44 7.79 A 0.95 0.93 -21.2 0 1 70.74 7.13 Q 71.52 6.41 72.45 6.95 A 0.98 0.97 -75.0 0 1 72.93 7.79 L 72.94 24.02 Q 72.94 24.60 73.52 24.61 L 84.99 24.61 Q 85.77 24.61 85.77 23.83 L 85.78 13.30 A 0.92 0.90 72.0 0 1 86.14 12.57 Q 86.64 12.18 87.13 12.25 Q 88.27 12.42 88.27 13.57 L 88.27 24.08 A 0.55 0.54 -0.5 0 0 88.83 24.62 C 95.39 24.51 103.83 23.44 103.45 33.20 Q 103.32 36.45 103.42 39.23 A 0.52 0.51 -1.1 0 0 103.94 39.72 L 114.42 39.73 Q 115.28 39.73 115.67 40.50 Q 115.81 40.78 115.78 41.06 Q 115.68 42.28 114.46 42.28 L 104.02 42.28 Q 103.40 42.28 103.40 42.90 L 103.40 54.48 Q 103.40 55.08 104.00 55.08 L 120.24 55.09 A 0.91 0.89 68.1 0 1 120.90 55.38 Q 121.65 56.20 121.03 57.09 A 1.20 1.17 16.9 0 1 120.05 57.60 L 104.02 57.61 Q 103.40 57.61 103.40 58.23 L 103.40 69.79 Q 103.40 70.40 104.01 70.40 L 119.80 70.40 Q 120.93 70.40 121.27 71.49 Q 121.33 71.70 121.28 71.91 Q 121.03 72.93 119.98 72.93 L 103.99 72.93 Q 103.40 72.93 103.40 73.51 L 103.40 85.07 Q 103.40 85.72 104.06 85.72 L 114.47 85.73 Q 115.34 85.73 115.70 86.53 Q 115.81 86.76 115.78 87.01 Q 115.64 88.28 114.36 88.28 L 104.02 88.28 Q 103.35 88.28 103.36 88.95 Q 103.42 92.14 103.43 95.13 C 103.47 105.00 95.33 103.13 88.84 103.42 Q 88.28 103.45 88.28 104.01 L 88.27 114.47 Q 88.27 115.36 87.45 115.70 Q 86.90 115.93 86.24 115.52 A 0.99 0.98 16.2 0 1 85.78 114.69 L 85.77 103.93 A 0.54 0.53 -0.0 0 0 85.23 103.40 L 73.28 103.40 A 0.34 0.34 0.0 0 0 72.94 103.74 L 72.94 119.91 Q 72.94 121.13 71.73 121.26 Q 71.49 121.29 71.28 121.21 Q 70.44 120.91 70.44 120.02 L 70.44 104.04 Q 70.44 103.40 69.79 103.40 L 58.23 103.40 Q 57.61 103.40 57.61 104.02 L 57.61 120.06 A 1.18 1.18 0.0 0 1 57.09 121.04 Q 56.26 121.59 55.47 120.95 A 0.97 0.96 20.1 0 1 55.12 120.21 L 55.11 104.02 Q 55.11 103.40 54.49 103.40 L 42.94 103.40 Q 42.28 103.40 42.28 104.06 L 42.27 114.48 Q 42.27 115.65 41.11 115.77 Q 40.78 115.80 40.45 115.58 Q 39.78 115.13 39.78 114.32 L 39.77 103.95 Q 39.77 103.44 39.27 103.42 C 33.36 103.17 24.95 104.96 24.68 96.04 Q 24.57 92.50 24.69 89.01 Q 24.72 88.29 24.00 88.29 L 13.52 88.28 A 1.02 0.98 60.3 0 1 12.98 88.12 Q 11.81 87.40 12.51 86.27 A 1.16 1.13 15.2 0 1 13.49 85.73 L 23.96 85.72 Q 24.65 85.72 24.65 85.04 L 24.65 73.54 Q 24.65 72.93 24.04 72.93 L 8.16 72.93 Q 6.98 72.93 6.77 71.77 Q 6.73 71.53 6.82 71.30 Q 7.16 70.41 8.11 70.41 L 24.00 70.40 Q 24.65 70.40 24.65 69.75 L 24.65 58.25 Q 24.65 57.61 24.00 57.61 L 8.03 57.60 A 0.99 0.98 -25.2 0 1 7.41 57.38 Q 6.61 56.72 6.78 56.09 Q 7.05 55.08 8.10 55.08 L 24.04 55.08 Q 24.65 55.08 24.65 54.46 L 24.65 42.97 Q 24.65 42.29 23.97 42.29 L 13.68 42.28 Q 12.79 42.28 12.36 41.50 Q 12.09 40.99 12.49 40.30 A 1.13 1.12 14.5 0 1 13.47 39.73 L 24.01 39.72 Q 24.64 39.72 24.65 39.10 Q 24.72 36.25 24.60 33.24 C 24.39 28.07 27.21 24.52 32.69 24.59 Q 36.02 24.63 39.14 24.61 Q 39.77 24.61 39.77 23.97 L 39.78 13.63 Q 39.78 12.36 41.04 12.24 Q 41.27 12.22 41.47 12.32 Q 42.27 12.71 42.27 13.60 L 42.28 24.01 Q 42.28 24.61 42.88 24.61 L 54.50 24.61 Q 55.11 24.60 55.11 24.00 Z M 100.88 31.73 A 4.60 4.60 0.0 0 0 96.28 27.13 L 31.72 27.13 A 4.60 4.60 0.0 0 0 27.12 31.73 L 27.12 96.27 A 4.60 4.60 0.0 0 0 31.72 100.87 L 96.28 100.87 A 4.60 4.60 0.0 0 0 100.88 96.27 L 100.88 31.73 Z"
        data-c-fill="0" />
    <path fill="#f5c84c"
        d="M 103.21 10.99 C 103.78 12.82 105.17 14.24 107.01 14.78 Q 107.82 15.01 107.02 15.27 Q 104.17 16.18 103.23 19.02 Q 102.98 19.80 102.72 19.02 Q 101.80 16.18 98.93 15.27 Q 98.17 15.02 98.93 14.78 Q 101.82 13.85 102.75 10.98 Q 102.99 10.26 103.21 10.99 Z"
        data-c-fill="f5c84c" fill-opacity="0" />
    <path fill="#fb667e" fill-opacity="0"
        d="M 12.14 25.55 C 13.20 25.18 13.93 24.46 14.35 23.44 Q 14.72 22.57 15.08 23.44 Q 15.73 24.99 17.34 25.55 Q 18.04 25.79 17.35 26.06 Q 15.69 26.69 15.05 28.27 Q 14.74 29.04 14.42 28.28 Q 13.77 26.71 12.13 26.10 Q 11.38 25.81 12.14 25.55 Z"
        data-c-fill="fb667e" data-o-fill=".996" />
    <path fill="#5290db"
        d="M 100.88 96.27 A 4.60 4.60 0.0 0 1 96.28 100.87 L 31.72 100.87 A 4.60 4.60 0.0 0 1 27.12 96.27 L 27.12 31.73 A 4.60 4.60 0.0 0 1 31.72 27.13 L 96.28 27.13 A 4.60 4.60 0.0 0 1 100.88 31.73 L 100.88 96.27 Z M 40.98 36.00 A 4.73 4.73 0.0 0 0 36.25 31.27 A 4.73 4.73 0.0 0 0 31.52 36.00 A 4.73 4.73 0.0 0 0 36.25 40.73 A 4.73 4.73 0.0 0 0 40.98 36.00 Z M 96.48 36.00 A 4.73 4.73 0.0 0 0 91.75 31.27 A 4.73 4.73 0.0 0 0 87.02 36.00 A 4.73 4.73 0.0 0 0 91.75 40.73 A 4.73 4.73 0.0 0 0 96.48 36.00 Z M 71.2187 52.7292 A 3.66 3.66 0.0 0 0 68.7410 48.1847 L 68.5875 48.1395 A 3.66 3.66 0.0 0 0 64.0431 50.6173 L 56.7813 75.2908 A 3.66 3.66 0.0 0 0 59.2590 79.8353 L 59.4125 79.8805 A 3.66 3.66 0.0 0 0 63.9569 77.4027 L 71.2187 52.7292 Z M 46.20 63.73 L 52.94 56.99 Q 55.09 54.85 53.97 52.02 Q 53.75 51.47 53.30 51.12 Q 50.39 48.93 47.81 51.50 Q 43.62 55.70 38.53 60.75 C 36.79 62.48 36.15 64.78 38.09 66.74 Q 43.32 72.06 47.82 76.50 Q 50.31 78.95 53.19 76.97 Q 53.77 76.57 54.04 75.87 Q 55.06 73.13 53.00 71.06 L 46.20 64.28 A 0.40 0.39 45.5 0 1 46.20 63.73 Z M 81.57 64.50 L 74.88 71.23 Q 72.75 73.38 74.06 76.11 Q 74.32 76.65 74.83 76.99 Q 77.68 78.87 80.15 76.50 Q 84.81 72.01 89.59 67.09 Q 92.63 63.96 89.61 60.92 Q 84.77 56.01 80.14 51.47 Q 77.97 49.34 75.26 50.70 C 72.86 51.89 73.24 55.04 74.84 56.69 Q 78.11 60.08 81.57 63.46 Q 82.09 63.98 81.57 64.50 Z M 40.98 92.00 A 4.73 4.73 0.0 0 0 36.25 87.27 A 4.73 4.73 0.0 0 0 31.52 92.00 A 4.73 4.73 0.0 0 0 36.25 96.73 A 4.73 4.73 0.0 0 0 40.98 92.00 Z M 96.48 92.00 A 4.73 4.73 0.0 0 0 91.75 87.27 A 4.73 4.73 0.0 0 0 87.02 92.00 A 4.73 4.73 0.0 0 0 91.75 96.73 A 4.73 4.73 0.0 0 0 96.48 92.00 Z"
        data-c-fill="5290db" />
    <path fill="#000000"
        d="M40.98 36A4.73 4.73 0 0 1 36.25 40.73 4.73 4.73 0 0 1 31.52 36 4.73 4.73 0 0 1 36.25 31.27 4.73 4.73 0 0 1 40.98 36ZM38.45 36.01A2.19 2.19 0 0 0 36.26 33.82 2.19 2.19 0 0 0 34.07 36.01 2.19 2.19 0 0 0 36.26 38.2 2.19 2.19 0 0 0 38.45 36.01ZM96.48 36A4.73 4.73 0 0 1 91.75 40.73 4.73 4.73 0 0 1 87.02 36 4.73 4.73 0 0 1 91.75 31.27 4.73 4.73 0 0 1 96.48 36ZM93.95 36A2.21 2.21 0 0 0 91.74 33.79 2.21 2.21 0 0 0 89.53 36 2.21 2.21 0 0 0 91.74 38.21 2.21 2.21 0 0 0 93.95 36Z"
        data-c-fill="0" />
    <circle fill="#70d6f9" cx="36.26" cy="36.01" r="2.19" data-c-fill="70d6f9" fill-opacity="0" />
    <circle fill="#70d6f9" cx="91.74" cy="36" r="2.21" data-c-fill="70d6f9" fill-opacity="0" />
    <path fill="#000000"
        d="M63.9569 77.4027A3.66 3.66 0 0 1 59.4125 79.8805L59.259 79.8353A3.66 3.66 0 0 1 56.7813 75.2908L64.0431 50.6173A3.66 3.66 0 0 1 68.5875 48.1395L68.741 48.1847A3.66 3.66 0 0 1 71.2187 52.7292L63.9569 77.4027ZM68.7798 52.0282A1.17 1.17 0 0 0 67.9827 50.5782L67.8291 50.5336A1.17 1.17 0 0 0 66.3791 51.3307L59.2202 75.9718A1.17 1.17 0 0 0 60.0173 77.4218L60.1709 77.4664A1.17 1.17 0 0 0 61.6209 76.6693L68.7798 52.0282ZM46.2 63.73A.4.39 45.5 0 0 46.2 64.28L53 71.06Q55.06 73.13 54.04 75.87 53.77 76.57 53.19 76.97 50.31 78.95 47.82 76.5 43.32 72.06 38.09 66.74C36.15 64.78 36.79 62.48 38.53 60.75Q43.62 55.7 47.81 51.5 50.39 48.93 53.3 51.12 53.75 51.47 53.97 52.02 55.09 54.85 52.94 56.99L46.2 63.73ZM43.08 64.68A.95.95 0 0 1 43.08 63.33L51.52 54.88Q52.31 54.09 51.74 53.12 51.62 52.91 51.4 52.79 50.52 52.32 49.82 53.02L39.8 63.05Q38.85 64 39.8 64.95L49.76 74.94A1.23 1.18-16.1 0 0 50.39 75.27Q51.32 75.45 51.65 75.01 52.39 74.02 51.52 73.14L43.08 64.68ZM81.57 63.46Q78.11 60.08 74.84 56.69C73.24 55.04 72.86 51.89 75.26 50.7Q77.97 49.34 80.14 51.47 84.77 56.01 89.61 60.92 92.63 63.96 89.59 67.09 84.81 72.01 80.15 76.5 77.68 78.87 74.83 76.99 74.32 76.65 74.06 76.11 72.75 73.38 74.88 71.23L81.57 64.5Q82.09 63.98 81.57 63.46ZM84.94 64.69 76.42 73.22Q75.55 74.1 76.37 75.03 76.5 75.17 76.69 75.24 77.61 75.58 78.31 74.89L88.45 64.7A1 1 0 0 0 88.45 63.29L78.22 53.03A.84.7-9.3 0 0 77.9 52.84Q76.73 52.5 76.34 52.99 75.59 53.95 76.45 54.81L84.94 63.31A.98.98 0 0 1 84.94 64.69Z"
        data-c-fill="0" />
    <rect fill="#eef4fc" x="-1.25" y="-14" transform="rotate(16.2 -192.844 256.844)" width="2.5"
        height="28" rx="1.17" data-c-fill="eef4fc" />
    <path fill="#eef4fc"
        d="M43.08 64.68 51.52 73.14Q52.39 74.02 51.65 75.01 51.32 75.45 50.39 75.27A1.23 1.18-16.1 0 1 49.76 74.94L39.8 64.95Q38.85 64 39.8 63.05L49.82 53.02Q50.52 52.32 51.4 52.79 51.62 52.91 51.74 53.12 52.31 54.09 51.52 54.88L43.08 63.33A.95.95 0 0 0 43.08 64.68ZM84.94 64.69A.98.98 0 0 0 84.94 63.31L76.45 54.81Q75.59 53.95 76.34 52.99 76.73 52.5 77.9 52.84A.84.7-9.3 0 1 78.22 53.03L88.45 63.29A1 1 0 0 1 88.45 64.7L78.31 74.89Q77.61 75.58 76.69 75.24 76.5 75.17 76.37 75.03 75.55 74.1 76.42 73.22L84.94 64.69Z"
        data-c-fill="eef4fc" />
    <path fill="#000000"
        d="M40.98 92A4.73 4.73 0 0 1 36.25 96.73 4.73 4.73 0 0 1 31.52 92 4.73 4.73 0 0 1 36.25 87.27 4.73 4.73 0 0 1 40.98 92ZM38.47 92.01A2.21 2.21 0 0 0 36.26 89.8 2.21 2.21 0 0 0 34.05 92.01 2.21 2.21 0 0 0 36.26 94.22 2.21 2.21 0 0 0 38.47 92.01ZM96.48 92A4.73 4.73 0 0 1 91.75 96.73 4.73 4.73 0 0 1 87.02 92 4.73 4.73 0 0 1 91.75 87.27 4.73 4.73 0 0 1 96.48 92ZM93.95 92A2.21 2.21 0 0 0 91.74 89.79 2.21 2.21 0 0 0 89.53 92 2.21 2.21 0 0 0 91.74 94.21 2.21 2.21 0 0 0 93.95 92Z"
        data-c-fill="0" />
    <circle fill="#70d6f9" cx="36.26" cy="92.01" r="2.21" data-c-fill="70d6f9" fill-opacity="0" />
    <circle fill="#70d6f9" cx="91.74" cy="92" r="2.21" data-c-fill="70d6f9" fill-opacity="0" />
    <circle fill="#f5c84c" cx="23.63" cy="112.7" r="1.66" data-c-fill="f5c84c" fill-opacity="0" />
    <path fill="#70d6f9"
        d="M 33.30 128.00 L 32.12 128.00 Q 31.08 127.29 31.01 125.81 Q 30.99 125.24 30.43 125.27 Q 29.96 125.29 29.51 125.16 C 28.49 124.87 28.02 123.72 28.60 122.83 A 1.62 1.61 19.6 0 1 30.13 122.11 Q 31.26 122.24 31.12 121.08 Q 31.02 120.19 31.74 119.66 C 32.93 118.78 34.54 119.82 34.21 121.29 A 0.64 0.63 8.2 0 0 34.79 122.06 L 35.64 122.12 Q 36.34 122.17 36.72 122.76 Q 37.34 123.73 36.65 124.65 Q 36.29 125.13 35.69 125.19 L 34.94 125.27 Q 34.37 125.32 34.35 125.89 Q 34.29 127.25 33.30 128.00 Z"
        data-c-fill="70d6f9" fill-opacity="0" />
</svg>