<svg xmlns="http://www.w3.org/2000/svg" version="1.1" viewBox="0.00 0.00 200.00 200.00"
    width="200.00" height="200.00">
    <g stroke-width="2.00" fill="none" stroke-linecap="butt">
        <path stroke="#1876d1" d="&#10;  M 146.02 69.89&#10;  Q 134.25 61.49 122.98 55.47" />
        <path stroke="#1a66a9"
            d="&#10;  M 122.98 55.47&#10;  Q 123.19 54.94 122.87 54.68&#10;  Q 122.70 54.53 122.62 54.34&#10;  Q 122.52 54.11 122.72 53.93&#10;  A 0.44 0.44 0.0 0 0 122.73 53.30&#10;  L 114.88 45.36&#10;  Q 114.57 45.04 114.13 45.12&#10;  Q 113.98 45.15 113.83 45.11&#10;  Q 113.50 45.02 113.24 44.77&#10;  Q 111.60 43.16 109.80 41.43&#10;  Q 109.47 41.11 109.01 41.14&#10;  Q 108.41 41.19 107.98 40.73&#10;  Q 107.69 40.43 107.31 40.28&#10;  Q 105.57 39.58 103.91 38.38&#10;  Q 103.49 38.07 102.98 38.16&#10;  Q 102.29 38.27 102.02 37.63&#10;  Q 101.81 37.12 101.26 37.12&#10;  L 100.11 37.12&#10;  A 1.16 1.15 -22.0 0 1 99.28 36.77&#10;  Q 98.39 35.87 97.15 36.12&#10;  Q 96.50 36.25 96.04 35.78&#10;  L 95.61 35.36&#10;  Q 95.28 35.03 94.82 35.09&#10;  Q 92.50 35.42 90.49 34.72&#10;  Q 88.52 34.04 86.56 34.09&#10;  Q 83.00 34.18 79.38 34.10&#10;  Q 77.41 34.05 75.48 34.72&#10;  Q 73.41 35.44 71.12 35.07&#10;  A 0.93 0.91 23.9 0 0 70.27 35.39&#10;  Q 69.41 36.44 68.06 36.11&#10;  Q 67.78 36.04 67.57 36.25&#10;  Q 66.66 37.14 65.45 37.14&#10;  Q 65.00 37.14 64.60 37.34&#10;  L 60.41 39.49&#10;  Q 60.15 39.62 59.94 39.82&#10;  Q 59.49 40.26 58.84 40.12&#10;  Q 58.34 40.01 58.08 40.45&#10;  Q 57.20 41.98 55.48 42.38&#10;  Q 55.01 42.49 54.74 42.90&#10;  Q 53.62 44.63 51.62 45.07" />
        <path stroke="#228bf4"
            d="&#10;  M 154.04 78.01&#10;  Q 151.99 78.61 150.39 79.45&#10;  Q 147.92 80.76 146.89 81.11&#10;  Q 142.59 82.57 138.40 83.94&#10;  Q 136.26 84.64 134.05 84.95&#10;  Q 131.68 85.29 129.44 86.08&#10;  Q 126.26 87.19 123.21 87.80&#10;  Q 120.00 88.43 116.64 89.02&#10;  Q 113.68 89.54 109.87 89.82&#10;  Q 104.28 90.23 97.35 91.38&#10;  Q 96.14 91.58 94.98 91.58&#10;  Q 93.89 91.58 93.22 92.22&#10;  Q 92.87 92.55 92.87 93.03&#10;  Q 92.88 96.07 92.17 98.80&#10;  Q 92.15 98.88 92.22 98.84&#10;  Q 92.27 98.82 92.31 98.86&#10;  Q 92.36 98.91 92.35 98.84&#10;  Q 92.24 97.79 91.57 97.24" />
        <path stroke="#1c7eda" d="&#10;  M 91.57 97.24&#10;  L 90.99 93.53" />
        <path stroke="#1876d1"
            d="&#10;  M 90.99 93.53&#10;  Q 90.19 81.50 84.63 72.63&#10;  Q 83.23 70.40 82.81 69.40&#10;  A 2.38 2.30 11.1 0 0 82.26 68.61&#10;  Q 79.98 66.45 78.14 63.73&#10;  C 77.77 63.18 77.25 62.96 76.72 62.61&#10;  Q 76.35 62.36 76.19 61.94&#10;  Q 75.96 61.30 75.29 60.97&#10;  Q 74.67 60.65 74.15 60.18&#10;  Q 72.27 58.50 70.36 56.64&#10;  Q 70.21 56.49 70.03 56.59&#10;  Q 69.82 56.71 69.96 56.92&#10;  L 77.49 68.33" />
        <path stroke="#228bf4"
            d="&#10;  M 77.49 68.33&#10;  L 73.55 76.22&#10;  Q 73.33 76.66 73.27 77.15&#10;  Q 73.06 78.87 71.90 80.02&#10;  Q 71.21 80.70 70.67 81.51&#10;  Q 70.12 82.35 69.29 82.90&#10;  C 68.43 83.48 67.65 84.49 67.20 85.43&#10;  Q 66.94 85.98 66.35 86.12&#10;  Q 65.73 86.27 65.26 86.68&#10;  A 1.35 1.30 -16.5 0 0 64.83 87.44&#10;  Q 64.66 88.40 63.81 88.69&#10;  Q 63.27 88.88 62.60 88.73&#10;  Q 58.58 87.80 54.18 88.10" />
        <path stroke="#89bff8"
            d="&#10;  M 54.18 88.10&#10;  Q 54.10 81.26 48.55 79.67&#10;  Q 39.90 77.18 37.43 86.63" />
        <path stroke="#228bf4"
            d="&#10;  M 37.43 86.63&#10;  L 33.77 86.67&#10;  Q 33.45 86.68 33.31 86.38&#10;  Q 33.21 86.17 32.96 86.09&#10;  Q 26.79 83.87 20.19 82.07" />
        <path stroke="#156ec8" d="&#10;  M 122.98 55.47&#10;  Q 85.77 37.14 47.82 53.69" />
        <path stroke="#2175bb"
            d="&#10;  M 90.99 93.53&#10;  L 90.89 95.82&#10;  Q 90.87 96.36 90.69 95.85&#10;  Q 90.49 95.29 90.68 94.59&#10;  Q 90.78 94.23 90.53 93.97&#10;  Q 90.14 93.58 90.12 94.12&#10;  L 89.66 105.69" />
        <path stroke="#1a66a9"
            d="&#10;  M 89.66 105.69&#10;  L 89.27 106.82&#10;  Q 88.93 107.83 88.84 106.77&#10;  Q 88.76 105.93 89.13 105.21&#10;  Q 89.37 104.74 89.43 104.22&#10;  Q 90.06 98.13 88.77 91.46&#10;  Q 88.76 91.40 88.82 91.39&#10;  Q 88.93 91.37 88.83 91.38&#10;  Q 89.12 93.08 89.07 94.78&#10;  Q 89.07 94.94 88.90 94.94&#10;  L 88.90 94.94&#10;  Q 88.73 94.93 88.73 94.77&#10;  Q 88.73 92.94 88.27 91.19" />
        <path stroke="#1c5992"
            d="&#10;  M 88.27 91.19&#10;  Q 87.62 85.13 84.68 79.85&#10;  Q 84.49 79.52 84.18 79.32&#10;  Q 83.78 79.07 83.85 78.59&#10;  Q 83.93 78.05 83.69 77.55&#10;  Q 82.59 75.22 80.63 74.61" />
        <path stroke="#2782d5" d="&#10;  M 80.63 74.61&#10;  L 77.49 68.33" />
        <path stroke="#266eb5" d="&#10;  M 80.63 74.61&#10;  Q 83.37 81.53 84.63 88.55" />
        <path stroke="#3ca0fa"
            d="&#10;  M 84.63 88.55&#10;  Q 84.30 88.51 83.75 88.02&#10;  Q 83.25 87.58 83.01 88.20&#10;  Q 81.98 90.83 79.82 92.44&#10;  A 0.90 0.86 -11.6 0 0 79.50 92.90&#10;  Q 79.37 93.36 79.69 93.30&#10;  Q 80.24 93.20 79.89 93.64&#10;  Q 78.60 95.24 76.87 96.45&#10;  Q 76.45 96.74 76.31 97.24&#10;  Q 76.20 97.62 75.80 97.64&#10;  Q 75.24 97.66 74.92 98.11&#10;  Q 72.90 100.98 70.56 102.76&#10;  Q 68.86 104.06 66.74 103.80&#10;  Q 66.31 103.75 65.92 103.94&#10;  L 63.68 105.06&#10;  Q 63.33 105.24 62.94 105.21&#10;  L 56.16 104.81&#10;  Q 55.74 104.79 55.37 104.61&#10;  Q 54.48 104.20 53.44 104.09&#10;  Q 46.68 103.38 40.24 102.09&#10;  Q 40.10 102.06 40.04 101.92&#10;  Q 39.96 101.75 39.78 101.73&#10;  Q 36.76 101.28 33.89 100.66&#10;  Q 33.74 100.63 33.59 100.65&#10;  Q 33.35 100.69 33.30 100.46&#10;  Q 33.21 100.01 32.75 100.00&#10;  Q 29.33 99.92 26.75 99.13&#10;  Q 20.73 97.27 16.84 96.49" />
        <path stroke="#98cbfb"
            d="&#10;  M 37.43 86.63&#10;  Q 37.31 92.25 41.45 94.58&#10;  Q 45.71 96.98 49.66 94.91&#10;  Q 53.61 92.85 54.18 88.10" />
        <path stroke="#3ca0fa"
            d="&#10;  M 163.55 90.67&#10;  Q 158.26 93.05 156.82 93.54&#10;  Q 135.59 100.82 113.54 103.64&#10;  Q 107.41 104.42 94.36 105.35&#10;  Q 93.83 105.39 93.60 105.87&#10;  L 88.95 115.36" />
        <path stroke="#56abf5"
            d="&#10;  M 88.95 115.36&#10;  Q 86.96 120.08 84.61 124.61&#10;  Q 84.16 125.46 83.59 125.61&#10;  Q 83.12 125.74 82.82 126.12&#10;  L 82.06 127.07" />
        <path stroke="#2b8add" d="&#10;  M 82.87 123.85&#10;  Q 85.77 120.27 86.76 115.48" />
        <path stroke="#247bcc" d="&#10;  M 87.11 114.94&#10;  Q 88.88 112.92 89.26 109.44" />
        <path stroke="#2b8add"
            d="&#10;  M 89.26 109.44&#10;  Q 90.38 107.14 90.75 105.49&#10;  Q 91.55 101.92 91.57 97.24" />
        <path stroke="#1e6eb2" d="&#10;  M 89.66 105.69&#10;  Q 89.14 107.74 89.26 109.44" />
        <path stroke="#185189"
            d="&#10;  M 88.27 91.19&#10;  Q 88.03 92.56 88.13 93.99&#10;  Q 88.15 94.27 88.10 93.98&#10;  Q 88.08 93.86 87.97 93.78&#10;  Q 87.87 93.71 87.87 93.59&#10;  Q 87.65 87.28 84.98 81.54&#10;  Q 82.82 76.90 84.40 81.77&#10;  Q 85.30 84.51 86.07 87.66&#10;  Q 88.82 98.93 86.16 110.34&#10;  Q 85.63 112.59 85.36 114.75&#10;  Q 85.28 115.30 85.84 115.36&#10;  Q 86.31 115.41 87.11 114.94" />
        <path stroke="#266eb5" d="&#10;  M 87.11 114.94&#10;  L 86.76 115.48" />
        <path stroke="#20619b"
            d="&#10;  M 86.76 115.48&#10;  L 86.05 115.87&#10;  Q 85.59 116.12 85.66 116.64&#10;  Q 85.84 117.90 85.14 118.62&#10;  Q 82.73 121.09 82.87 123.85" />
        <path stroke="#266eb5"
            d="&#10;  M 82.87 123.85&#10;  L 82.10 125.23&#10;  A 0.24 0.23 -84.8 0 0 82.38 125.57&#10;  Q 82.69 125.45 82.78 125.10&#10;  Q 82.90 124.63 82.92 125.12&#10;  Q 82.94 125.40 82.68 125.58&#10;  Q 81.60 126.33 82.06 127.07" />
        <path stroke="#4a81b2"
            d="&#10;  M 82.06 127.07&#10;  L 80.27 129.10&#10;  A 1.03 1.00 19.9 0 1 79.54 129.43&#10;  L 79.21 129.43&#10;  Q 78.75 129.43 78.96 129.02&#10;  Q 82.13 122.75 83.82 115.62" />
        <path stroke="#3177b7" d="&#10;  M 83.82 115.62&#10;  Q 87.04 102.14 84.63 88.55" />
        <path stroke="#61b4f7"
            d="&#10;  M 83.82 115.62&#10;  Q 83.62 115.17 82.27 115.30&#10;  Q 81.29 115.40 80.72 115.38&#10;  Q 58.36 114.40 50.13 113.09&#10;  Q 43.11 111.98 37.15 111.14" />
        <path stroke="#3177b7" d="&#10;  M 37.15 111.14&#10;  Q 28.66 102.72 17.09 100.40" />
        <path stroke="#61b4f7"
            d="&#10;  M 166.63 100.99&#10;  Q 136.45 111.78 104.74 114.22&#10;  Q 97.47 114.77 90.34 115.03&#10;  Q 89.62 115.06 89.37 115.73&#10;  L 87.64 120.29&#10;  Q 87.52 120.60 87.27 120.83&#10;  Q 87.09 121.00 87.02 121.26&#10;  Q 86.82 122.03 86.74 121.23&#10;  Q 86.70 120.82 87.05 120.60&#10;  Q 87.31 120.44 87.40 120.15&#10;  L 88.95 115.36" />
        <path stroke="#509edb"
            d="&#10;  M 142.89 131.91&#10;  L 141.69 128.35&#10;  A 0.57 0.56 -26.8 0 0 140.83 128.07&#10;  Q 132.80 133.68 123.84 138.01&#10;  A 0.37 0.37 0.0 0 0 123.71 138.57&#10;  L 126.73 142.52" />
        <path stroke="#509edb"
            d="&#10;  M 115.46 147.80&#10;  Q 115.04 148.00 114.88 147.60&#10;  Q 113.36 143.78 112.66 142.20&#10;  Q 112.47 141.74 112.00 141.90&#10;  L 99.02 146.32" />
        <path stroke="#56abf5"
            d="&#10;  M 99.02 146.32&#10;  L 83.86 149.98&#10;  A 0.43 0.42 -26.4 0 0 83.63 150.66&#10;  L 86.36 154.07" />
        <path stroke="#1a66a9"
            d="&#10;  M 184.61 111.42&#10;  Q 181.56 114.97 179.59 119.18&#10;  Q 178.74 121.02 177.35 122.15&#10;  Q 177.10 122.36 177.12 122.67&#10;  Q 177.16 123.15 176.84 123.51&#10;  L 172.32 128.73" />
        <path stroke="#488ec9"
            d="&#10;  M 159.80 115.24&#10;  Q 162.63 111.42 164.86 106.88&#10;  Q 166.13 104.30 166.63 100.99" />
        <path stroke="#2f84ce" d="&#10;  M 166.63 100.99&#10;  Q 166.69 95.54 163.55 90.67" />
        <path stroke="#247bcc" d="&#10;  M 163.55 90.67&#10;  L 159.82 84.79" />
        <path stroke="#4a81b2"
            d="&#10;  M 37.15 111.14&#10;  Q 37.19 114.33 30.25 115.52&#10;  Q 23.74 116.65 18.89 116.67" />
        <path stroke="#2b8add"
            d="&#10;  M 114.93 170.35&#10;  Q 111.15 165.67 107.87 160.90&#10;  C 107.21 159.94 105.96 159.03 105.81 157.92&#10;  A 1.42 1.40 14.0 0 0 105.21 156.94&#10;  Q 103.98 156.08 103.66 154.74&#10;  Q 103.53 154.19 103.10 153.85&#10;  Q 102.57 153.43 102.35 152.80&#10;  Q 102.07 152.02 101.61 151.28&#10;  Q 100.14 148.91 99.02 146.32" />
        <path stroke="#1a66a9"
            d="&#10;  M 185.45 84.32&#10;  Q 183.69 80.80 181.43 78.15&#10;  C 180.68 77.27 180.43 76.07 179.62 75.26&#10;  Q 176.28 71.94 174.17 69.24" />
        <path stroke="#909090"
            d="&#10;  M 49.99 87.50&#10;  A 4.16 4.16 0.0 0 0 45.83 83.34&#10;  A 4.16 4.16 0.0 0 0 41.67 87.50&#10;  A 4.16 4.16 0.0 0 0 45.83 91.66&#10;  A 4.16 4.16 0.0 0 0 49.99 87.50" />
        <path stroke="#56abf5"
            d="&#10;  M 82.71 126.88&#10;  Q 82.13 127.37 81.82 128.09&#10;  Q 81.51 128.83 82.13 128.32&#10;  Q 83.10 127.53 83.52 126.32&#10;  Q 83.69 125.83 83.24 126.10&#10;  Q 82.77 126.40 82.71 126.88" />
    </g>
    <path fill="#1d6db2"
        d="&#10;  M 146.02 69.89&#10;  Q 134.25 61.49 122.98 55.47&#10;  Q 123.19 54.94 122.87 54.68&#10;  Q 122.70 54.53 122.62 54.34&#10;  Q 122.52 54.11 122.72 53.93&#10;  A 0.44 0.44 0.0 0 0 122.73 53.30&#10;  L 114.88 45.36&#10;  Q 114.57 45.04 114.13 45.12&#10;  Q 113.98 45.15 113.83 45.11&#10;  Q 113.50 45.02 113.24 44.77&#10;  Q 111.60 43.16 109.80 41.43&#10;  Q 109.47 41.11 109.01 41.14&#10;  Q 108.41 41.19 107.98 40.73&#10;  Q 107.69 40.43 107.31 40.28&#10;  Q 105.57 39.58 103.91 38.38&#10;  Q 103.49 38.07 102.98 38.16&#10;  Q 102.29 38.27 102.02 37.63&#10;  Q 101.81 37.12 101.26 37.12&#10;  L 100.11 37.12&#10;  A 1.16 1.15 -22.0 0 1 99.28 36.77&#10;  Q 98.39 35.87 97.15 36.12&#10;  Q 96.50 36.25 96.04 35.78&#10;  L 95.61 35.36&#10;  Q 95.28 35.03 94.82 35.09&#10;  Q 92.50 35.42 90.49 34.72&#10;  Q 88.52 34.04 86.56 34.09&#10;  Q 83.00 34.18 79.38 34.10&#10;  Q 77.41 34.05 75.48 34.72&#10;  Q 73.41 35.44 71.12 35.07&#10;  A 0.93 0.91 23.9 0 0 70.27 35.39&#10;  Q 69.41 36.44 68.06 36.11&#10;  Q 67.78 36.04 67.57 36.25&#10;  Q 66.66 37.14 65.45 37.14&#10;  Q 65.00 37.14 64.60 37.34&#10;  L 60.41 39.49&#10;  Q 60.15 39.62 59.94 39.82&#10;  Q 59.49 40.26 58.84 40.12&#10;  Q 58.34 40.01 58.08 40.45&#10;  Q 57.20 41.98 55.48 42.38&#10;  Q 55.01 42.49 54.74 42.90&#10;  Q 53.62 44.63 51.62 45.07&#10;  Q 58.73 32.97 70.42 25.29&#10;  Q 70.92 24.96 71.53 24.99&#10;  C 90.74 26.18 110.30 34.26 125.76 45.45&#10;  Q 138.83 54.90 146.02 69.89&#10;  Z" />
    <path fill="#165ea0"
        d="&#10;  M 122.98 55.47&#10;  Q 85.77 37.14 47.82 53.69&#10;  L 51.62 45.07&#10;  Q 53.62 44.63 54.74 42.90&#10;  Q 55.01 42.49 55.48 42.38&#10;  Q 57.20 41.98 58.08 40.45&#10;  Q 58.34 40.01 58.84 40.12&#10;  Q 59.49 40.26 59.94 39.82&#10;  Q 60.15 39.62 60.41 39.49&#10;  L 64.60 37.34&#10;  Q 65.00 37.14 65.45 37.14&#10;  Q 66.66 37.14 67.57 36.25&#10;  Q 67.78 36.04 68.06 36.11&#10;  Q 69.41 36.44 70.27 35.39&#10;  A 0.93 0.91 23.9 0 1 71.12 35.07&#10;  Q 73.41 35.44 75.48 34.72&#10;  Q 77.41 34.05 79.38 34.10&#10;  Q 83.00 34.18 86.56 34.09&#10;  Q 88.52 34.04 90.49 34.72&#10;  Q 92.50 35.42 94.82 35.09&#10;  Q 95.28 35.03 95.61 35.36&#10;  L 96.04 35.78&#10;  Q 96.50 36.25 97.15 36.12&#10;  Q 98.39 35.87 99.28 36.77&#10;  A 1.16 1.15 -22.0 0 0 100.11 37.12&#10;  L 101.26 37.12&#10;  Q 101.81 37.12 102.02 37.63&#10;  Q 102.29 38.27 102.98 38.16&#10;  Q 103.49 38.07 103.91 38.38&#10;  Q 105.57 39.58 107.31 40.28&#10;  Q 107.69 40.43 107.98 40.73&#10;  Q 108.41 41.19 109.01 41.14&#10;  Q 109.47 41.11 109.80 41.43&#10;  Q 111.60 43.16 113.24 44.77&#10;  Q 113.50 45.02 113.83 45.11&#10;  Q 113.98 45.15 114.13 45.12&#10;  Q 114.57 45.04 114.88 45.36&#10;  L 122.73 53.30&#10;  A 0.44 0.44 0.0 0 1 122.72 53.93&#10;  Q 122.52 54.11 122.62 54.34&#10;  Q 122.70 54.53 122.87 54.68&#10;  Q 123.19 54.94 122.98 55.47&#10;  Z" />
    <path fill="#137ef0"
        d="&#10;  M 122.98 55.47&#10;  Q 134.25 61.49 146.02 69.89&#10;  L 154.04 78.01&#10;  Q 151.99 78.61 150.39 79.45&#10;  Q 147.92 80.76 146.89 81.11&#10;  Q 142.59 82.57 138.40 83.94&#10;  Q 136.26 84.64 134.05 84.95&#10;  Q 131.68 85.29 129.44 86.08&#10;  Q 126.26 87.19 123.21 87.80&#10;  Q 120.00 88.43 116.64 89.02&#10;  Q 113.68 89.54 109.87 89.82&#10;  Q 104.28 90.23 97.35 91.38&#10;  Q 96.14 91.58 94.98 91.58&#10;  Q 93.89 91.58 93.22 92.22&#10;  Q 92.87 92.55 92.87 93.03&#10;  Q 92.88 96.07 92.17 98.80&#10;  Q 92.15 98.88 92.22 98.84&#10;  Q 92.27 98.82 92.31 98.86&#10;  Q 92.36 98.91 92.35 98.84&#10;  Q 92.24 97.79 91.57 97.24&#10;  L 90.99 93.53&#10;  Q 90.19 81.50 84.63 72.63&#10;  Q 83.23 70.40 82.81 69.40&#10;  A 2.38 2.30 11.1 0 0 82.26 68.61&#10;  Q 79.98 66.45 78.14 63.73&#10;  C 77.77 63.18 77.25 62.96 76.72 62.61&#10;  Q 76.35 62.36 76.19 61.94&#10;  Q 75.96 61.30 75.29 60.97&#10;  Q 74.67 60.65 74.15 60.18&#10;  Q 72.27 58.50 70.36 56.64&#10;  Q 70.21 56.49 70.03 56.59&#10;  Q 69.82 56.71 69.96 56.92&#10;  L 77.49 68.33&#10;  L 73.55 76.22&#10;  Q 73.33 76.66 73.27 77.15&#10;  Q 73.06 78.87 71.90 80.02&#10;  Q 71.21 80.70 70.67 81.51&#10;  Q 70.12 82.35 69.29 82.90&#10;  C 68.43 83.48 67.65 84.49 67.20 85.43&#10;  Q 66.94 85.98 66.35 86.12&#10;  Q 65.73 86.27 65.26 86.68&#10;  A 1.35 1.30 -16.5 0 0 64.83 87.44&#10;  Q 64.66 88.40 63.81 88.69&#10;  Q 63.27 88.88 62.60 88.73&#10;  Q 58.58 87.80 54.18 88.10&#10;  Q 54.10 81.26 48.55 79.67&#10;  Q 39.90 77.18 37.43 86.63&#10;  L 33.77 86.67&#10;  Q 33.45 86.68 33.31 86.38&#10;  Q 33.21 86.17 32.96 86.09&#10;  Q 26.79 83.87 20.19 82.07&#10;  Q 26.78 67.06 40.39 58.14&#10;  Q 41.95 57.11 47.82 53.69&#10;  Q 85.77 37.14 122.98 55.47&#10;  Z" />
    <path fill="#1d6db2"
        d="&#10;  M 90.99 93.53&#10;  L 90.89 95.82&#10;  Q 90.87 96.36 90.69 95.85&#10;  Q 90.49 95.29 90.68 94.59&#10;  Q 90.78 94.23 90.53 93.97&#10;  Q 90.14 93.58 90.12 94.12&#10;  L 89.66 105.69&#10;  L 89.27 106.82&#10;  Q 88.93 107.83 88.84 106.77&#10;  Q 88.76 105.93 89.13 105.21&#10;  Q 89.37 104.74 89.43 104.22&#10;  Q 90.06 98.13 88.77 91.46&#10;  Q 88.76 91.40 88.82 91.39&#10;  Q 88.93 91.37 88.83 91.38&#10;  Q 89.12 93.08 89.07 94.78&#10;  Q 89.07 94.94 88.90 94.94&#10;  L 88.90 94.94&#10;  Q 88.73 94.93 88.73 94.77&#10;  Q 88.73 92.94 88.27 91.19&#10;  Q 87.62 85.13 84.68 79.85&#10;  Q 84.49 79.52 84.18 79.32&#10;  Q 83.78 79.07 83.85 78.59&#10;  Q 83.93 78.05 83.69 77.55&#10;  Q 82.59 75.22 80.63 74.61&#10;  L 77.49 68.33&#10;  L 69.96 56.92&#10;  Q 69.82 56.71 70.03 56.59&#10;  Q 70.21 56.49 70.36 56.64&#10;  Q 72.27 58.50 74.15 60.18&#10;  Q 74.67 60.65 75.29 60.97&#10;  Q 75.96 61.30 76.19 61.94&#10;  Q 76.35 62.36 76.72 62.61&#10;  C 77.25 62.96 77.77 63.18 78.14 63.73&#10;  Q 79.98 66.45 82.26 68.61&#10;  A 2.38 2.30 11.1 0 1 82.81 69.40&#10;  Q 83.23 70.40 84.63 72.63&#10;  Q 90.19 81.50 90.99 93.53&#10;  Z" />
    <path fill="#1d6db2"
        d="&#10;  M 185.45 84.32&#10;  Q 183.69 80.80 181.43 78.15&#10;  C 180.68 77.27 180.43 76.07 179.62 75.26&#10;  Q 176.28 71.94 174.17 69.24&#10;  Q 179.34 63.56 185.80 59.82&#10;  Q 188.16 58.46 189.53 58.38&#10;  Q 192.37 58.21 191.64 60.97&#10;  L 185.45 84.32&#10;  Z" />
    <path fill="#3197f7"
        d="&#10;  M 77.49 68.33&#10;  L 80.63 74.61&#10;  Q 83.37 81.53 84.63 88.55&#10;  Q 84.30 88.51 83.75 88.02&#10;  Q 83.25 87.58 83.01 88.20&#10;  Q 81.98 90.83 79.82 92.44&#10;  A 0.90 0.86 -11.6 0 0 79.50 92.90&#10;  Q 79.37 93.36 79.69 93.30&#10;  Q 80.24 93.20 79.89 93.64&#10;  Q 78.60 95.24 76.87 96.45&#10;  Q 76.45 96.74 76.31 97.24&#10;  Q 76.20 97.62 75.80 97.64&#10;  Q 75.24 97.66 74.92 98.11&#10;  Q 72.90 100.98 70.56 102.76&#10;  Q 68.86 104.06 66.74 103.80&#10;  Q 66.31 103.75 65.92 103.94&#10;  L 63.68 105.06&#10;  Q 63.33 105.24 62.94 105.21&#10;  L 56.16 104.81&#10;  Q 55.74 104.79 55.37 104.61&#10;  Q 54.48 104.20 53.44 104.09&#10;  Q 46.68 103.38 40.24 102.09&#10;  Q 40.10 102.06 40.04 101.92&#10;  Q 39.96 101.75 39.78 101.73&#10;  Q 36.76 101.28 33.89 100.66&#10;  Q 33.74 100.63 33.59 100.65&#10;  Q 33.35 100.69 33.30 100.46&#10;  Q 33.21 100.01 32.75 100.00&#10;  Q 29.33 99.92 26.75 99.13&#10;  Q 20.73 97.27 16.84 96.49&#10;  Q 17.25 89.50 20.19 82.07&#10;  Q 26.79 83.87 32.96 86.09&#10;  Q 33.21 86.17 33.31 86.38&#10;  Q 33.45 86.68 33.77 86.67&#10;  L 37.43 86.63&#10;  Q 37.31 92.25 41.45 94.58&#10;  Q 45.71 96.98 49.66 94.91&#10;  Q 53.61 92.85 54.18 88.10&#10;  Q 58.58 87.80 62.60 88.73&#10;  Q 63.27 88.88 63.81 88.69&#10;  Q 64.66 88.40 64.83 87.44&#10;  A 1.35 1.30 -16.5 0 1 65.26 86.68&#10;  Q 65.73 86.27 66.35 86.12&#10;  Q 66.94 85.98 67.20 85.43&#10;  C 67.65 84.49 68.43 83.48 69.29 82.90&#10;  Q 70.12 82.35 70.67 81.51&#10;  Q 71.21 80.70 71.90 80.02&#10;  Q 73.06 78.87 73.27 77.15&#10;  Q 73.33 76.66 73.55 76.22&#10;  L 77.49 68.33&#10;  Z" />
    <path fill="#165ea0"
        d="&#10;  M 174.17 69.24&#10;  Q 176.28 71.94 179.62 75.26&#10;  C 180.43 76.07 180.68 77.27 181.43 78.15&#10;  Q 183.69 80.80 185.45 84.32&#10;  Q 184.03 91.51 183.79 93.50&#10;  Q 182.70 102.61 184.61 111.42&#10;  Q 181.56 114.97 179.59 119.18&#10;  Q 178.74 121.02 177.35 122.15&#10;  Q 177.10 122.36 177.12 122.67&#10;  Q 177.16 123.15 176.84 123.51&#10;  L 172.32 128.73&#10;  L 159.80 115.24&#10;  Q 162.63 111.42 164.86 106.88&#10;  Q 166.13 104.30 166.63 100.99&#10;  Q 166.69 95.54 163.55 90.67&#10;  L 159.82 84.79&#10;  L 174.17 69.24&#10;  Z" />
    <path fill="#1a4472"
        d="&#10;  M 88.27 91.19&#10;  Q 88.03 92.56 88.13 93.99&#10;  Q 88.15 94.27 88.10 93.98&#10;  Q 88.08 93.86 87.97 93.78&#10;  Q 87.87 93.71 87.87 93.59&#10;  Q 87.65 87.28 84.98 81.54&#10;  Q 82.82 76.90 84.40 81.77&#10;  Q 85.30 84.51 86.07 87.66&#10;  Q 88.82 98.93 86.16 110.34&#10;  Q 85.63 112.59 85.36 114.75&#10;  Q 85.28 115.30 85.84 115.36&#10;  Q 86.31 115.41 87.11 114.94&#10;  L 86.76 115.48&#10;  L 86.05 115.87&#10;  Q 85.59 116.12 85.66 116.64&#10;  Q 85.84 117.90 85.14 118.62&#10;  Q 82.73 121.09 82.87 123.85&#10;  L 82.10 125.23&#10;  A 0.24 0.23 -84.8 0 0 82.38 125.57&#10;  Q 82.69 125.45 82.78 125.10&#10;  Q 82.90 124.63 82.92 125.12&#10;  Q 82.94 125.40 82.68 125.58&#10;  Q 81.60 126.33 82.06 127.07&#10;  L 80.27 129.10&#10;  A 1.03 1.00 19.9 0 1 79.54 129.43&#10;  L 79.21 129.43&#10;  Q 78.75 129.43 78.96 129.02&#10;  Q 82.13 122.75 83.82 115.62&#10;  Q 87.04 102.14 84.63 88.55&#10;  Q 83.37 81.53 80.63 74.61&#10;  Q 82.59 75.22 83.69 77.55&#10;  Q 83.93 78.05 83.85 78.59&#10;  Q 83.78 79.07 84.18 79.32&#10;  Q 84.49 79.52 84.68 79.85&#10;  Q 87.62 85.13 88.27 91.19&#10;  Z" />
    <path fill="#3197f7"
        d="&#10;  M 154.04 78.01&#10;  L 159.82 84.79&#10;  L 163.55 90.67&#10;  Q 158.26 93.05 156.82 93.54&#10;  Q 135.59 100.82 113.54 103.64&#10;  Q 107.41 104.42 94.36 105.35&#10;  Q 93.83 105.39 93.60 105.87&#10;  L 88.95 115.36&#10;  Q 86.96 120.08 84.61 124.61&#10;  Q 84.16 125.46 83.59 125.61&#10;  Q 83.12 125.74 82.82 126.12&#10;  L 82.06 127.07&#10;  Q 81.60 126.33 82.68 125.58&#10;  Q 82.94 125.40 82.92 125.12&#10;  Q 82.90 124.63 82.78 125.10&#10;  Q 82.69 125.45 82.38 125.57&#10;  A 0.24 0.23 -84.8 0 1 82.10 125.23&#10;  L 82.87 123.85&#10;  Q 85.77 120.27 86.76 115.48&#10;  L 87.11 114.94&#10;  Q 88.88 112.92 89.26 109.44&#10;  Q 90.38 107.14 90.75 105.49&#10;  Q 91.55 101.92 91.57 97.24&#10;  Q 92.24 97.79 92.35 98.84&#10;  Q 92.36 98.91 92.31 98.86&#10;  Q 92.27 98.82 92.22 98.84&#10;  Q 92.15 98.88 92.17 98.80&#10;  Q 92.88 96.07 92.87 93.03&#10;  Q 92.87 92.55 93.22 92.22&#10;  Q 93.89 91.58 94.98 91.58&#10;  Q 96.14 91.58 97.35 91.38&#10;  Q 104.28 90.23 109.87 89.82&#10;  Q 113.68 89.54 116.64 89.02&#10;  Q 120.00 88.43 123.21 87.80&#10;  Q 126.26 87.19 129.44 86.08&#10;  Q 131.68 85.29 134.05 84.95&#10;  Q 136.26 84.64 138.40 83.94&#10;  Q 142.59 82.57 146.89 81.11&#10;  Q 147.92 80.76 150.39 79.45&#10;  Q 151.99 78.61 154.04 78.01&#10;  Z" />
    <path fill="#ffffff"
        d="&#10;  M 54.18 88.10&#10;  Q 53.61 92.85 49.66 94.91&#10;  Q 45.71 96.98 41.45 94.58&#10;  Q 37.31 92.25 37.43 86.63&#10;  Q 39.90 77.18 48.55 79.67&#10;  Q 54.10 81.26 54.18 88.10&#10;  Z&#10;  M 49.99 87.50&#10;  A 4.16 4.16 0.0 0 0 45.83 83.34&#10;  A 4.16 4.16 0.0 0 0 41.67 87.50&#10;  A 4.16 4.16 0.0 0 0 45.83 91.66&#10;  A 4.16 4.16 0.0 0 0 49.99 87.50&#10;  Z" />
    <path fill="#165ea0"
        d="&#10;  M 88.27 91.19&#10;  Q 88.73 92.94 88.73 94.77&#10;  Q 88.73 94.93 88.90 94.94&#10;  L 88.90 94.94&#10;  Q 89.07 94.94 89.07 94.78&#10;  Q 89.12 93.08 88.83 91.38&#10;  Q 88.93 91.37 88.82 91.39&#10;  Q 88.76 91.40 88.77 91.46&#10;  Q 90.06 98.13 89.43 104.22&#10;  Q 89.37 104.74 89.13 105.21&#10;  Q 88.76 105.93 88.84 106.77&#10;  Q 88.93 107.83 89.27 106.82&#10;  L 89.66 105.69&#10;  Q 89.14 107.74 89.26 109.44&#10;  Q 88.88 112.92 87.11 114.94&#10;  Q 86.31 115.41 85.84 115.36&#10;  Q 85.28 115.30 85.36 114.75&#10;  Q 85.63 112.59 86.16 110.34&#10;  Q 88.82 98.93 86.07 87.66&#10;  Q 85.30 84.51 84.40 81.77&#10;  Q 82.82 76.90 84.98 81.54&#10;  Q 87.65 87.28 87.87 93.59&#10;  Q 87.87 93.71 87.97 93.78&#10;  Q 88.08 93.86 88.10 93.98&#10;  Q 88.15 94.27 88.13 93.99&#10;  Q 88.03 92.56 88.27 91.19&#10;  Z" />
    <circle fill="#212121" cx="45.83" cy="87.50" r="4.16" />
    <path fill="#47a9fc"
        d="&#10;  M 84.63 88.55&#10;  Q 87.04 102.14 83.82 115.62&#10;  Q 83.62 115.17 82.27 115.30&#10;  Q 81.29 115.40 80.72 115.38&#10;  Q 58.36 114.40 50.13 113.09&#10;  Q 43.11 111.98 37.15 111.14&#10;  Q 28.66 102.72 17.09 100.40&#10;  Q 16.42 99.77 16.84 96.49&#10;  Q 20.73 97.27 26.75 99.13&#10;  Q 29.33 99.92 32.75 100.00&#10;  Q 33.21 100.01 33.30 100.46&#10;  Q 33.35 100.69 33.59 100.65&#10;  Q 33.74 100.63 33.89 100.66&#10;  Q 36.76 101.28 39.78 101.73&#10;  Q 39.96 101.75 40.04 101.92&#10;  Q 40.10 102.06 40.24 102.09&#10;  Q 46.68 103.38 53.44 104.09&#10;  Q 54.48 104.20 55.37 104.61&#10;  Q 55.74 104.79 56.16 104.81&#10;  L 62.94 105.21&#10;  Q 63.33 105.24 63.68 105.06&#10;  L 65.92 103.94&#10;  Q 66.31 103.75 66.74 103.80&#10;  Q 68.86 104.06 70.56 102.76&#10;  Q 72.90 100.98 74.92 98.11&#10;  Q 75.24 97.66 75.80 97.64&#10;  Q 76.20 97.62 76.31 97.24&#10;  Q 76.45 96.74 76.87 96.45&#10;  Q 78.60 95.24 79.89 93.64&#10;  Q 80.24 93.20 79.69 93.30&#10;  Q 79.37 93.36 79.50 92.90&#10;  A 0.90 0.86 -11.6 0 1 79.82 92.44&#10;  Q 81.98 90.83 83.01 88.20&#10;  Q 83.25 87.58 83.75 88.02&#10;  Q 84.30 88.51 84.63 88.55&#10;  Z" />
    <path fill="#47a9fc"
        d="&#10;  M 163.55 90.67&#10;  Q 166.69 95.54 166.63 100.99&#10;  Q 136.45 111.78 104.74 114.22&#10;  Q 97.47 114.77 90.34 115.03&#10;  Q 89.62 115.06 89.37 115.73&#10;  L 87.64 120.29&#10;  Q 87.52 120.60 87.27 120.83&#10;  Q 87.09 121.00 87.02 121.26&#10;  Q 86.82 122.03 86.74 121.23&#10;  Q 86.70 120.82 87.05 120.60&#10;  Q 87.31 120.44 87.40 120.15&#10;  L 88.95 115.36&#10;  L 93.60 105.87&#10;  Q 93.83 105.39 94.36 105.35&#10;  Q 107.41 104.42 113.54 103.64&#10;  Q 135.59 100.82 156.82 93.54&#10;  Q 158.26 93.05 163.55 90.67&#10;  Z" />
    <path fill="#257dc3"
        d="&#10;  M 90.99 93.53&#10;  L 91.57 97.24&#10;  Q 91.55 101.92 90.75 105.49&#10;  Q 90.38 107.14 89.26 109.44&#10;  Q 89.14 107.74 89.66 105.69&#10;  L 90.12 94.12&#10;  Q 90.14 93.58 90.53 93.97&#10;  Q 90.78 94.23 90.68 94.59&#10;  Q 90.49 95.29 90.69 95.85&#10;  Q 90.87 96.36 90.89 95.82&#10;  L 90.99 93.53&#10;  Z" />
    <path fill="#1a4472"
        d="&#10;  M 17.09 100.40&#10;  Q 28.66 102.72 37.15 111.14&#10;  Q 37.19 114.33 30.25 115.52&#10;  Q 23.74 116.65 18.89 116.67&#10;  L 25.82 111.60&#10;  A 1.32 1.32 0.0 0 0 25.99 109.62&#10;  L 17.09 100.40&#10;  Z" />
    <path fill="#7abef2"
        d="&#10;  M 166.63 100.99&#10;  Q 166.13 104.30 164.86 106.88&#10;  Q 162.63 111.42 159.80 115.24&#10;  Q 152.59 124.48 142.89 131.91&#10;  L 141.69 128.35&#10;  A 0.57 0.56 -26.8 0 0 140.83 128.07&#10;  Q 132.80 133.68 123.84 138.01&#10;  A 0.37 0.37 0.0 0 0 123.71 138.57&#10;  L 126.73 142.52&#10;  L 115.46 147.80&#10;  Q 115.04 148.00 114.88 147.60&#10;  Q 113.36 143.78 112.66 142.20&#10;  Q 112.47 141.74 112.00 141.90&#10;  L 99.02 146.32&#10;  L 83.86 149.98&#10;  A 0.43 0.42 -26.4 0 0 83.63 150.66&#10;  L 86.36 154.07&#10;  C 64.93 154.62 42.68 147.78 27.97 131.79&#10;  Q 21.95 125.25 18.89 116.67&#10;  Q 23.74 116.65 30.25 115.52&#10;  Q 37.19 114.33 37.15 111.14&#10;  Q 43.11 111.98 50.13 113.09&#10;  Q 58.36 114.40 80.72 115.38&#10;  Q 81.29 115.40 82.27 115.30&#10;  Q 83.62 115.17 83.82 115.62&#10;  Q 82.13 122.75 78.96 129.02&#10;  Q 78.75 129.43 79.21 129.43&#10;  L 79.54 129.43&#10;  A 1.03 1.00 19.9 0 0 80.27 129.10&#10;  L 82.06 127.07&#10;  L 82.82 126.12&#10;  Q 83.12 125.74 83.59 125.61&#10;  Q 84.16 125.46 84.61 124.61&#10;  Q 86.96 120.08 88.95 115.36&#10;  L 87.40 120.15&#10;  Q 87.31 120.44 87.05 120.60&#10;  Q 86.70 120.82 86.74 121.23&#10;  Q 86.82 122.03 87.02 121.26&#10;  Q 87.09 121.00 87.27 120.83&#10;  Q 87.52 120.60 87.64 120.29&#10;  L 89.37 115.73&#10;  Q 89.62 115.06 90.34 115.03&#10;  Q 97.47 114.77 104.74 114.22&#10;  Q 136.45 111.78 166.63 100.99&#10;  Z&#10;  M 82.71 126.88&#10;  Q 82.13 127.37 81.82 128.09&#10;  Q 81.51 128.83 82.13 128.32&#10;  Q 83.10 127.53 83.52 126.32&#10;  Q 83.69 125.83 83.24 126.10&#10;  Q 82.77 126.40 82.71 126.88&#10;  Z" />
    <path fill="#1d6db2"
        d="&#10;  M 184.61 111.42&#10;  L 191.61 139.42&#10;  Q 192.21 141.82 189.75 141.57&#10;  C 183.85 140.95 176.05 133.12 172.32 128.73&#10;  L 176.84 123.51&#10;  Q 177.16 123.15 177.12 122.67&#10;  Q 177.10 122.36 177.35 122.15&#10;  Q 178.74 121.02 179.59 119.18&#10;  Q 181.56 114.97 184.61 111.42&#10;  Z" />
    <path fill="#257dc3"
        d="&#10;  M 86.76 115.48&#10;  Q 85.77 120.27 82.87 123.85&#10;  Q 82.73 121.09 85.14 118.62&#10;  Q 85.84 117.90 85.66 116.64&#10;  Q 85.59 116.12 86.05 115.87&#10;  L 86.76 115.48&#10;  Z" />
    <path fill="#3197f7"
        d="&#10;  M 82.71 126.88&#10;  Q 82.77 126.40 83.24 126.10&#10;  Q 83.69 125.83 83.52 126.32&#10;  Q 83.10 127.53 82.13 128.32&#10;  Q 81.51 128.83 81.82 128.09&#10;  Q 82.13 127.37 82.71 126.88&#10;  Z" />
    <path fill="#257dc3"
        d="&#10;  M 142.89 131.91&#10;  L 149.91 148.25&#10;  A 1.31 1.31 0.0 0 1 148.71 150.07&#10;  Q 136.98 150.05 127.71 142.80&#10;  Q 127.21 142.42 126.73 142.52&#10;  L 123.71 138.57&#10;  A 0.37 0.37 0.0 0 1 123.84 138.01&#10;  Q 132.80 133.68 140.83 128.07&#10;  A 0.57 0.56 -26.8 0 1 141.69 128.35&#10;  L 142.89 131.91&#10;  Z" />
    <path fill="#257dc3"
        d="&#10;  M 115.46 147.80&#10;  Q 115.12 148.15 115.29 148.46&#10;  Q 120.01 157.07 123.90 165.05&#10;  Q 124.92 167.14 124.76 169.27&#10;  A 1.49 1.49 0.0 0 1 123.23 170.64&#10;  L 114.93 170.35&#10;  Q 111.15 165.67 107.87 160.90&#10;  C 107.21 159.94 105.96 159.03 105.81 157.92&#10;  A 1.42 1.40 14.0 0 0 105.21 156.94&#10;  Q 103.98 156.08 103.66 154.74&#10;  Q 103.53 154.19 103.10 153.85&#10;  Q 102.57 153.43 102.35 152.80&#10;  Q 102.07 152.02 101.61 151.28&#10;  Q 100.14 148.91 99.02 146.32&#10;  L 112.00 141.90&#10;  Q 112.47 141.74 112.66 142.20&#10;  Q 113.36 143.78 114.88 147.60&#10;  Q 115.04 148.00 115.46 147.80&#10;  Z" />
    <path fill="#3197f7"
        d="&#10;  M 99.02 146.32&#10;  Q 100.14 148.91 101.61 151.28&#10;  Q 102.07 152.02 102.35 152.80&#10;  Q 102.57 153.43 103.10 153.85&#10;  Q 103.53 154.19 103.66 154.74&#10;  Q 103.98 156.08 105.21 156.94&#10;  A 1.42 1.40 14.0 0 1 105.81 157.92&#10;  C 105.96 159.03 107.21 159.94 107.87 160.90&#10;  Q 111.15 165.67 114.93 170.35&#10;  Q 98.12 166.74 86.36 154.07&#10;  L 83.63 150.66&#10;  A 0.43 0.42 -26.4 0 1 83.86 149.98&#10;  L 99.02 146.32&#10;  Z" />
</svg>