<svg version="1.1" xmlns="http://www.w3.org/2000/svg" width="200" height="200">
    <path
        d="M0 0 C1.2292218 0.32345398 2.4584436 0.64690796 3.72491455 0.98016357 C6.30528012 1.66257329 8.88336972 2.35033078 11.45947266 3.04833984 C14.73869695 3.93642271 18.02304794 4.80340009 21.30968857 5.66357803 C24.4798224 6.49540572 27.64604436 7.34179679 30.8125 8.1875 C31.98037048 8.49496155 33.14824097 8.8024231 34.35150146 9.11920166 C40.51882032 10.79843051 46.14178454 12.55743576 51.640625 15.859375 C51.970625 16.849375 52.300625 17.839375 52.640625 18.859375 C53.28 19.16875 53.919375 19.478125 54.578125 19.796875 C57.25091308 21.17376583 57.59413658 22.04810681 58.640625 24.859375 C58.90805054 28.16267395 58.90805054 28.16267395 58.93115234 32.14379883 C58.93786957 32.87131348 58.94458679 33.59882812 58.95150757 34.34838867 C58.97050328 36.75446422 58.97441433 39.16026034 58.9765625 41.56640625 C58.98299578 43.25111503 58.98972454 44.9358227 58.99673462 46.62052917 C59.00871589 50.15874818 59.01241522 53.69686956 59.01123047 57.23510742 C59.0110287 61.72900055 59.03817769 66.22225108 59.07277489 70.71599293 C59.09523502 74.20200865 59.09906202 77.68787532 59.09801102 81.17395592 C59.10034425 82.82785923 59.10903647 84.48176812 59.12467575 86.13559914 C59.24323246 99.98426013 57.48736279 112.7290569 50.890625 125.171875 C50.54700928 125.83719238 50.20339355 126.50250977 49.84936523 127.18798828 C46.75749797 132.98867207 43.02056329 137.96020885 38.640625 142.859375 C37.97675781 143.66503906 37.31289062 144.47070312 36.62890625 145.30078125 C25.43576607 158.52151429 2.54924719 178.16577019 -15.234375 179.671875 C-37.01697364 178.17083054 -60.93821583 153.73355691 -74.609375 138.109375 C-83.05222768 127.59018559 -89.23720593 116.03567185 -92.359375 102.859375 C-92.53425949 102.12899521 -92.70914398 101.39861542 -92.889328 100.64610291 C-93.46502876 97.23299446 -93.51022335 93.96438618 -93.53637695 90.50219727 C-93.54294815 89.7795871 -93.54951935 89.05697693 -93.55628967 88.31246948 C-93.57591751 85.93357219 -93.58765895 83.55473756 -93.59765625 81.17578125 C-93.60173178 80.36041334 -93.6058073 79.54504543 -93.61000633 78.70496941 C-93.63081784 74.39275241 -93.64514321 70.08056681 -93.65454102 65.76831055 C-93.66562171 61.32180204 -93.70005443 56.8757917 -93.73971272 52.42945957 C-93.76587734 49.00216249 -93.77423247 45.57498453 -93.77782249 42.14759636 C-93.7826854 40.50857092 -93.79429104 38.8695507 -93.81286049 37.23062325 C-93.83725978 34.93532954 -93.83628671 32.64133147 -93.8293457 30.34594727 C-93.83521194 29.04198502 -93.84107819 27.73802277 -93.84712219 26.39454651 C-93.26745308 22.19312873 -92.08289223 20.08499369 -89.359375 16.859375 C-87.21603394 15.53521729 -87.21603394 15.53521729 -84.88232422 14.72753906 C-84.00042419 14.41498169 -83.11852417 14.10242432 -82.2098999 13.78039551 C-81.26922668 13.47645874 -80.32855347 13.17252197 -79.359375 12.859375 C-77.92782074 12.3865509 -77.92782074 12.3865509 -76.46734619 11.9041748 C-73.31844585 10.89181162 -70.1589105 9.92386345 -66.9921875 8.96875 C-65.83621063 8.61927307 -64.68023376 8.26979614 -63.48922729 7.909729 C-61.05792389 7.17766591 -58.62578941 6.4483578 -56.19287109 5.72167969 C-52.49754741 4.61332586 -48.80952465 3.48260925 -45.12109375 2.3515625 C-42.74521006 1.63922801 -40.36892056 0.92824539 -37.9921875 0.21875 C-36.36037033 -0.28739838 -36.36037033 -0.28739838 -34.69558716 -0.80377197 C-22.34492013 -4.42694448 -12.29377568 -3.34496767 0 0 Z "
        fill="#5E64A2" transform="translate(119.359375,15.140625)" />
    <path
        d="M0 0 C1.15693359 0.29197266 2.31386719 0.58394531 3.50585938 0.88476562 C12.92838569 3.2934928 22.24646564 6.02442759 31.5625 8.8125 C31.63251037 16.03706262 31.68556696 23.26155016 31.71793652 30.48638535 C31.73348523 33.84249244 31.75618193 37.19818932 31.78881836 40.55419922 C31.82551543 44.42681901 31.84229832 48.29911207 31.85546875 52.171875 C31.87095261 53.356745 31.88643646 54.54161499 31.90238953 55.76239014 C31.90644213 76.15615744 23.47076057 90.25934537 9.39941406 104.35302734 C3.94875452 109.61952015 -2.04849567 113.75299859 -8.4375 117.8125 C-9.15164062 118.29976563 -9.86578125 118.78703125 -10.6015625 119.2890625 C-13.3517096 121.06999477 -14.99516912 121.84689681 -18.30078125 121.58984375 C-33.32184357 117.86731399 -49.67341571 101.14196424 -58.375 88.5625 C-67.60848568 72.12756723 -67.0577651 56.20872344 -66.75 37.8125 C-66.72487205 35.18752137 -66.70206688 32.56251943 -66.68164062 29.9375 C-66.62703637 23.56198396 -66.54377005 17.18735337 -66.4375 10.8125 C-65.18379861 10.33559881 -63.92943521 9.86043776 -62.67480469 9.38598633 C-61.97635437 9.12118973 -61.27790405 8.85639313 -60.55828857 8.58357239 C-57.31297686 7.40364796 -54.0065571 6.44594935 -50.6875 5.5 C-45.82976001 4.10466266 -40.98674629 2.68159303 -36.16796875 1.15625 C-35.28657227 0.88079346 -34.40517578 0.60533691 -33.49707031 0.3215332 C-31.7917998 -0.21275314 -30.08913253 -0.75544552 -28.38964844 -1.30786133 C-18.09972645 -4.5016835 -10.24549895 -2.67635262 0 0 Z "
        fill="#797CBB" transform="translate(117.4375,41.1875)" />
    <path
        d="M0 0 C1.2292218 0.32345398 2.4584436 0.64690796 3.72491455 0.98016357 C6.30528012 1.66257329 8.88336972 2.35033078 11.45947266 3.04833984 C14.73869695 3.93642271 18.02304794 4.80340009 21.30968857 5.66357803 C24.4798224 6.49540572 27.64604436 7.34179679 30.8125 8.1875 C31.98037048 8.49496155 33.14824097 8.8024231 34.35150146 9.11920166 C40.51882032 10.79843051 46.14178454 12.55743576 51.640625 15.859375 C51.970625 16.849375 52.300625 17.839375 52.640625 18.859375 C53.28 19.16875 53.919375 19.478125 54.578125 19.796875 C57.25091308 21.17376583 57.59413658 22.04810681 58.640625 24.859375 C58.90805054 28.16267395 58.90805054 28.16267395 58.93115234 32.14379883 C58.93786957 32.87131348 58.94458679 33.59882812 58.95150757 34.34838867 C58.97050328 36.75446422 58.97441433 39.16026034 58.9765625 41.56640625 C58.98299578 43.25111503 58.98972454 44.9358227 58.99673462 46.62052917 C59.00871589 50.15874818 59.01241522 53.69686956 59.01123047 57.23510742 C59.0110287 61.72900055 59.03817769 66.22225108 59.07277489 70.71599293 C59.09523502 74.20200865 59.09906202 77.68787532 59.09801102 81.17395592 C59.10034425 82.82785923 59.10903647 84.48176812 59.12467575 86.13559914 C59.24323246 99.98426013 57.48736279 112.7290569 50.890625 125.171875 C50.54700928 125.83719238 50.20339355 126.50250977 49.84936523 127.18798828 C46.75749797 132.98867207 43.02056329 137.96020885 38.640625 142.859375 C37.97675781 143.66503906 37.31289062 144.47070312 36.62890625 145.30078125 C25.43576607 158.52151429 2.54924719 178.16577019 -15.234375 179.671875 C-37.01697364 178.17083054 -60.93821583 153.73355691 -74.609375 138.109375 C-83.05222768 127.59018559 -89.23720593 116.03567185 -92.359375 102.859375 C-92.53425949 102.12899521 -92.70914398 101.39861542 -92.889328 100.64610291 C-93.46502876 97.23299446 -93.51022335 93.96438618 -93.53637695 90.50219727 C-93.54294815 89.7795871 -93.54951935 89.05697693 -93.55628967 88.31246948 C-93.57591751 85.93357219 -93.58765895 83.55473756 -93.59765625 81.17578125 C-93.60173178 80.36041334 -93.6058073 79.54504543 -93.61000633 78.70496941 C-93.63081784 74.39275241 -93.64514321 70.08056681 -93.65454102 65.76831055 C-93.66562171 61.32180204 -93.70005443 56.8757917 -93.73971272 52.42945957 C-93.76587734 49.00216249 -93.77423247 45.57498453 -93.77782249 42.14759636 C-93.7826854 40.50857092 -93.79429104 38.8695507 -93.81286049 37.23062325 C-93.83725978 34.93532954 -93.83628671 32.64133147 -93.8293457 30.34594727 C-93.83521194 29.04198502 -93.84107819 27.73802277 -93.84712219 26.39454651 C-93.26745308 22.19312873 -92.08289223 20.08499369 -89.359375 16.859375 C-87.21603394 15.53521729 -87.21603394 15.53521729 -84.88232422 14.72753906 C-84.00042419 14.41498169 -83.11852417 14.10242432 -82.2098999 13.78039551 C-81.26922668 13.47645874 -80.32855347 13.17252197 -79.359375 12.859375 C-77.92782074 12.3865509 -77.92782074 12.3865509 -76.46734619 11.9041748 C-73.31844585 10.89181162 -70.1589105 9.92386345 -66.9921875 8.96875 C-65.83621063 8.61927307 -64.68023376 8.26979614 -63.48922729 7.909729 C-61.05792389 7.17766591 -58.62578941 6.4483578 -56.19287109 5.72167969 C-52.49754741 4.61332586 -48.80952465 3.48260925 -45.12109375 2.3515625 C-42.74521006 1.63922801 -40.36892056 0.92824539 -37.9921875 0.21875 C-36.36037033 -0.28739838 -36.36037033 -0.28739838 -34.69558716 -0.80377197 C-22.34492013 -4.42694448 -12.29377568 -3.34496767 0 0 Z M-29.234375 9.109375 C-34.21817892 10.84133954 -39.18530568 12.40893989 -44.296875 13.734375 C-51.1829278 15.52343432 -58.02431101 17.44689989 -64.859375 19.421875 C-65.88667725 19.71497559 -66.91397949 20.00807617 -67.97241211 20.31005859 C-69.44786499 20.73859131 -69.44786499 20.73859131 -70.953125 21.17578125 C-71.82646484 21.42787354 -72.69980469 21.67996582 -73.59960938 21.93969727 C-76.95346392 23.05735208 -80.12504905 24.43274559 -83.359375 25.859375 C-83.47626004 34.56214188 -83.56458421 43.26463036 -83.61843586 51.96801662 C-83.64430828 56.01127174 -83.67928487 60.05398211 -83.73657227 64.09692383 C-83.79170624 68.01330314 -83.82096255 71.92916535 -83.83376122 75.8459034 C-83.84285784 77.32516667 -83.86061117 78.80440815 -83.88802528 80.28344536 C-84.27854817 102.26772783 -76.32635283 120.71851655 -61.359375 136.859375 C-50.67204212 147.81899662 -35.87166441 159.56060993 -21.359375 164.859375 C-16.11361703 164.71759776 -12.16682879 162.42965144 -7.734375 159.859375 C-7.03143311 159.45565674 -6.32849121 159.05193848 -5.60424805 158.63598633 C17.87117214 144.89238899 35.78594487 126.07026356 43.78118896 99.66809082 C45.33973693 92.76115879 45.12958264 85.87618506 45.03125 78.83984375 C45.0237689 77.24417335 45.01808484 75.64849363 45.01409912 74.05281067 C44.99898944 69.89836249 44.95983897 65.74449374 44.9152832 61.590271 C44.87400945 57.3330468 44.85602031 53.07572693 44.8359375 48.81835938 C44.79332647 40.49843509 44.72525894 32.17897757 44.640625 23.859375 C43.23208683 23.38318438 41.82295074 22.90876219 40.41357422 22.43505859 C39.62892792 22.17066986 38.84428162 21.90628113 38.03585815 21.63388062 C34.31770371 20.43160455 30.54993242 19.45381178 26.765625 18.484375 C25.09633491 18.0508554 23.42706465 17.61725943 21.7578125 17.18359375 C20.91186523 16.96493652 20.06591797 16.7462793 19.19433594 16.52099609 C15.88975977 15.66483917 12.58819774 14.79747349 9.28710938 13.92797852 C7.69756021 13.5093778 6.10771868 13.09188564 4.51757812 12.67553711 C0.76797023 11.69232226 -2.97607566 10.69418427 -6.7109375 9.65625 C-7.39188477 9.46877197 -8.07283203 9.28129395 -8.77441406 9.08813477 C-10.60352434 8.58301052 -12.43074662 8.07106345 -14.2578125 7.55859375 C-20.0251517 6.25840015 -23.67911499 7.12620691 -29.234375 9.109375 Z "
        fill="#EEEEEE" transform="translate(119.359375,15.140625)" />
    <path
        d="M0 0 C0 41.25 0 82.5 0 125 C-11.38374415 121.20541862 -20.4238455 113.20776298 -29 105 C-29.70898438 104.35417969 -30.41796875 103.70835937 -31.1484375 103.04296875 C-42.44844874 92.41403098 -48.75552057 78.92907617 -49.3996582 63.453125 C-49.5512255 55.96664031 -49.43773997 48.48604178 -49.3125 41 C-49.28737205 38.37502137 -49.26456688 35.75001943 -49.24414062 33.125 C-49.18953637 26.74948396 -49.10627005 20.37485337 -49 14 C-47.74629861 13.52309881 -46.49193521 13.04793776 -45.23730469 12.57348633 C-44.53885437 12.30868973 -43.84040405 12.04389313 -43.12078857 11.77107239 C-39.87545054 10.59113839 -36.56894969 9.63387686 -33.25 8.6875 C-28.35189076 7.27484969 -23.46220907 5.84320633 -18.58984375 4.34375 C-17.69040039 4.06829346 -16.79095703 3.79283691 -15.86425781 3.5090332 C-14.10839558 2.97013532 -12.35378429 2.42714088 -10.60058594 1.87963867 C-9.79782227 1.6344751 -8.99505859 1.38931152 -8.16796875 1.13671875 C-7.45922607 0.91717529 -6.7504834 0.69763184 -6.02026367 0.47143555 C-4 0 -4 0 0 0 Z "
        fill="#99A1E5" transform="translate(100,38)" />
    <path
        d="M0 0 C3.23496694 0.88351515 6.47900532 1.7298325 9.72436523 2.57421875 C17.04576792 4.48079463 24.35348673 6.43765085 31.64941406 8.43945312 C32.42615479 8.65021484 33.20289551 8.86097656 34.00317383 9.078125 C39.40771002 10.57274909 39.40771002 10.57274909 40.52441406 11.68945312 C40.650399 13.83263315 40.70527647 15.9800102 40.7331543 18.12670898 C40.74293808 18.80019882 40.75272186 19.47368866 40.76280212 20.16758728 C40.79287702 22.41313709 40.81420155 24.65862534 40.83300781 26.90429688 C40.83957964 27.67525759 40.84615147 28.4462183 40.85292244 29.24054146 C40.88560449 33.33962287 40.91000627 37.43867779 40.92944336 41.5378418 C40.9470871 44.90054634 40.98161322 48.26238517 41.03198242 51.62475586 C41.45327974 80.40747375 38.95535775 102.43603089 18.52441406 124.68945312 C10.38993818 133.0229018 1.45045492 139.63161063 -8.47558594 145.68945312 C-9.08176758 146.06183105 -9.68794922 146.43420898 -10.3125 146.81787109 C-20.08057917 152.72705439 -20.08057917 152.72705439 -24.37402344 152.61132812 C-28.26219111 151.45565108 -31.53559411 149.77419475 -35.03808594 147.75195312 C-35.73772461 147.35153809 -36.43736328 146.95112305 -37.15820312 146.53857422 C-44.07157409 142.48823716 -50.35865495 137.85139583 -56.47558594 132.68945312 C-57.00168457 132.24843262 -57.5277832 131.80741211 -58.06982422 131.35302734 C-73.75971372 118.04228342 -85.94698102 99.72869495 -87.82672119 78.77537537 C-87.98136902 74.59210716 -87.9275791 70.41318465 -87.86621094 66.22851562 C-87.85872651 64.70153555 -87.85304403 63.17454571 -87.84906006 61.64755249 C-87.8339764 57.67887629 -87.79485028 53.71081007 -87.75024414 49.74237061 C-87.70891243 45.67273199 -87.69096917 41.60299229 -87.67089844 37.53320312 C-87.62833371 29.58501028 -87.56030005 21.63730812 -87.47558594 13.68945312 C-83.39771199 11.89040959 -79.43202369 10.26660489 -75.13964844 9.04101562 C-74.16616455 8.76040283 -73.19268066 8.47979004 -72.18969727 8.19067383 C-71.17029053 7.901521 -70.15088379 7.61236816 -69.10058594 7.31445312 C-66.95080602 6.69610376 -64.80106664 6.07761343 -62.65136719 5.45898438 C-61.60029785 5.15814941 -60.54922852 4.85731445 -59.46630859 4.54736328 C-56.1013199 3.58209224 -52.74020807 2.60437985 -49.3815918 1.6171875 C-47.99906627 1.21089428 -46.61577515 0.80719611 -45.23168945 0.40625 C-42.09239734 -0.50862282 -38.99001975 -1.47752651 -35.89746094 -2.54101562 C-22.87377269 -6.97815592 -12.8365017 -3.53533112 0 0 Z M-30.66308594 2.25195312 C-38.05052886 4.58266254 -45.48300768 6.74098912 -52.92944336 8.87524414 C-62.4989414 11.64152165 -71.98466499 14.66695409 -81.47558594 17.68945312 C-81.61605617 25.85339623 -81.72193653 34.0168151 -81.78645897 42.18167686 C-81.81746344 45.97507489 -81.85934895 49.76763243 -81.92822266 53.56054688 C-82.38365602 79.32391915 -80.34777739 99.48299853 -61.93676758 119.20385742 C-52.21031644 129.27668982 -41.62813183 136.81065356 -29.47558594 143.68945312 C-28.17621094 144.61757813 -28.17621094 144.61757813 -26.85058594 145.56445312 C-24.5266863 146.97203918 -24.5266863 146.97203918 -22.06542969 146.09179688 C-20.78345703 145.39763672 -20.78345703 145.39763672 -19.47558594 144.68945312 C-17.96158203 143.91794922 -17.96158203 143.91794922 -16.41699219 143.13085938 C5.75557582 130.80137358 25.22796866 113.75124043 32.68457031 88.83398438 C33.10029297 87.27744141 33.10029297 87.27744141 33.52441406 85.68945312 C33.70439438 85.09892151 33.88437469 84.50838989 34.06980896 83.89996338 C34.67422248 80.96101201 34.64366613 78.17753888 34.63793945 75.17675781 C34.63808548 74.53243805 34.63823151 73.88811829 34.63838196 73.22427368 C34.63768757 71.1032571 34.62991743 68.98232929 34.62207031 66.86132812 C34.62020445 65.38730924 34.61878134 63.91328974 34.61778259 62.43927002 C34.61397067 58.56606321 34.60415172 54.6928941 34.59307861 50.81970215 C34.58283599 46.86483266 34.57827887 42.90995706 34.57324219 38.95507812 C34.56252824 31.19985263 34.54546775 23.44465817 34.52441406 15.68945312 C33.26306641 15.35751953 32.00171875 15.02558594 30.70214844 14.68359375 C27.3375651 13.79817708 23.97298177 12.91276042 20.60839844 12.02734375 C19.3525293 11.69685783 19.3525293 11.69685783 18.07128906 11.35969543 C16.36034367 10.90943855 14.64940629 10.45915124 12.93847656 10.00883484 C12.11283203 9.79153214 11.2871875 9.57422943 10.43652344 9.3503418 C9.70026733 9.15655441 8.96401123 8.96276703 8.20544434 8.7631073 C5.91613332 8.16097314 3.62654195 7.55991237 1.33691406 6.95898438 C-2.04084946 6.07064929 -5.41516283 5.17020642 -8.78808594 4.26367188 C-9.65626953 4.03164063 -10.52445312 3.79960937 -11.41894531 3.56054688 C-13.08772476 3.11434916 -14.75573473 2.66526072 -16.42285156 2.21289062 C-21.95982254 0.73699982 -25.25559883 0.50783785 -30.66308594 2.25195312 Z "
        fill="#433D71" transform="translate(123.4755859375,27.310546875)" />
    <path
        d="M0 0 C0 2.97 0 5.94 0 9 C-16 13.66666667 -32 18.33333333 -48 23 C-48.12806224 30.68210801 -48.21487437 38.36393515 -48.2746582 46.046875 C-48.29961285 48.65375047 -48.33358887 51.26055735 -48.37719727 53.8671875 C-48.75676347 77.15915569 -47.0341986 94.53419998 -30.30639648 112.10424805 C-23.81780477 118.69647633 -17.06600733 124.50012718 -8.71484375 128.62109375 C-5.52500154 130.23653431 -2.72397648 131.67957559 0 134 C1.00429583 137.53056574 0.77384851 140.43886381 0 144 C-13.63798615 139.96681507 -24.72827297 130.46328787 -35 121 C-35.72058594 120.3503125 -36.44117187 119.700625 -37.18359375 119.03125 C-48.40038365 108.43900297 -56.88064873 92.77112538 -58.34851074 77.33505249 C-58.45878249 73.38990539 -58.45199601 69.45687195 -58.390625 65.51171875 C-58.38314101 64.07299089 -58.37745832 62.63425267 -58.37347412 61.19551086 C-58.35838694 57.45531798 -58.31925785 53.71577186 -58.2746582 49.97583008 C-58.23333416 46.1408767 -58.21538485 42.30581619 -58.1953125 38.47070312 C-58.15274156 30.98017767 -58.08470371 23.49018032 -58 16 C-56.1164531 15.36420118 -54.23219799 14.73050024 -52.34765625 14.09765625 C-51.29843994 13.74453369 -50.24922363 13.39141113 -49.16821289 13.02758789 C-44.49010625 11.51027643 -39.75511256 10.24989101 -35 9 C-27.2229843 6.92052077 -19.60649582 4.63691855 -12 2 C-7.94173509 0.6674354 -4.31692964 -0.2616321 0 0 Z "
        fill="#6F7BBF" transform="translate(100,29)" />
    <path
        d="M0 0 C4.94147711 4.78207462 4.94147711 4.78207462 5.14717102 9.06278992 C5.15701523 10.38100235 5.16685944 11.69921478 5.17700195 13.05737305 C5.18357315 13.78459564 5.19014435 14.51181824 5.19691467 15.26107788 C5.21668388 17.67795926 5.22832761 20.09477792 5.23828125 22.51171875 C5.24235678 23.34066965 5.2464323 24.16962055 5.25063133 25.02369118 C5.27152248 29.42407609 5.28580245 33.82442969 5.29516602 38.22485352 C5.30614589 42.73446079 5.34043749 47.243563 5.38033772 51.75299358 C5.40672978 55.2475718 5.41487838 58.74203481 5.41844749 62.23670387 C5.42326741 63.89620122 5.43474707 65.55569506 5.45348549 67.21509361 C5.6003048 81.09682534 3.86377281 93.83755032 -2.75 106.3125 C-3.26542358 107.31047607 -3.26542358 107.31047607 -3.79125977 108.32861328 C-6.88312703 114.12929707 -10.62006171 119.10083385 -15 124 C-15.99580078 125.20849609 -15.99580078 125.20849609 -17.01171875 126.44140625 C-28.20485893 139.66213929 -51.09137781 159.30639519 -68.875 160.8125 C-79.70528353 160.06618238 -91.58877836 151.40784836 -100 145 C-100.33 144.34 -100.66 143.68 -101 143 C-96.32037894 144.67915814 -92.16554145 147.08899113 -87.875 149.5625 C-86.45712697 150.37873501 -85.03790688 151.19263565 -83.6171875 152.00390625 C-82.99440918 152.36299072 -82.37163086 152.7220752 -81.72998047 153.09204102 C-77.59895199 155.26016053 -73.56112633 155.52011937 -69 155 C-66.26965949 154.1426002 -63.82915883 152.91491746 -61.3125 151.5625 C-60.62260986 151.20341553 -59.93271973 150.84433105 -59.22192383 150.47436523 C-34.17755666 137.12025305 -12.20475792 117.01172076 -2.88238525 89.72923279 C0.11498123 79.51907842 0.52766423 70.06447272 0.390625 59.47265625 C0.38314214 57.7453223 0.37745892 56.01797972 0.37347412 54.29063416 C0.35837831 49.79757233 0.31924032 45.30504786 0.2746582 40.81219482 C0.23335387 36.20625065 0.21538891 31.60021758 0.1953125 26.99414062 C0.15272612 17.99586079 0.08467599 8.9979755 0 0 Z "
        fill="#020202" transform="translate(173,34)" />
</svg>