<svg version="1.1" id="Layer_2" xmlns="http://www.w3.org/2000/svg"
	xmlns:xlink="http://www.w3.org/1999/xlink" x="0px" y="0px"
	viewBox="0 0 48 48" style="enable-background:new 0 0 48 48;" xml:space="preserve">
<radialGradient id="SVGID_1_" cx="19.3802" cy="42.0351" r="44.8989" gradientUnits="userSpaceOnUse">
	<stop  offset="0" style="stop-color:#FFDD55"/>
	<stop  offset="0.328" style="stop-color:#FF543F"/>
	<stop  offset="0.3484" style="stop-color:#FC5245"/>
	<stop  offset="0.5039" style="stop-color:#E64771"/>
	<stop  offset="0.6433" style="stop-color:#D53E91"/>
	<stop  offset="0.7606" style="stop-color:#CC39A4"/>
	<stop  offset="0.8414" style="stop-color:#C837AB"/>
</radialGradient>
<path style="fill:url(#SVGID_1_);" d="M34.017,41.99l-20,0.019c-4.4,0.004-8.003-3.592-8.008-7.992l-0.019-20
	c-0.004-4.4,3.592-8.003,7.992-8.008l20-0.019c4.4-0.004,8.003,3.592,8.008,7.992l0.019,20
	C42.014,38.383,38.417,41.986,34.017,41.99z"/>
<radialGradient id="SVGID_2_" cx="11.7859" cy="5.5401" r="29.8134" gradientTransform="matrix(1 0 0 0.6663 0 1.849)" gradientUnits="userSpaceOnUse">
	<stop  offset="0" style="stop-color:#4168C9"/>
	<stop  offset="0.9988" style="stop-color:#4168C9;stop-opacity:0"/>
</radialGradient>
<path style="fill:url(#SVGID_2_);" d="M34.017,41.99l-20,0.019c-4.4,0.004-8.003-3.592-8.008-7.992l-0.019-20
	c-0.004-4.4,3.592-8.003,7.992-8.008l20-0.019c4.4-0.004,8.003,3.592,8.008,7.992l0.019,20
	C42.014,38.383,38.417,41.986,34.017,41.99z"/>
<path style="fill:#FFFFFF;" d="M24,31c-3.859,0-7-3.14-7-7s3.141-7,7-7s7,3.14,7,7S27.859,31,24,31z M24,19c-2.757,0-5,2.243-5,5
	s2.243,5,5,5s5-2.243,5-5S26.757,19,24,19z"/>
<circle style="fill:#FFFFFF;" cx="31.5" cy="16.5" r="1.5"/>
<path style="fill:#FFFFFF;" d="M30,37H18c-3.859,0-7-3.14-7-7V18c0-3.86,3.141-7,7-7h12c3.859,0,7,3.14,7,7v12
	C37,33.86,33.859,37,30,37z M18,13c-2.757,0-5,2.243-5,5v12c0,2.757,2.243,5,5,5h12c2.757,0,5-2.243,5-5V18c0-2.757-2.243-5-5-5H18z
	"/>
</svg>