<svg xmlns="http://www.w3.org/2000/svg" version="1.1" viewBox="0.00 0.00 200.00 200.00"
    width="200.00" height="200.00">
    <g stroke-width="2.00" fill="none" stroke-linecap="butt">
        <path stroke="#0e8bdb"
            d="&#10;  M 126.79 125.64&#10;  C 126.91 124.85 126.80 124.25 127.05 123.48&#10;  Q 130.99 111.32 127.62 98.85" />
        <path stroke="#0e8bdb"
            d="&#10;  M 101.22 72.57&#10;  Q 101.11 72.62 100.95 72.64&#10;  A 0.67 0.66 -68.7 0 0 100.55 72.82&#10;  Q 97.20 76.00 95.38 78.36&#10;  Q 90.99 84.10 91.79 91.70" />
        <path stroke="#0e8bdb"
            d="&#10;  M 107.72 108.19&#10;  Q 107.72 108.58 107.97 108.86&#10;  Q 108.29 109.21 108.30 109.69&#10;  Q 108.35 114.70 106.08 119.06&#10;  C 104.53 122.04 101.81 124.23 99.71 126.82&#10;  Q 99.49 127.09 99.14 127.10&#10;  Q 98.85 127.12 98.73 127.39" />
        <path stroke="#0e8bdb" d="&#10;  M 72.48 101.05&#10;  Q 68.76 87.87 73.80 74.19" />
    </g>
    <path fill="#1b9de2"
        d="&#10;  M 126.79 125.64&#10;  C 126.91 124.85 126.80 124.25 127.05 123.48&#10;  Q 130.99 111.32 127.62 98.85&#10;  Q 137.90 88.65 147.90 78.66&#10;  Q 155.23 71.34 156.50 68.53&#10;  C 165.34 49.03 141.04 32.45 125.97 47.51&#10;  Q 113.43 60.05 101.16 72.31&#10;  Q 101.10 72.36 101.09 72.44&#10;  Q 101.06 72.60 101.22 72.57&#10;  Q 101.11 72.62 100.95 72.64&#10;  A 0.67 0.66 -68.7 0 0 100.55 72.82&#10;  Q 97.20 76.00 95.38 78.36&#10;  Q 90.99 84.10 91.79 91.70&#10;  Q 94.03 105.28 107.72 108.19&#10;  Q 107.72 108.58 107.97 108.86&#10;  Q 108.29 109.21 108.30 109.69&#10;  Q 108.35 114.70 106.08 119.06&#10;  C 104.53 122.04 101.81 124.23 99.71 126.82&#10;  Q 99.49 127.09 99.14 127.10&#10;  Q 98.85 127.12 98.73 127.39&#10;  Q 79.23 120.85 72.48 101.05&#10;  Q 68.76 87.87 73.80 74.19&#10;  Q 75.17 71.60 76.90 68.46&#10;  C 77.94 66.57 80.35 63.74 82.19 61.89&#10;  Q 96.46 47.59 111.03 33.01&#10;  Q 120.99 23.05 134.13 21.23&#10;  C 167.06 16.69 190.10 51.87 173.67 80.54&#10;  Q 171.02 85.17 160.34 95.71&#10;  Q 150.06 105.87 139.01 117.01&#10;  Q 133.66 122.41 126.79 125.64&#10;  Z" />
    <path fill="#0078d4"
        d="&#10;  M 101.22 72.57&#10;  Q 121.13 79.30 127.62 98.85&#10;  Q 130.99 111.32 127.05 123.48&#10;  C 126.80 124.25 126.91 124.85 126.79 125.64&#10;  C 126.42 125.90 126.09 126.14 125.89 126.57&#10;  Q 122.93 133.08 118.58 137.53&#10;  Q 107.63 148.71 89.68 166.50&#10;  C 77.18 178.88 59.91 182.82 43.84 175.46&#10;  C 22.02 165.47 14.46 138.71 26.84 118.63&#10;  Q 29.22 114.77 39.84 104.18&#10;  Q 51.93 92.13 63.30 80.80&#10;  Q 66.97 77.15 73.80 74.19&#10;  Q 68.76 87.87 72.48 101.05&#10;  Q 62.32 111.16 52.24 121.23&#10;  Q 44.69 128.77 43.49 131.43&#10;  C 36.39 147.23 51.64 163.47 67.85 156.82&#10;  Q 70.70 155.64 75.79 150.55&#10;  Q 87.22 139.10 98.64 127.64&#10;  Q 98.83 127.45 98.73 127.39&#10;  Q 98.85 127.12 99.14 127.10&#10;  Q 99.49 127.09 99.71 126.82&#10;  C 101.81 124.23 104.53 122.04 106.08 119.06&#10;  Q 108.35 114.70 108.30 109.69&#10;  Q 108.29 109.21 107.97 108.86&#10;  Q 107.72 108.58 107.72 108.19&#10;  Q 108.14 107.88 108.05 107.49&#10;  Q 105.06 94.20 91.79 91.70&#10;  Q 90.99 84.10 95.38 78.36&#10;  Q 97.20 76.00 100.55 72.82&#10;  A 0.67 0.66 -68.7 0 1 100.95 72.64&#10;  Q 101.11 72.62 101.22 72.57&#10;  Z" />
</svg>