<svg xmlns="http://www.w3.org/2000/svg" version="1.1" viewBox="0.00 0.00 200.00 200.00" width="200.00" height="200.00">
<g stroke-width="2.00" fill="none" stroke-linecap="butt">
<path stroke="#937a20" d="&#10;  M 152.64 130.93&#10;  L 146.69 132.58"/>
<path stroke="#36464e" d="&#10;  M 146.69 132.58&#10;  Q 144.71 129.14 139.41 128.80&#10;  A 1.01 0.98 -19.2 0 1 138.77 128.50&#10;  L 138.46 128.19"/>
<path stroke="#899195" d="&#10;  M 138.46 128.19&#10;  C 141.92 121.34 143.86 111.54 139.95 104.89&#10;  Q 136.91 99.70 130.87 96.36&#10;  A 0.04 0.04 0.0 0 0 130.82 96.43&#10;  Q 131.60 97.24 132.46 98.04&#10;  Q 144.27 108.98 135.71 123.59&#10;  Q 134.58 125.51 133.01 127.14&#10;  Q 132.06 128.14 132.18 126.76&#10;  Q 133.54 110.74 127.70 98.77&#10;  Q 125.07 93.36 123.60 89.70&#10;  Q 119.61 79.79 116.07 70.34"/>
<path stroke="#937a20" d="&#10;  M 116.07 70.34&#10;  L 116.17 65.89&#10;  A 1.39 1.37 -62.5 0 0 115.90 65.01&#10;  Q 114.87 63.63 112.91 62.94"/>
<path stroke="#899195" d="&#10;  M 112.91 62.94&#10;  Q 118.21 55.72 114.05 48.81&#10;  C 112.65 46.49 110.24 44.91 107.48 45.60&#10;  C 101.86 47.00 100.88 54.62 102.49 59.33"/>
<path stroke="#937a20" d="&#10;  M 102.49 59.33&#10;  Q 98.80 58.01 95.00 58.53"/>
<path stroke="#899195" d="&#10;  M 95.00 58.53&#10;  C 95.94 54.76 95.23 48.73 90.99 47.25&#10;  Q 88.18 46.27 86.31 49.29&#10;  Q 82.10 56.12 87.34 62.89"/>
<path stroke="#937a20" d="&#10;  M 87.34 62.89&#10;  Q 86.14 64.10 84.75 65.50&#10;  Q 82.26 68.02 84.42 70.89&#10;  Q 85.45 72.26 86.52 73.38"/>
<path stroke="#899195" d="&#10;  M 86.52 73.38&#10;  C 86.57 83.43 82.81 90.60 77.29 98.89&#10;  Q 74.59 102.96 73.72 104.86&#10;  Q 70.25 112.38 69.28 121.03&#10;  Q 69.13 122.39 68.68 121.10&#10;  C 66.83 115.77 69.67 106.73 71.71 101.64&#10;  Q 71.77 101.51 71.63 101.45&#10;  L 71.63 101.44&#10;  Q 71.45 101.37 71.37 101.54&#10;  Q 69.28 105.93 67.02 110.26"/>
<path stroke="#899195" d="&#10;  M 65.65 122.71&#10;  Q 66.29 125.14 67.71 126.55&#10;  Q 75.18 133.96 85.79 142.01&#10;  Q 89.11 144.53 88.31 148.45&#10;  A 1.71 1.69 -12.7 0 1 87.65 149.48&#10;  Q 86.15 150.60 84.04 151.20&#10;  Q 83.13 151.46 83.85 152.06&#10;  Q 92.72 159.45 102.49 158.65&#10;  Q 112.82 157.80 122.74 150.03"/>
<path stroke="#937a20" d="&#10;  M 122.74 150.03&#10;  Q 121.34 158.70 120.99 161.75&#10;  Q 120.71 164.18 121.02 166.86"/>
<path stroke="#937a20" d="&#10;  M 86.98 166.44&#10;  C 88.12 158.84 83.30 155.21 79.99 149.59&#10;  Q 75.23 141.49 70.15 133.86&#10;  Q 68.59 131.53 64.71 127.29&#10;  Q 62.10 124.44 57.31 126.36"/>
<path stroke="#a28e36" d="&#10;  M 146.69 132.58&#10;  C 143.89 136.44 141.74 140.46 136.11 139.39&#10;  Q 134.23 139.03 133.47 137.54&#10;  Q 133.23 137.07 133.33 136.55&#10;  Q 133.97 133.16 131.74 130.83"/>
<path stroke="#f6d87c" d="&#10;  M 112.91 62.94&#10;  Q 110.75 62.76 109.81 61.88"/>
<path stroke="#899195" d="&#10;  M 109.81 61.88&#10;  C 115.99 56.82 109.77 47.27 105.40 52.94&#10;  Q 102.97 56.08 105.21 60.16"/>
<path stroke="#f6d87c" d="&#10;  M 105.21 60.16&#10;  L 102.49 59.33"/>
<path stroke="#99a5ab" d="&#10;  M 138.46 128.19&#10;  Q 137.95 128.74 137.50 128.72&#10;  Q 133.96 128.59 131.74 130.83"/>
<path stroke="#f6d87c" d="&#10;  M 131.74 130.83&#10;  Q 126.33 126.79 124.07 132.31&#10;  Q 123.37 134.01 123.38 134.50&#10;  Q 123.51 142.51 122.74 150.03"/>
<path stroke="#f6d87c" d="&#10;  M 95.00 58.53&#10;  Q 93.82 59.33 92.75 59.08"/>
<path stroke="#899195" d="&#10;  M 92.75 59.08&#10;  Q 93.93 54.51 90.98 51.87&#10;  A 1.93 1.93 0.0 0 0 87.90 52.59&#10;  Q 85.99 57.27 89.36 61.10"/>
<path stroke="#f6d87c" d="&#10;  M 89.36 61.10&#10;  Q 89.01 62.04 87.34 62.89"/>
<path stroke="#f6d87c" d="&#10;  M 116.07 70.34&#10;  Q 108.65 75.74 102.03 78.56&#10;  C 99.68 79.56 93.63 79.53 91.60 77.67&#10;  Q 87.91 74.28 86.52 73.38"/>
<path stroke="#937a20" d="&#10;  M 109.81 61.88&#10;  Q 107.57 61.75 105.21 60.16"/>
<path stroke="#937a20" d="&#10;  M 92.75 59.08&#10;  Q 91.27 60.44 89.36 61.10"/>
<path stroke="#b18405" d="&#10;  M 95.1974 61.3246&#10;  A 1.31 0.43 -33.1 0 0 93.8652 61.6798&#10;  A 1.31 0.43 -33.1 0 0 93.0026 62.7554&#10;  A 1.31 0.43 -33.1 0 0 94.3348 62.4002&#10;  A 1.31 0.43 -33.1 0 0 95.1974 61.3246"/>
<path stroke="#b18405" d="&#10;  M 102.2028 62.9945&#10;  A 1.40 0.56 33.1 0 0 101.3358 61.7609&#10;  A 1.40 0.56 33.1 0 0 99.8572 61.4655&#10;  A 1.40 0.56 33.1 0 0 100.7242 62.6991&#10;  A 1.40 0.56 33.1 0 0 102.2028 62.9945"/>
<path stroke="#b18405" d="&#10;  M 85.06 68.30&#10;  A 0.28 0.27 49.1 0 0 85.04 68.67&#10;  Q 89.13 73.52 94.00 73.75&#10;  C 100.72 74.07 107.43 69.88 112.69 66.23&#10;  A 0.60 0.58 58.1 0 0 112.86 65.46&#10;  Q 112.62 65.05 112.20 65.23&#10;  C 106.39 67.70 101.17 72.36 94.50 72.16&#10;  Q 89.36 72.01 85.35 68.12&#10;  Q 85.29 68.07 85.24 68.12&#10;  L 85.06 68.30"/>
</g>
<path fill="#263238" d="&#10;  M 152.64 130.93&#10;  L 146.69 132.58&#10;  Q 144.71 129.14 139.41 128.80&#10;  A 1.01 0.98 -19.2 0 1 138.77 128.50&#10;  L 138.46 128.19&#10;  C 141.92 121.34 143.86 111.54 139.95 104.89&#10;  Q 136.91 99.70 130.87 96.36&#10;  A 0.04 0.04 0.0 0 0 130.82 96.43&#10;  Q 131.60 97.24 132.46 98.04&#10;  Q 144.27 108.98 135.71 123.59&#10;  Q 134.58 125.51 133.01 127.14&#10;  Q 132.06 128.14 132.18 126.76&#10;  Q 133.54 110.74 127.70 98.77&#10;  Q 125.07 93.36 123.60 89.70&#10;  Q 119.61 79.79 116.07 70.34&#10;  L 116.17 65.89&#10;  A 1.39 1.37 -62.5 0 0 115.90 65.01&#10;  Q 114.87 63.63 112.91 62.94&#10;  Q 118.21 55.72 114.05 48.81&#10;  C 112.65 46.49 110.24 44.91 107.48 45.60&#10;  C 101.86 47.00 100.88 54.62 102.49 59.33&#10;  Q 98.80 58.01 95.00 58.53&#10;  C 95.94 54.76 95.23 48.73 90.99 47.25&#10;  Q 88.18 46.27 86.31 49.29&#10;  Q 82.10 56.12 87.34 62.89&#10;  Q 86.14 64.10 84.75 65.50&#10;  Q 82.26 68.02 84.42 70.89&#10;  Q 85.45 72.26 86.52 73.38&#10;  C 86.57 83.43 82.81 90.60 77.29 98.89&#10;  Q 74.59 102.96 73.72 104.86&#10;  Q 70.25 112.38 69.28 121.03&#10;  Q 69.13 122.39 68.68 121.10&#10;  C 66.83 115.77 69.67 106.73 71.71 101.64&#10;  Q 71.77 101.51 71.63 101.45&#10;  L 71.63 101.44&#10;  Q 71.45 101.37 71.37 101.54&#10;  Q 69.28 105.93 67.02 110.26&#10;  Q 64.53 116.39 65.65 122.71&#10;  Q 66.29 125.14 67.71 126.55&#10;  Q 75.18 133.96 85.79 142.01&#10;  Q 89.11 144.53 88.31 148.45&#10;  A 1.71 1.69 -12.7 0 1 87.65 149.48&#10;  Q 86.15 150.60 84.04 151.20&#10;  Q 83.13 151.46 83.85 152.06&#10;  Q 92.72 159.45 102.49 158.65&#10;  Q 112.82 157.80 122.74 150.03&#10;  Q 121.34 158.70 120.99 161.75&#10;  Q 120.71 164.18 121.02 166.86&#10;  Q 116.00 165.83 112.75 165.91&#10;  Q 99.98 166.22 86.98 166.44&#10;  C 88.12 158.84 83.30 155.21 79.99 149.59&#10;  Q 75.23 141.49 70.15 133.86&#10;  Q 68.59 131.53 64.71 127.29&#10;  Q 62.10 124.44 57.31 126.36&#10;  Q 60.77 106.28 72.34 89.61&#10;  C 77.19 82.61 83.31 78.33 82.33 68.76&#10;  Q 81.19 57.67 81.12 48.10&#10;  C 81.05 38.60 83.09 30.90 92.68 26.79&#10;  Q 104.40 21.77 116.33 28.74&#10;  C 123.48 32.92 128.02 45.22 126.95 53.16&#10;  C 125.72 62.33 130.96 74.51 136.07 81.52&#10;  C 143.52 91.77 150.20 101.31 153.43 113.79&#10;  Q 155.18 120.51 154.11 124.50&#10;  Q 153.16 128.04 152.64 130.93&#10;  Z"/>
<path fill="#eceff1" d="&#10;  M 112.91 62.94&#10;  Q 110.75 62.76 109.81 61.88&#10;  C 115.99 56.82 109.77 47.27 105.40 52.94&#10;  Q 102.97 56.08 105.21 60.16&#10;  L 102.49 59.33&#10;  C 100.88 54.62 101.86 47.00 107.48 45.60&#10;  C 110.24 44.91 112.65 46.49 114.05 48.81&#10;  Q 118.21 55.72 112.91 62.94&#10;  Z"/>
<path fill="#eceff1" d="&#10;  M 95.00 58.53&#10;  Q 93.82 59.33 92.75 59.08&#10;  Q 93.93 54.51 90.98 51.87&#10;  A 1.93 1.93 0.0 0 0 87.90 52.59&#10;  Q 85.99 57.27 89.36 61.10&#10;  Q 89.01 62.04 87.34 62.89&#10;  Q 82.10 56.12 86.31 49.29&#10;  Q 88.18 46.27 90.99 47.25&#10;  C 95.23 48.73 95.94 54.76 95.00 58.53&#10;  Z"/>
<path fill="#263238" d="&#10;  M 109.81 61.88&#10;  Q 107.57 61.75 105.21 60.16&#10;  Q 102.97 56.08 105.40 52.94&#10;  C 109.77 47.27 115.99 56.82 109.81 61.88&#10;  Z"/>
<path fill="#263238" d="&#10;  M 92.75 59.08&#10;  Q 91.27 60.44 89.36 61.10&#10;  Q 85.99 57.27 87.90 52.59&#10;  A 1.93 1.93 0.0 0 1 90.98 51.87&#10;  Q 93.93 54.51 92.75 59.08&#10;  Z"/>
<path fill="#ffc107" d="&#10;  M 102.49 59.33&#10;  L 105.21 60.16&#10;  Q 107.57 61.75 109.81 61.88&#10;  Q 110.75 62.76 112.91 62.94&#10;  Q 114.87 63.63 115.90 65.01&#10;  A 1.39 1.37 -62.5 0 1 116.17 65.89&#10;  L 116.07 70.34&#10;  Q 108.65 75.74 102.03 78.56&#10;  C 99.68 79.56 93.63 79.53 91.60 77.67&#10;  Q 87.91 74.28 86.52 73.38&#10;  Q 85.45 72.26 84.42 70.89&#10;  Q 82.26 68.02 84.75 65.50&#10;  Q 86.14 64.10 87.34 62.89&#10;  Q 89.01 62.04 89.36 61.10&#10;  Q 91.27 60.44 92.75 59.08&#10;  Q 93.82 59.33 95.00 58.53&#10;  Q 98.80 58.01 102.49 59.33&#10;  Z&#10;  M 95.1974 61.3246&#10;  A 1.31 0.43 -33.1 0 0 93.8652 61.6798&#10;  A 1.31 0.43 -33.1 0 0 93.0026 62.7554&#10;  A 1.31 0.43 -33.1 0 0 94.3348 62.4002&#10;  A 1.31 0.43 -33.1 0 0 95.1974 61.3246&#10;  Z&#10;  M 102.2028 62.9945&#10;  A 1.40 0.56 33.1 0 0 101.3358 61.7609&#10;  A 1.40 0.56 33.1 0 0 99.8572 61.4655&#10;  A 1.40 0.56 33.1 0 0 100.7242 62.6991&#10;  A 1.40 0.56 33.1 0 0 102.2028 62.9945&#10;  Z&#10;  M 85.06 68.30&#10;  A 0.28 0.27 49.1 0 0 85.04 68.67&#10;  Q 89.13 73.52 94.00 73.75&#10;  C 100.72 74.07 107.43 69.88 112.69 66.23&#10;  A 0.60 0.58 58.1 0 0 112.86 65.46&#10;  Q 112.62 65.05 112.20 65.23&#10;  C 106.39 67.70 101.17 72.36 94.50 72.16&#10;  Q 89.36 72.01 85.35 68.12&#10;  Q 85.29 68.07 85.24 68.12&#10;  L 85.06 68.30&#10;  Z"/>
<ellipse fill="#624602" cx="0.00" cy="0.00" transform="translate(94.10,62.04) rotate(-33.1)" rx="1.31" ry="0.43"/>
<ellipse fill="#624602" cx="0.00" cy="0.00" transform="translate(101.03,62.23) rotate(33.1)" rx="1.40" ry="0.56"/>
<path fill="#624602" d="&#10;  M 85.35 68.12&#10;  Q 89.36 72.01 94.50 72.16&#10;  C 101.17 72.36 106.39 67.70 112.20 65.23&#10;  Q 112.62 65.05 112.86 65.46&#10;  A 0.60 0.58 58.1 0 1 112.69 66.23&#10;  C 107.43 69.88 100.72 74.07 94.00 73.75&#10;  Q 89.13 73.52 85.04 68.67&#10;  A 0.28 0.27 49.1 0 1 85.06 68.30&#10;  L 85.24 68.12&#10;  Q 85.29 68.07 85.35 68.12&#10;  Z"/>
<path fill="#eceff1" d="&#10;  M 116.07 70.34&#10;  Q 119.61 79.79 123.60 89.70&#10;  Q 125.07 93.36 127.70 98.77&#10;  Q 133.54 110.74 132.18 126.76&#10;  Q 132.06 128.14 133.01 127.14&#10;  Q 134.58 125.51 135.71 123.59&#10;  Q 144.27 108.98 132.46 98.04&#10;  Q 131.60 97.24 130.82 96.43&#10;  A 0.04 0.04 0.0 0 1 130.87 96.36&#10;  Q 136.91 99.70 139.95 104.89&#10;  C 143.86 111.54 141.92 121.34 138.46 128.19&#10;  Q 137.95 128.74 137.50 128.72&#10;  Q 133.96 128.59 131.74 130.83&#10;  Q 126.33 126.79 124.07 132.31&#10;  Q 123.37 134.01 123.38 134.50&#10;  Q 123.51 142.51 122.74 150.03&#10;  Q 112.82 157.80 102.49 158.65&#10;  Q 92.72 159.45 83.85 152.06&#10;  Q 83.13 151.46 84.04 151.20&#10;  Q 86.15 150.60 87.65 149.48&#10;  A 1.71 1.69 -12.7 0 0 88.31 148.45&#10;  Q 89.11 144.53 85.79 142.01&#10;  Q 75.18 133.96 67.71 126.55&#10;  Q 66.29 125.14 65.65 122.71&#10;  L 67.02 110.26&#10;  Q 69.28 105.93 71.37 101.54&#10;  Q 71.45 101.37 71.63 101.44&#10;  L 71.63 101.45&#10;  Q 71.77 101.51 71.71 101.64&#10;  C 69.67 106.73 66.83 115.77 68.68 121.10&#10;  Q 69.13 122.39 69.28 121.03&#10;  Q 70.25 112.38 73.72 104.86&#10;  Q 74.59 102.96 77.29 98.89&#10;  C 82.81 90.60 86.57 83.43 86.52 73.38&#10;  Q 87.91 74.28 91.60 77.67&#10;  C 93.63 79.53 99.68 79.56 102.03 78.56&#10;  Q 108.65 75.74 116.07 70.34&#10;  Z"/>
<path fill="#ffc107" d="&#10;  M 86.98 166.44&#10;  C 86.48 175.23 78.86 177.34 71.40 175.05&#10;  C 65.53 173.24 59.88 170.40 53.65 169.19&#10;  Q 46.67 167.84 41.23 166.06&#10;  C 35.96 164.33 36.31 159.69 38.81 155.82&#10;  C 41.29 151.97 39.06 146.86 37.98 142.73&#10;  A 3.40 3.40 0.0 0 1 40.49 138.56&#10;  C 44.93 137.51 48.80 137.41 51.89 133.43&#10;  Q 55.05 129.35 57.31 126.36&#10;  Q 62.10 124.44 64.71 127.29&#10;  Q 68.59 131.53 70.15 133.86&#10;  Q 75.23 141.49 79.99 149.59&#10;  C 83.30 155.21 88.12 158.84 86.98 166.44&#10;  Z"/>
<path fill="#455a64" d="&#10;  M 138.46 128.19&#10;  L 138.77 128.50&#10;  A 1.01 0.98 -19.2 0 0 139.41 128.80&#10;  Q 144.71 129.14 146.69 132.58&#10;  C 143.89 136.44 141.74 140.46 136.11 139.39&#10;  Q 134.23 139.03 133.47 137.54&#10;  Q 133.23 137.07 133.33 136.55&#10;  Q 133.97 133.16 131.74 130.83&#10;  Q 133.96 128.59 137.50 128.72&#10;  Q 137.95 128.74 138.46 128.19&#10;  Z"/>
<path fill="#ffc107" d="&#10;  M 131.74 130.83&#10;  Q 133.97 133.16 133.33 136.55&#10;  Q 133.23 137.07 133.47 137.54&#10;  Q 134.23 139.03 136.11 139.39&#10;  C 141.74 140.46 143.89 136.44 146.69 132.58&#10;  L 152.64 130.93&#10;  Q 155.36 134.26 155.95 139.06&#10;  Q 156.31 141.93 157.20 143.21&#10;  C 159.05 145.85 162.05 147.66 165.03 148.90&#10;  Q 165.49 149.10 165.76 149.51&#10;  Q 168.07 152.98 164.56 155.40&#10;  C 157.95 159.95 149.24 164.05 142.85 169.84&#10;  Q 138.76 173.55 135.83 174.34&#10;  C 129.35 176.11 121.77 174.99 121.02 166.86&#10;  Q 120.71 164.18 120.99 161.75&#10;  Q 121.34 158.70 122.74 150.03&#10;  Q 123.51 142.51 123.38 134.50&#10;  Q 123.37 134.01 124.07 132.31&#10;  Q 126.33 126.79 131.74 130.83&#10;  Z"/>
</svg>