<svg xmlns="http://www.w3.org/2000/svg" version="1.1" viewBox="0.00 0.00 200.00 200.00"
    width="200.00" height="200.00">
    <g stroke-width="2.00" fill="none" stroke-linecap="butt">
        <path stroke="#3d9641" d="&#10;  M 145.40 37.29&#10;  L 57.29 37.39" />
        <path stroke="#76ac95" d="&#10;  M 158.27 66.66&#10;  L 149.75 66.70" />
        <path stroke="#76ac95"
            d="&#10;  M 129.08 66.98&#10;  Q 128.84 66.60 128.25 66.60&#10;  Q 124.58 66.61 120.76 66.81" />
        <path stroke="#a6a828" d="&#10;  M 112.60 66.74&#10;  L 87.45 66.72" />
        <path stroke="#76ac95"
            d="&#10;  M 79.12 67.28&#10;  Q 79.13 66.96 78.95 66.79&#10;  Q 78.79 66.64 78.58 66.65&#10;  Q 74.99 66.75 71.44 66.64&#10;  Q 71.25 66.63 71.09 66.75&#10;  Q 70.92 66.87 70.82 67.04" />
        <path stroke="#76ac95" d="&#10;  M 50.19 66.72&#10;  L 41.45 66.60" />
        <path stroke="#ffb104" d="&#10;  M 112.52 74.95&#10;  L 87.48 74.98" />
        <path stroke="#979f1d" d="&#10;  M 112.50 158.31&#10;  L 87.50 158.30" />
        <path stroke="#a5c443"
            d="&#10;  M 54.20 54.16&#10;  A 4.21 4.21 0.0 0 0 49.99 49.95&#10;  A 4.21 4.21 0.0 0 0 45.78 54.16&#10;  A 4.21 4.21 0.0 0 0 49.99 58.37&#10;  A 4.21 4.21 0.0 0 0 54.20 54.16" />
        <path stroke="#a5c443"
            d="&#10;  M 70.87 54.16&#10;  A 4.21 4.21 0.0 0 0 66.66 49.95&#10;  A 4.21 4.21 0.0 0 0 62.45 54.16&#10;  A 4.21 4.21 0.0 0 0 66.66 58.37&#10;  A 4.21 4.21 0.0 0 0 70.87 54.16" />
        <path stroke="#a5c443"
            d="&#10;  M 87.54 54.16&#10;  A 4.21 4.21 0.0 0 0 83.33 49.95&#10;  A 4.21 4.21 0.0 0 0 79.12 54.16&#10;  A 4.21 4.21 0.0 0 0 83.33 58.37&#10;  A 4.21 4.21 0.0 0 0 87.54 54.16" />
        <path stroke="#a5c443"
            d="&#10;  M 104.20 54.16&#10;  A 4.21 4.21 0.0 0 0 99.99 49.95&#10;  A 4.21 4.21 0.0 0 0 95.78 54.16&#10;  A 4.21 4.21 0.0 0 0 99.99 58.37&#10;  A 4.21 4.21 0.0 0 0 104.20 54.16" />
        <path stroke="#a5c443"
            d="&#10;  M 120.87 54.16&#10;  A 4.21 4.21 0.0 0 0 116.66 49.95&#10;  A 4.21 4.21 0.0 0 0 112.45 54.16&#10;  A 4.21 4.21 0.0 0 0 116.66 58.37&#10;  A 4.21 4.21 0.0 0 0 120.87 54.16" />
        <path stroke="#a5c443"
            d="&#10;  M 137.54 54.15&#10;  A 4.21 4.21 0.0 0 0 133.33 49.94&#10;  A 4.21 4.21 0.0 0 0 129.12 54.15&#10;  A 4.21 4.21 0.0 0 0 133.33 58.36&#10;  A 4.21 4.21 0.0 0 0 137.54 54.15" />
        <path stroke="#a5c443"
            d="&#10;  M 154.20 54.16&#10;  A 4.21 4.21 0.0 0 0 149.99 49.95&#10;  A 4.21 4.21 0.0 0 0 145.78 54.16&#10;  A 4.21 4.21 0.0 0 0 149.99 58.37&#10;  A 4.21 4.21 0.0 0 0 154.20 54.16" />
    </g>
    <path fill="#2e7d32"
        d="&#10;  M 145.40 37.29&#10;  L 57.29 37.39&#10;  L 99.60 21.01&#10;  A 1.14 1.12 43.7 0 1 100.41 21.00&#10;  L 145.40 37.29&#10;  Z" />
    <path fill="#4caf50"
        d="&#10;  M 145.40 37.29&#10;  L 170.20 37.50&#10;  Q 170.86 37.51 170.77 38.15&#10;  Q 169.26 49.87 167.98 61.05&#10;  C 167.29 67.06 162.95 66.72 158.27 66.66&#10;  L 149.75 66.70&#10;  L 129.08 66.98&#10;  Q 128.84 66.60 128.25 66.60&#10;  Q 124.58 66.61 120.76 66.81&#10;  L 112.60 66.74&#10;  L 87.45 66.72&#10;  Q 83.58 66.68 79.50 66.73&#10;  Q 79.13 66.74 79.12 67.28&#10;  Q 79.13 66.96 78.95 66.79&#10;  Q 78.79 66.64 78.58 66.65&#10;  Q 74.99 66.75 71.44 66.64&#10;  Q 71.25 66.63 71.09 66.75&#10;  Q 70.92 66.87 70.82 67.04&#10;  L 50.19 66.72&#10;  L 41.45 66.60&#10;  Q 36.61 67.46 34.07 65.29&#10;  Q 32.35 63.83 32.09 61.55&#10;  Q 30.60 48.88 29.23 38.16&#10;  Q 29.15 37.57 29.76 37.56&#10;  L 57.29 37.39&#10;  L 145.40 37.29&#10;  Z&#10;  M 54.20 54.16&#10;  A 4.21 4.21 0.0 0 0 49.99 49.95&#10;  A 4.21 4.21 0.0 0 0 45.78 54.16&#10;  A 4.21 4.21 0.0 0 0 49.99 58.37&#10;  A 4.21 4.21 0.0 0 0 54.20 54.16&#10;  Z&#10;  M 70.87 54.16&#10;  A 4.21 4.21 0.0 0 0 66.66 49.95&#10;  A 4.21 4.21 0.0 0 0 62.45 54.16&#10;  A 4.21 4.21 0.0 0 0 66.66 58.37&#10;  A 4.21 4.21 0.0 0 0 70.87 54.16&#10;  Z&#10;  M 87.54 54.16&#10;  A 4.21 4.21 0.0 0 0 83.33 49.95&#10;  A 4.21 4.21 0.0 0 0 79.12 54.16&#10;  A 4.21 4.21 0.0 0 0 83.33 58.37&#10;  A 4.21 4.21 0.0 0 0 87.54 54.16&#10;  Z&#10;  M 104.20 54.16&#10;  A 4.21 4.21 0.0 0 0 99.99 49.95&#10;  A 4.21 4.21 0.0 0 0 95.78 54.16&#10;  A 4.21 4.21 0.0 0 0 99.99 58.37&#10;  A 4.21 4.21 0.0 0 0 104.20 54.16&#10;  Z&#10;  M 120.87 54.16&#10;  A 4.21 4.21 0.0 0 0 116.66 49.95&#10;  A 4.21 4.21 0.0 0 0 112.45 54.16&#10;  A 4.21 4.21 0.0 0 0 116.66 58.37&#10;  A 4.21 4.21 0.0 0 0 120.87 54.16&#10;  Z&#10;  M 137.54 54.15&#10;  A 4.21 4.21 0.0 0 0 133.33 49.94&#10;  A 4.21 4.21 0.0 0 0 129.12 54.15&#10;  A 4.21 4.21 0.0 0 0 133.33 58.36&#10;  A 4.21 4.21 0.0 0 0 137.54 54.15&#10;  Z&#10;  M 154.20 54.16&#10;  A 4.21 4.21 0.0 0 0 149.99 49.95&#10;  A 4.21 4.21 0.0 0 0 145.78 54.16&#10;  A 4.21 4.21 0.0 0 0 149.99 58.37&#10;  A 4.21 4.21 0.0 0 0 154.20 54.16&#10;  Z" />
    <circle fill="#fdd835" cx="49.99" cy="54.16" r="4.21" />
    <circle fill="#fdd835" cx="66.66" cy="54.16" r="4.21" />
    <circle fill="#fdd835" cx="83.33" cy="54.16" r="4.21" />
    <circle fill="#fdd835" cx="99.99" cy="54.16" r="4.21" />
    <circle fill="#fdd835" cx="116.66" cy="54.16" r="4.21" />
    <circle fill="#fdd835" cx="133.33" cy="54.15" r="4.21" />
    <circle fill="#fdd835" cx="149.99" cy="54.16" r="4.21" />
    <path fill="#9fa8da"
        d="&#10;  M 50.19 66.72&#10;  C 49.32 72.27 42.38 71.96 41.45 66.60&#10;  L 50.19 66.72&#10;  Z" />
    <path fill="#9fa8da"
        d="&#10;  M 79.12 67.28&#10;  C 78.12 72.07 71.98 72.00 70.82 67.04&#10;  Q 70.92 66.87 71.09 66.75&#10;  Q 71.25 66.63 71.44 66.64&#10;  Q 74.99 66.75 78.58 66.65&#10;  Q 78.79 66.64 78.95 66.79&#10;  Q 79.13 66.96 79.12 67.28&#10;  Z" />
    <path fill="#ffa000"
        d="&#10;  M 112.60 66.74&#10;  L 112.52 74.95&#10;  L 87.48 74.98&#10;  L 87.45 66.72&#10;  L 112.60 66.74&#10;  Z" />
    <path fill="#9fa8da"
        d="&#10;  M 129.08 66.98&#10;  C 128.45 72.07 121.94 72.06 120.76 66.81&#10;  Q 124.58 66.61 128.25 66.60&#10;  Q 128.84 66.60 129.08 66.98&#10;  Z" />
    <path fill="#9fa8da"
        d="&#10;  M 158.27 66.66&#10;  C 158.09 72.38 150.87 72.12 149.75 66.70&#10;  L 158.27 66.66&#10;  Z" />
    <circle fill="#9fa8da" cx="39.56" cy="77.44" r="4.26" />
    <circle fill="#9fa8da" cx="160.42" cy="77.46" r="4.27" />
    <path fill="#ffc107"
        d="&#10;  M 112.52 74.95&#10;  L 112.50 158.31&#10;  L 87.50 158.30&#10;  L 87.48 74.98&#10;  L 112.52 74.95&#10;  Z" />
    <ellipse fill="#9fa8da" cx="0.00" cy="0.00" transform="translate(71.88,78.89) rotate(-32.8)"
        rx="4.21" ry="3.90" />
    <circle fill="#9fa8da" cx="128.49" cy="78.95" r="3.98" />
    <circle fill="#9fa8da" cx="33.74" cy="88.29" r="4.27" />
    <circle fill="#9fa8da" cx="166.27" cy="88.70" r="4.26" />
    <circle fill="#9fa8da" cx="68.04" cy="90.90" r="4.03" />
    <circle fill="#9fa8da" cx="132.22" cy="91.09" r="4.03" />
    <circle fill="#9fa8da" cx="27.49" cy="99.53" r="4.26" />
    <circle fill="#9fa8da" cx="172.50" cy="99.59" r="4.24" />
    <circle fill="#9fa8da" cx="64.70" cy="102.57" r="4.04" />
    <ellipse fill="#9fa8da" cx="0.00" cy="0.00" transform="translate(135.59,102.74) rotate(131.5)"
        rx="4.11" ry="3.90" />
    <circle fill="#9fa8da" cx="16.66" cy="116.66" r="12.51" />
    <circle fill="#9fa8da" cx="183.33" cy="116.66" r="12.51" />
    <circle fill="#9fa8da" cx="61.24" cy="114.58" r="4.11" />
    <circle fill="#9fa8da" cx="138.75" cy="114.57" r="4.11" />
    <circle fill="#9fa8da" cx="54.16" cy="133.33" r="12.51" />
    <circle fill="#9fa8da" cx="145.83" cy="133.33" r="12.51" />
    <path fill="#2e7d32"
        d="&#10;  M 87.50 158.30&#10;  L 112.50 158.31&#10;  C 117.74 158.33 125.04 157.64 129.32 159.18&#10;  Q 134.73 161.13 136.72 166.76&#10;  C 138.01 170.40 137.36 174.69 137.55 178.58&#10;  Q 137.58 179.22 136.95 179.22&#10;  L 63.05 179.22&#10;  Q 62.59 179.22 62.56 178.75&#10;  Q 62.11 170.81 63.08 167.41&#10;  Q 64.89 161.14 70.92 159.09&#10;  C 75.11 157.67 82.34 158.33 87.50 158.30&#10;  Z" />
</svg>