<?xml version="1.0" encoding="utf-8"?>
<svg viewBox="0 0 96 96" xmlns="http://www.w3.org/2000/svg">
   <g id="layer1"
      transform="matrix(0.2645429968833923, 0, 0, 0.2645429968833923, -104.06649327476293, 21.745052985699544)">
      <g id="g168" transform="matrix(7.636322, 0, 0, -7.636322, 574.82564, 105.629642)"
         style="fill:#43b0e8;fill-opacity:1">
         <path
            d="m 0,0 c -1.424,0 -2.583,-1.159 -2.583,-2.583 0,-1.424 1.159,-2.583 2.583,-2.583 1.424,0 2.583,1.159 2.583,2.583 C 2.583,-1.159 1.424,0 0,0"
            style="fill:#43b0e8;fill-opacity:1;fill-rule:nonzero;stroke:none" id="path170" />
      </g>
      <g id="g172" transform="matrix(7.636322, 0, 0, -7.636322, 453.863997, 4.393372)"
         style="fill:#43b0e8;fill-opacity:1">
         <path
            d="m 0,0 2.685,-2.685 c 3.37,3.371 8.023,5.458 13.155,5.458 5.132,0 9.785,-2.087 13.156,-5.458 L 31.681,0 C 27.623,4.058 22.019,6.572 15.84,6.572 9.662,6.572 4.059,4.058 0,0"
            style="fill:#43b0e8;fill-opacity:1;fill-rule:nonzero;stroke:none" id="path174" />
      </g>
      <g id="g176" transform="matrix(7.636322, 0, 0, -7.636322, 490.770339, 41.296674)"
         style="fill:#43b0e8;fill-opacity:1">
         <path
            d="m 0,0 2.685,-2.685 c 2.132,2.132 5.076,3.453 8.322,3.453 3.247,0 6.191,-1.321 8.323,-3.453 L 22.015,0 C 19.195,2.82 15.301,4.567 11.007,4.567 6.713,4.567 2.82,2.82 0,0"
            style="fill:#43b0e8;fill-opacity:1;fill-rule:nonzero;stroke:none" id="path178" />
      </g>
      <g id="g180" transform="matrix(7.636322, 0, 0, -7.636322, 527.672867, 78.200724)"
         style="fill:#43b0e8;fill-opacity:1">
         <path
            d="m 0,0 2.685,-2.685 c 0.894,0.894 2.128,1.448 3.49,1.448 1.362,0 2.596,-0.554 3.49,-1.448 L 12.35,0 C 10.768,1.582 8.583,2.562 6.175,2.562 3.766,2.562 1.582,1.582 0,0"
            style="fill:#43b0e8;fill-opacity:1;fill-rule:nonzero;stroke:none" id="path182" />
      </g>
      <g id="g184" transform="matrix(7.636322, 0, 0, -7.636322, 647.467671, 72.437601)"
         style="fill:#072342;fill-opacity:1">
         <path
            d="m 0,0 c 1.421,-1.946 2.263,-4.341 2.263,-6.93 0,-6.493 -5.283,-11.775 -11.776,-11.775 -6.493,0 -11.776,5.282 -11.776,11.775 0,2.589 0.842,4.984 2.264,6.93 l -2.708,2.708 c -2.098,-2.654 -3.354,-6.001 -3.354,-9.638 0,-8.587 6.986,-15.574 15.574,-15.574 8.588,0 15.575,6.987 15.575,15.574 0,3.637 -1.257,6.984 -3.354,9.638 z"
            style="fill:#072342;fill-opacity:1;fill-rule:nonzero;stroke:none" id="path186" />
      </g>
   </g>
</svg>