<svg xmlns="http://www.w3.org/2000/svg" xmlns:xlink="http://www.w3.org/1999/xlink"
    viewBox="0,0,256,256" width="64px" height="64px">
    <g fill="#fb5929" fill-rule="nonzero" stroke="none" stroke-width="1" stroke-linecap="butt"
        stroke-linejoin="miter" stroke-miterlimit="10" stroke-dasharray="" stroke-dashoffset="0"
        font-family="none" font-weight="none" font-size="none" text-anchor="none"
        style="mix-blend-mode: normal">
        <g transform="scale(4,4)">
            <path
                d="M51,2c-1.66717,0.002 -3.22368,0.83482 -4.15039,2.2207l-10.49609,-1.88867l-1.7168,-0.31055l-0.57422,1.78516l-4.92383,15.31055c-6.63266,0.517 -12.49848,2.81431 -16.67187,6.19922c-1.23325,-1.46646 -3.0507,-2.31408 -4.9668,-2.31641c-3.30584,0.01745 -6.07199,2.51345 -6.4279,5.80012c-0.35591,3.28667 1.81181,6.31695 5.03728,7.04167c-0.0682,0.54642 -0.10937,1.09913 -0.10937,1.6582c0,10.22 11.64,18.5 26,18.5c14.36,0 26,-8.28 26,-18.5c0,-0.55776 -0.04149,-1.10913 -0.10937,-1.6543c3.23391,-0.71742 5.41101,-3.75201 5.05449,-7.0453c-0.35652,-3.29329 -3.1326,-5.79167 -6.44512,-5.8004c-1.91609,0.00233 -3.73354,0.84995 -4.9668,2.31641c-4.09994,-3.32533 -9.8365,-5.59305 -16.32617,-6.16211l2.38477,-12.53711l8.54492,1.53906c0.53548,2.2528 2.54771,3.8432 4.86328,3.84375c2.76142,0 5,-2.23858 5,-5c0,-2.76142 -2.23858,-5 -5,-5zM21.15039,29c2.68,0 4.84961,2.24 4.84961,5c0,2.76 -2.16961,5 -4.84961,5c-2.67,0.06 -4.84961,-2.24 -4.84961,-5c0,-2.76 2.17961,-5 4.84961,-5zM42.84961,29c2.67,0 4.84961,2.24 4.84961,5c0,2.76 -2.17961,5.06 -4.84961,5c-2.68,0 -4.84961,-2.24 -4.84961,-5c0,-2.76 2.16961,-5 4.84961,-5zM22.19922,43.40039c0.03,0.02 3.63078,3 9.80078,3c6.17,0 10.11062,-2.54055 10.14063,-2.56055l2.05859,2.75977c-0.19,0.14 -4.61922,3.40039 -12.19922,3.40039c-7.58,0 -12.00922,-3.26039 -12.19922,-3.40039z"></path>
        </g>
    </g>
</svg>