<svg xmlns="http://www.w3.org/2000/svg" version="1.1" viewBox="0.00 0.00 200.00 200.00"
    width="200.00" height="200.00">
    <g stroke-width="2.00" fill="none" stroke-linecap="butt">
        <path stroke="#b3bbde" d="&#10;  M 161.63 162.51&#10;  L 155.88 150.64" />
        <path stroke="#5f7098"
            d="&#10;  M 155.88 150.64&#10;  Q 155.96 150.45 155.72 149.93&#10;  Q 155.51 149.48 155.76 149.05&#10;  L 159.55 142.55" />
        <path stroke="#b3bbde" d="&#10;  M 159.55 142.55&#10;  Q 165.68 130.40 166.46 116.68" />
        <path stroke="#5f7098" d="&#10;  M 166.46 116.68&#10;  L 166.57 108.23" />
        <path stroke="#b3bbde" d="&#10;  M 166.57 108.23&#10;  Q 163.60 75.42 136.56 56.77" />
        <path stroke="#5f7098" d="&#10;  M 136.56 56.77&#10;  L 129.14 52.60" />
        <path stroke="#b3bbde" d="&#10;  M 129.14 52.60&#10;  Q 117.22 46.76 103.97 45.97" />
        <path stroke="#8595bd" d="&#10;  M 103.97 45.97&#10;  L 95.53 46.02" />
        <path stroke="#b3bbde" d="&#10;  M 95.53 46.02&#10;  Q 81.51 46.91 69.23 53.48" />
        <path stroke="#5f7098"
            d="&#10;  M 69.23 53.48&#10;  Q 65.76 55.29 62.64 57.41&#10;  Q 62.48 57.52 62.43 57.66&#10;  Q 62.39 57.80 62.38 57.98" />
        <path stroke="#b3bbde"
            d="&#10;  M 62.38 57.98&#10;  Q 62.02 57.79 61.77 57.97&#10;  Q 51.53 65.21 44.65 75.50" />
        <path stroke="#5f7098" d="&#10;  M 44.65 75.50&#10;  L 40.44 82.80" />
        <path stroke="#b3bbde"
            d="&#10;  M 40.44 82.80&#10;  Q 34.37 94.53 33.51 107.75&#10;  Q 33.48 108.15 33.95 108.34" />
        <path stroke="#5f7098"
            d="&#10;  M 33.95 108.34&#10;  Q 33.48 108.56 33.48 109.38&#10;  Q 33.45 113.09 33.56 116.70" />
        <path stroke="#b3bbde" d="&#10;  M 33.56 116.70&#10;  Q 34.29 130.70 40.84 142.91" />
        <path stroke="#5f7098" d="&#10;  M 40.84 142.91&#10;  L 44.95 150.11" />
        <path stroke="#b3bbde" d="&#10;  M 44.95 150.11&#10;  L 38.79 162.52" />
        <path stroke="#becad0" d="&#10;  M 103.97 45.97&#10;  Q 103.85 46.71 104.15 46.42" />
        <path stroke="#6b7f89" d="&#10;  M 104.15 46.42&#10;  L 95.88 46.42" />
        <path stroke="#becad0" d="&#10;  M 95.88 46.42&#10;  Q 96.44 46.63 95.53 46.02" />
        <path stroke="#99a5ab"
            d="&#10;  M 95.88 46.42&#10;  L 95.83 62.93&#10;  Q 95.83 63.29 96.19 63.26&#10;  L 103.85 62.65&#10;  Q 104.21 62.62 104.20 62.26&#10;  L 104.15 46.42" />
        <path stroke="#99a5ab"
            d="&#10;  M 129.14 52.60&#10;  L 121.08 66.67&#10;  A 0.38 0.37 30.3 0 0 121.22 67.18&#10;  L 127.67 70.90&#10;  A 0.39 0.38 30.3 0 0 128.19 70.77&#10;  L 136.56 56.77" />
        <path stroke="#99a5ab"
            d="&#10;  M 166.57 108.23&#10;  L 150.48 108.27&#10;  A 0.48 0.48 0.0 0 0 150.02 108.83&#10;  Q 150.70 112.55 150.12 116.18&#10;  Q 150.03 116.72 150.58 116.72&#10;  L 166.46 116.68" />
        <path stroke="#99a5ab"
            d="&#10;  M 159.55 142.55&#10;  L 145.35 134.36&#10;  Q 145.12 134.22 144.98 134.46&#10;  L 141.00 141.51&#10;  A 0.30 0.30 0.0 0 0 141.11 141.92&#10;  L 155.88 150.64" />
        <path stroke="#99a5ab"
            d="&#10;  M 44.95 150.11&#10;  L 58.78 141.54&#10;  A 0.33 0.32 -31.4 0 0 58.89 141.10&#10;  L 55.09 134.52&#10;  A 0.34 0.34 0.0 0 0 54.62 134.40&#10;  L 40.84 142.91" />
        <path stroke="#99a5ab"
            d="&#10;  M 33.56 116.70&#10;  L 49.53 116.72&#10;  Q 50.09 116.72 49.98 116.17&#10;  Q 49.30 112.45 49.88 108.83&#10;  Q 49.97 108.29 49.42 108.29&#10;  L 33.95 108.34" />
        <path stroke="#99a5ab"
            d="&#10;  M 40.44 82.80&#10;  L 54.21 90.97&#10;  A 0.37 0.36 29.7 0 0 54.71 90.84&#10;  L 58.43 84.37&#10;  Q 58.60 84.07 58.31 83.89&#10;  L 44.65 75.50" />
        <path stroke="#99a5ab"
            d="&#10;  M 62.38 57.98&#10;  L 70.14 71.61&#10;  A 0.36 0.35 -29.1 0 0 70.62 71.74&#10;  L 77.16 68.03&#10;  Q 77.47 67.85 77.29 67.55&#10;  L 69.23 53.48" />
        <path stroke="#f6839b"
            d="&#10;  M 112.25 110.21&#10;  L 152.01 87.01&#10;  A 0.37 0.37 0.0 0 0 152.14 86.50&#10;  L 148.29 79.97&#10;  Q 148.10 79.64 147.76 79.83&#10;  L 108.63 102.67&#10;  Q 108.13 102.96 107.64 102.63&#10;  C 106.61 101.94 105.67 101.13 104.49 100.66&#10;  C 96.78 97.53 87.95 102.24 87.56 110.69&#10;  C 86.79 127.23 111.04 128.49 111.69 111.13&#10;  A 1.13 1.13 0.0 0 1 112.25 110.21" />
        <path stroke="#becad0"
            d="&#10;  M 116.69 133.71&#10;  A 0.40 0.40 0.0 0 0 116.29 133.31&#10;  L 83.71 133.31&#10;  A 0.40 0.40 0.0 0 0 83.31 133.71&#10;  L 83.31 141.29&#10;  A 0.40 0.40 0.0 0 0 83.71 141.69&#10;  L 116.29 141.69&#10;  A 0.40 0.40 0.0 0 0 116.69 141.29&#10;  L 116.69 133.71" />
    </g>
    <path fill="#7986cb"
        d="&#10;  M 161.63 162.51&#10;  L 155.88 150.64&#10;  Q 155.96 150.45 155.72 149.93&#10;  Q 155.51 149.48 155.76 149.05&#10;  L 159.55 142.55&#10;  Q 165.68 130.40 166.46 116.68&#10;  L 166.57 108.23&#10;  Q 163.60 75.42 136.56 56.77&#10;  L 129.14 52.60&#10;  Q 117.22 46.76 103.97 45.97&#10;  L 95.53 46.02&#10;  Q 81.51 46.91 69.23 53.48&#10;  Q 65.76 55.29 62.64 57.41&#10;  Q 62.48 57.52 62.43 57.66&#10;  Q 62.39 57.80 62.38 57.98&#10;  Q 62.02 57.79 61.77 57.97&#10;  Q 51.53 65.21 44.65 75.50&#10;  L 40.44 82.80&#10;  Q 34.37 94.53 33.51 107.75&#10;  Q 33.48 108.15 33.95 108.34&#10;  Q 33.48 108.56 33.48 109.38&#10;  Q 33.45 113.09 33.56 116.70&#10;  Q 34.29 130.70 40.84 142.91&#10;  L 44.95 150.11&#10;  L 38.79 162.52&#10;  Q 14.96 132.65 22.49 95.99&#10;  Q 28.20 68.18 52.35 49.34&#10;  Q 70.76 34.99 96.19 33.46&#10;  C 140.80 30.76 178.88 67.31 179.49 111.70&#10;  Q 179.88 139.73 161.63 162.51&#10;  Z" />
    <path fill="#90a4ae"
        d="&#10;  M 103.97 45.97&#10;  Q 103.85 46.71 104.15 46.42&#10;  L 95.88 46.42&#10;  Q 96.44 46.63 95.53 46.02&#10;  L 103.97 45.97&#10;  Z" />
    <path fill="#eceff1"
        d="&#10;  M 95.53 46.02&#10;  Q 96.44 46.63 95.88 46.42&#10;  L 95.83 62.93&#10;  Q 95.83 63.29 96.19 63.26&#10;  L 103.85 62.65&#10;  Q 104.21 62.62 104.20 62.26&#10;  L 104.15 46.42&#10;  Q 103.85 46.71 103.97 45.97&#10;  Q 117.22 46.76 129.14 52.60&#10;  L 121.08 66.67&#10;  A 0.38 0.37 30.3 0 0 121.22 67.18&#10;  L 127.67 70.90&#10;  A 0.39 0.38 30.3 0 0 128.19 70.77&#10;  L 136.56 56.77&#10;  Q 163.60 75.42 166.57 108.23&#10;  L 150.48 108.27&#10;  A 0.48 0.48 0.0 0 0 150.02 108.83&#10;  Q 150.70 112.55 150.12 116.18&#10;  Q 150.03 116.72 150.58 116.72&#10;  L 166.46 116.68&#10;  Q 165.68 130.40 159.55 142.55&#10;  L 145.35 134.36&#10;  Q 145.12 134.22 144.98 134.46&#10;  L 141.00 141.51&#10;  A 0.30 0.30 0.0 0 0 141.11 141.92&#10;  L 155.88 150.64&#10;  L 161.63 162.51&#10;  L 38.79 162.52&#10;  L 44.95 150.11&#10;  L 58.78 141.54&#10;  A 0.33 0.32 -31.4 0 0 58.89 141.10&#10;  L 55.09 134.52&#10;  A 0.34 0.34 0.0 0 0 54.62 134.40&#10;  L 40.84 142.91&#10;  Q 34.29 130.70 33.56 116.70&#10;  L 49.53 116.72&#10;  Q 50.09 116.72 49.98 116.17&#10;  Q 49.30 112.45 49.88 108.83&#10;  Q 49.97 108.29 49.42 108.29&#10;  L 33.95 108.34&#10;  Q 33.48 108.15 33.51 107.75&#10;  Q 34.37 94.53 40.44 82.80&#10;  L 54.21 90.97&#10;  A 0.37 0.36 29.7 0 0 54.71 90.84&#10;  L 58.43 84.37&#10;  Q 58.60 84.07 58.31 83.89&#10;  L 44.65 75.50&#10;  Q 51.53 65.21 61.77 57.97&#10;  Q 62.02 57.79 62.38 57.98&#10;  L 70.14 71.61&#10;  A 0.36 0.35 -29.1 0 0 70.62 71.74&#10;  L 77.16 68.03&#10;  Q 77.47 67.85 77.29 67.55&#10;  L 69.23 53.48&#10;  Q 81.51 46.91 95.53 46.02&#10;  Z&#10;  M 112.25 110.21&#10;  L 152.01 87.01&#10;  A 0.37 0.37 0.0 0 0 152.14 86.50&#10;  L 148.29 79.97&#10;  Q 148.10 79.64 147.76 79.83&#10;  L 108.63 102.67&#10;  Q 108.13 102.96 107.64 102.63&#10;  C 106.61 101.94 105.67 101.13 104.49 100.66&#10;  C 96.78 97.53 87.95 102.24 87.56 110.69&#10;  C 86.79 127.23 111.04 128.49 111.69 111.13&#10;  A 1.13 1.13 0.0 0 1 112.25 110.21&#10;  Z&#10;  M 116.69 133.71&#10;  A 0.40 0.40 0.0 0 0 116.29 133.31&#10;  L 83.71 133.31&#10;  A 0.40 0.40 0.0 0 0 83.31 133.71&#10;  L 83.31 141.29&#10;  A 0.40 0.40 0.0 0 0 83.71 141.69&#10;  L 116.29 141.69&#10;  A 0.40 0.40 0.0 0 0 116.69 141.29&#10;  L 116.69 133.71&#10;  Z" />
    <path fill="#455a64"
        d="&#10;  M 104.15 46.42&#10;  L 104.20 62.26&#10;  Q 104.21 62.62 103.85 62.65&#10;  L 96.19 63.26&#10;  Q 95.83 63.29 95.83 62.93&#10;  L 95.88 46.42&#10;  L 104.15 46.42&#10;  Z" />
    <path fill="#455a64"
        d="&#10;  M 136.56 56.77&#10;  L 128.19 70.77&#10;  A 0.39 0.38 30.3 0 1 127.67 70.90&#10;  L 121.22 67.18&#10;  A 0.38 0.37 30.3 0 1 121.08 66.67&#10;  L 129.14 52.60&#10;  L 136.56 56.77&#10;  Z" />
    <path fill="#455a64"
        d="&#10;  M 69.23 53.48&#10;  L 77.29 67.55&#10;  Q 77.47 67.85 77.16 68.03&#10;  L 70.62 71.74&#10;  A 0.36 0.35 -29.1 0 1 70.14 71.61&#10;  L 62.38 57.98&#10;  Q 62.39 57.80 62.43 57.66&#10;  Q 62.48 57.52 62.64 57.41&#10;  Q 65.76 55.29 69.23 53.48&#10;  Z" />
    <path fill="#455a64"
        d="&#10;  M 44.65 75.50&#10;  L 58.31 83.89&#10;  Q 58.60 84.07 58.43 84.37&#10;  L 54.71 90.84&#10;  A 0.37 0.36 29.7 0 1 54.21 90.97&#10;  L 40.44 82.80&#10;  L 44.65 75.50&#10;  Z" />
    <path fill="#ff1744"
        d="&#10;  M 111.69 111.13&#10;  C 111.04 128.49 86.79 127.23 87.56 110.69&#10;  C 87.95 102.24 96.78 97.53 104.49 100.66&#10;  C 105.67 101.13 106.61 101.94 107.64 102.63&#10;  Q 108.13 102.96 108.63 102.67&#10;  L 147.76 79.83&#10;  Q 148.10 79.64 148.29 79.97&#10;  L 152.14 86.50&#10;  A 0.37 0.37 0.0 0 1 152.01 87.01&#10;  L 112.25 110.21&#10;  A 1.13 1.13 0.0 0 0 111.69 111.13&#10;  Z" />
    <path fill="#455a64"
        d="&#10;  M 33.95 108.34&#10;  L 49.42 108.29&#10;  Q 49.97 108.29 49.88 108.83&#10;  Q 49.30 112.45 49.98 116.17&#10;  Q 50.09 116.72 49.53 116.72&#10;  L 33.56 116.70&#10;  Q 33.45 113.09 33.48 109.38&#10;  Q 33.48 108.56 33.95 108.34&#10;  Z" />
    <path fill="#455a64"
        d="&#10;  M 166.57 108.23&#10;  L 166.46 116.68&#10;  L 150.58 116.72&#10;  Q 150.03 116.72 150.12 116.18&#10;  Q 150.70 112.55 150.02 108.83&#10;  A 0.48 0.48 0.0 0 1 150.48 108.27&#10;  L 166.57 108.23&#10;  Z" />
    <rect fill="#90a4ae" x="83.31" y="133.31" width="33.38" height="8.38" rx="0.40" />
    <path fill="#455a64"
        d="&#10;  M 44.95 150.11&#10;  L 40.84 142.91&#10;  L 54.62 134.40&#10;  A 0.34 0.34 0.0 0 1 55.09 134.52&#10;  L 58.89 141.10&#10;  A 0.33 0.32 -31.4 0 1 58.78 141.54&#10;  L 44.95 150.11&#10;  Z" />
    <path fill="#455a64"
        d="&#10;  M 159.55 142.55&#10;  L 155.76 149.05&#10;  Q 155.51 149.48 155.72 149.93&#10;  Q 155.96 150.45 155.88 150.64&#10;  L 141.11 141.92&#10;  A 0.30 0.30 0.0 0 1 141.00 141.51&#10;  L 144.98 134.46&#10;  Q 145.12 134.22 145.35 134.36&#10;  L 159.55 142.55&#10;  Z" />
</svg>