<svg xmlns="http://www.w3.org/2000/svg" viewBox="0 0 465.95 466.55">
    <defs>
        <clipPath id="SVG-IOS-app-icon-clip-path">
            <rect width="465.41" height="465.41" x=".85" y=".65" rx="104.5" fill="none"></rect>
        </clipPath>
        <linearGradient id="SVG-IOS-app-icon-linear-gradient" x1="-1946.56" x2="-1218.16"
            y1="-5061.71" y2="-5061.71" gradientTransform="rotate(-90 1978.4 -3270.79)"
            gradientUnits="userSpaceOnUse">
            <stop offset="0" stop-color="#ef6876"></stop>
            <stop offset=".28" stop-color="#ef6974"></stop>
            <stop offset=".4" stop-color="#f06c6d"></stop>
            <stop offset=".48" stop-color="#f17261"></stop>
            <stop offset=".56" stop-color="#f37b4f"></stop>
            <stop offset=".62" stop-color="#f58638"></stop>
            <stop offset=".67" stop-color="#f7931e"></stop>
            <stop offset=".99" stop-color="#f6925b"></stop>
        </linearGradient>
        <linearGradient id="SVG-IOS-app-icon-linear-gradient-2" x1="42.16" x2="486.65" y1="773.41"
            y2="3.53" gradientTransform="rotate(180 274.4 339.58)" gradientUnits="userSpaceOnUse">
            <stop offset="0" stop-color="#fcee21"></stop>
            <stop offset=".88" stop-color="#f48120"></stop>
        </linearGradient>
        <linearGradient id="SVG-IOS-app-icon-linear-gradient-3" x1="226.49" x2="226.49" y1="688.23"
            y2="-68.38" gradientTransform="rotate(180 274.4 339.58)" gradientUnits="userSpaceOnUse">
            <stop offset=".45" stop-color="#f0b636"></stop>
            <stop offset=".68" stop-color="#f16137"></stop>
            <stop offset=".99" stop-color="#f0b636"></stop>
        </linearGradient>
        <linearGradient id="SVG-IOS-app-icon-linear-gradient-4" x1="101.89" x2="635.43" y1="523.23"
            y2="523.23" gradientTransform="rotate(180 274.4 339.58)" gradientUnits="userSpaceOnUse">
            <stop offset="0" stop-color="#29b473"></stop>
            <stop offset=".64" stop-color="#00adee"></stop>
            <stop offset=".67" stop-color="#1ca5e5"></stop>
            <stop offset=".73" stop-color="#4c97d5"></stop>
            <stop offset=".78" stop-color="#738cc8"></stop>
            <stop offset=".84" stop-color="#9283be"></stop>
            <stop offset=".9" stop-color="#a87db7"></stop>
            <stop offset=".95" stop-color="#b679b2"></stop>
            <stop offset="1" stop-color="#ba78b1"></stop>
        </linearGradient>
        <linearGradient id="SVG-IOS-app-icon-linear-gradient-5" x1="204.19" x2="487.03" y1="783.39"
            y2="500.55" gradientTransform="rotate(180 274.4 339.58)" gradientUnits="userSpaceOnUse">
            <stop offset=".23" stop-color="#84cba8"></stop>
            <stop offset=".59" stop-color="#00adee"></stop>
            <stop offset=".94" stop-color="#008faf"></stop>
            <stop offset="1" stop-color="#0089a4"></stop>
        </linearGradient>
        <linearGradient id="SVG-IOS-app-icon-linear-gradient-6" x1="138.4" x2="548.4" y1="663.76"
            y2="663.76" gradientTransform="rotate(180 274.4 339.58)" gradientUnits="userSpaceOnUse">
            <stop offset="0" stop-color="#00adee"></stop>
            <stop offset=".06" stop-color="#059fe3"></stop>
            <stop offset=".26" stop-color="#1477c6"></stop>
            <stop offset=".46" stop-color="#1f59af"></stop>
            <stop offset=".65" stop-color="#27439e"></stop>
            <stop offset=".83" stop-color="#2c3594"></stop>
            <stop offset="1" stop-color="#2e3191"></stop>
        </linearGradient>
        <linearGradient id="SVG-IOS-app-icon-linear-gradient-7" x1="239.07" x2="476.4" y1="726.49"
            y2="726.49" gradientTransform="rotate(180 274.4 339.58)" gradientUnits="userSpaceOnUse">
            <stop offset="0" stop-color="#eb008b"></stop>
            <stop offset="1" stop-color="#b778b1"></stop>
        </linearGradient>
    </defs>
    <g clip-path="url(#SVG-IOS-app-icon-clip-path)">
        <path fill="url(#SVG-IOS-app-icon-linear-gradient)"
            d="M187.75-74.23C490-74.23 735 88.83 735 290S490 654.2 187.8 654.2s-561.38-.31-547.19-364.2C-347.6-14-114.46-74.23 187.75-74.23z"></path>
        <path fill="#ffdc00"
            d="M569.53 119.37C566.39 88.24 557 43 527.7-3.16c-86.53-136.55-273.16-165.93-280.06-153.51C242.85-148 325.5-120.54 410.33-30a561 561 0 0 1 106.91 164.7"></path>
        <path fill="#f6d10c"
            d="M592.77 119.37C589.63 88.24 580.2 43 550.93-3.16c-86.53-136.55-273.15-165.93-280-153.51C266.08-148 348.74-120.54 433.56-30a560.76 560.76 0 0 1 106.91 164.7"></path>
        <path fill="url(#SVG-IOS-app-icon-linear-gradient-2)"
            d="M262.4 618C698.17 434.44 636.4 37.3 607.12-8.89c-86.53-136.56-379.31-160.2-386.21-147.78-4.79 8.63 40.65 12 142.49 82.84 115.29 80.21 275 393-242 562C71.59 504.45-18.6 524-70.6 599"></path>
        <path fill="url(#SVG-IOS-app-icon-linear-gradient-3)"
            d="M594.11-9.06c33.51 156.24 2.95 214.22 1.44 255.59C592.4 333 483 518.7 313.4 489c-177-31-367.14 186.54-338.85 229.21 13.89 20.95 245.2 85.87 406.05-87.83 15.5-16.74 109.87-48.29 146.34-83.22C653.61 425.86 621.29 410.75 654.77 369c41.05-51.25 2.31-166.28-18-263.66"></path>
        <path fill="url(#SVG-IOS-app-icon-linear-gradient-4)"
            d="M-86.62 69.47C-86.62-42.9 76.36-51 179.2-51s286.19-44.38 266.2 66.2c-45 249-194.65 409-266.2 340.74C69.09 250.88-86.62 181.84-86.62 69.47z"></path>
        <path fill="url(#SVG-IOS-app-icon-linear-gradient-5)"
            d="M-35.6-2.83c0-112.37 169.31-87.41 252.93-87.41S431.4-85.2 431.4 27.17s-125.38 249-209 249-258-166.63-258-279z"></path>
        <path fill="url(#SVG-IOS-app-icon-linear-gradient-6)"
            d="M-35.6-2.83c0-112.37,169.31-87.41,252.93-87.41S431.4-85.2,431.4,27.17s-125.38,249-209,249S-35.6,109.54-35.6-2.83Z"></path>
        <path fill="url(#SVG-IOS-app-icon-linear-gradient-7)"
            d="M72.4-37.83c0-52.81 50-132.17 97-132.17s133.24 66.73 140 119.17c6.34 49.13-78 127-149.26 126.19C113.24 74.82 72.4 15 72.4-37.83z"></path>
    </g>
    <path d="M-223.93-456.05h925.85V855h-925.85z" fill="none" transform="rotate(180 239 199.48)"></path>
    <path
        d="M130.4 190.5V152q27.66-1.2 38.73-3.57 17.64-3.78 28.7-15.09 7.57-7.74 11.48-20.65 2.25-7.74 2.25-11.51h48.91V389h-60V190.5zM285.54 167.13v-18.7l43.72-58.68h18.27v60.55h13.37v16.83h-13.37v23.3h-19.42v-23.3zm42.14-51.78l-26 35h26.46v-35z"
        fill="#fff"></path>
</svg>