<svg xmlns="http://www.w3.org/2000/svg" version="1.1" viewBox="44.77 -245.47 766 766" width="96"
    height="96" xmlns:xlink="http://www.w3.org/1999/xlink" xmlns:svgjs="http://svgjs.dev/svgjs">
    <g stroke-width="2.00" fill="none" stroke-linecap="butt">
        <path stroke="#f18337" d="&#10;  M 197.55 46.01&#10;  Q 198.24 46.59 196.36 47.40" />
        <path stroke="#f18737"
            d="&#10;  M 196.36 47.40&#10;  Q 193.47 48.41 190.56 49.61&#10;  Q 143.28 69.04 100.99 97.93" />
        <path stroke="#f05941"
            d="&#10;  M 100.99 97.93&#10;  Q 100.70 97.74 100.63 97.49&#10;  Q 100.53 97.13 100.16 97.13&#10;  Q 80.33 97.11 60.50 97.12&#10;  Q 59.94 97.12 58.87 97.55&#10;  Q 58.69 97.62 58.53 97.53&#10;  Q 58.37 97.44 58.30 97.27&#10;  Q 58.20 97.02 58.40 96.83&#10;  Q 59.42 95.85 59.13 94.21" />
        <path stroke="#f8d79b"
            d="&#10;  M 157.28 84.96&#10;  L 141.06 84.99&#10;  A 0.26 0.26 0.0 0 0 140.81 85.34&#10;  L 145.68 99.71" />
        <path stroke="#f0ab36"
            d="&#10;  M 145.68 99.71&#10;  L 144.28 99.67&#10;  Q 143.84 99.65 143.52 99.97&#10;  L 127.65 115.86&#10;  Q 127.53 115.97 127.37 115.99&#10;  Q 127.21 116.01 127.04 115.99&#10;  Q 126.57 115.93 126.23 116.27&#10;  L 100.64 141.86&#10;  Q 100.52 141.98 100.35 142.00&#10;  Q 100.20 142.01 100.04 141.99&#10;  Q 99.57 141.93 99.23 142.27&#10;  L 73.65 167.85&#10;  Q 73.47 168.03 73.22 168.01&#10;  Q 73.05 167.99 72.89 167.99&#10;  Q 72.50 167.98 72.22 168.26&#10;  Q 67.54 172.97 62.77 177.74&#10;  Q 62.25 178.26 62.38 177.53&#10;  Q 62.40 177.44 62.37 177.35&#10;  Q 62.21 176.89 61.65 176.76&#10;  Q 60.91 176.59 60.10 176.22" />
        <path stroke="#ef8140"
            d="&#10;  M 50.10 140.68&#10;  Q 57.71 132.72 60.82 129.82&#10;  Q 79.64 112.25 100.99 97.93" />
        <path stroke="#f09c36"
            d="&#10;  M 277.69 46.01&#10;  Q 278.28 46.83 279.79 46.89&#10;  Q 279.98 46.89 279.80 46.97&#10;  Q 279.76 46.99 279.72 47.02&#10;  Q 279.62 47.10 279.49 47.12&#10;  C 277.83 47.33 276.03 47.45 274.75 48.71&#10;  Q 266.88 56.41 259.65 63.76&#10;  Q 259.47 63.96 259.21 63.89&#10;  Q 259.01 63.84 258.82 63.87&#10;  Q 258.46 63.92 258.20 64.18&#10;  L 232.69 89.70&#10;  Q 232.50 89.88 232.24 89.88&#10;  L 231.80 89.88&#10;  Q 231.47 89.88 231.24 90.13&#10;  L 227.91 93.75" />
        <path stroke="#f8d39b"
            d="&#10;  M 227.91 93.75&#10;  L 225.06 85.31&#10;  Q 224.87 84.75 224.28 84.75&#10;  L 206.76 84.75&#10;  Q 206.25 84.75 206.08 85.24&#10;  L 202.25 96.80" />
        <path stroke="#f19537" d="&#10;  M 202.25 96.80&#10;  Q 185.64 98.11 170.12 104.60" />
        <path stroke="#f8d39b"
            d="&#10;  M 170.12 104.60&#10;  L 164.31 85.56&#10;  Q 164.16 85.07 163.65 85.06&#10;  L 157.28 84.96" />
        <path stroke="#f0ab36"
            d="&#10;  M 157.28 84.96&#10;  L 159.49 84.59&#10;  Q 160.00 84.50 160.37 84.14&#10;  L 179.34 65.15&#10;  Q 179.46 65.03 179.63 65.01&#10;  Q 179.81 64.98 180.00 65.02&#10;  Q 180.42 65.10 180.71 64.80&#10;  Q 187.96 57.53 195.14 50.34&#10;  Q 195.89 49.60 196.78 49.04&#10;  Q 196.93 48.94 197.01 48.78&#10;  Q 197.17 48.44 196.88 48.22&#10;  A 0.13 0.12 29.2 0 0 196.69 48.27&#10;  Q 196.61 48.42 196.48 48.44&#10;  Q 195.82 48.53 196.34 48.09&#10;  Q 196.69 47.80 196.36 47.40" />
        <path stroke="#f18a37"
            d="&#10;  M 150.93 115.35&#10;  Q 123.57 135.40 106.77 164.24&#10;  C 102.19 172.09 98.69 180.29 96.76 188.75&#10;  Q 94.36 199.20 95.58 211.83" />
        <path stroke="#f8d39b" d="&#10;  M 230.63 102.07&#10;  L 245.74 147.40" />
        <path stroke="#f8bc9b"
            d="&#10;  M 265.17 157.84&#10;  L 256.54 183.44&#10;  A 0.83 0.82 -80.6 0 1 255.76 184.00&#10;  L 242.00 184.04" />
        <path stroke="#f8d79b"
            d="&#10;  M 242.00 184.04&#10;  L 237.80 183.97&#10;  A 0.89 0.88 -8.9 0 1 236.98 183.38&#10;  L 230.08 163.26" />
        <path stroke="#f8d39b"
            d="&#10;  M 230.08 163.26&#10;  L 215.66 121.44&#10;  Q 215.27 120.31 214.88 121.45&#10;  L 193.49 183.46&#10;  Q 193.31 183.98 192.75 183.98&#10;  L 174.75 184.01" />
        <path stroke="#f8c89b"
            d="&#10;  M 174.75 184.01&#10;  Q 174.07 183.77 173.83 183.00&#10;  Q 170.91 173.83 164.79 156.18" />
        <path stroke="#f8c19b" d="&#10;  M 164.79 156.18&#10;  L 156.01 130.29" />
        <path stroke="#f8b69b" d="&#10;  M 156.01 130.29&#10;  L 150.93 115.35" />
        <path stroke="#f8d39b" d="&#10;  M 150.93 115.35&#10;  L 145.68 99.71" />
        <path stroke="#f8c19b"
            d="&#10;  M 170.12 104.60&#10;  L 184.08 150.18&#10;  Q 184.35 151.06 184.63 150.19&#10;  L 202.25 96.80" />
        <path stroke="#f18a37"
            d="&#10;  M 330.71 46.01&#10;  Q 330.24 47.14 332.49 47.06&#10;  Q 332.90 47.05 332.53 47.22&#10;  Q 332.46 47.25 332.38 47.24&#10;  Q 332.02 47.19 331.68 47.30&#10;  Q 329.62 47.96 328.04 49.16&#10;  Q 325.59 51.00 323.33 53.27&#10;  Q 313.64 62.98 304.69 71.94&#10;  Q 304.54 72.09 304.33 72.09&#10;  Q 304.18 72.10 304.02 72.08&#10;  Q 303.58 72.03 303.27 72.34&#10;  L 289.75 85.53" />
        <path stroke="#f8c89b"
            d="&#10;  M 289.75 85.53&#10;  Q 289.71 85.40 289.68 85.26&#10;  Q 289.62 85.00 289.35 85.00&#10;  L 267.51 85.00&#10;  Q 266.98 85.00 266.82 85.50&#10;  L 247.17 149.78&#10;  Q 246.68 151.38 246.19 149.78&#10;  Q 245.68 148.08 245.74 147.40" />
        <path stroke="#f09c36"
            d="&#10;  M 245.74 147.40&#10;  Q 247.29 140.65 246.61 131.38&#10;  Q 245.81 120.53 242.93 113.07&#10;  Q 239.79 104.90 230.63 102.07" />
        <path stroke="#f8c89b" d="&#10;  M 230.63 102.07&#10;  L 227.91 93.75" />
        <path stroke="#f17837"
            d="&#10;  M 156.01 130.29&#10;  Q 155.32 130.53 154.39 131.72&#10;  Q 153.98 132.23 153.92 132.89&#10;  Q 153.86 133.53 153.92 134.19&#10;  Q 153.97 134.70 153.51 134.92&#10;  Q 152.61 135.34 152.92 136.31&#10;  A 0.42 0.41 73.1 0 1 152.65 136.83&#10;  Q 151.74 137.12 151.90 138.11&#10;  A 0.88 0.87 -14.8 0 1 151.34 139.06&#10;  Q 150.67 139.32 150.90 140.02&#10;  Q 151.09 140.61 150.53 140.89&#10;  Q 149.62 141.34 149.91 142.35&#10;  Q 150.01 142.71 149.66 142.82&#10;  Q 148.70 143.13 148.92 144.13&#10;  A 0.70 0.70 0.0 0 1 148.52 144.92&#10;  Q 147.61 145.32 147.91 146.32&#10;  Q 148.02 146.70 147.65 146.82&#10;  Q 146.72 147.13 146.90 148.12&#10;  A 0.80 0.79 -11.9 0 1 146.29 149.05&#10;  Q 145.80 149.17 145.93 149.65&#10;  Q 146.13 150.42 145.49 150.89&#10;  Q 144.59 151.57 144.90 152.71&#10;  Q 145.12 153.55 144.37 153.98&#10;  Q 143.69 154.38 143.90 155.17&#10;  A 0.63 0.63 0.0 0 1 143.53 155.91&#10;  Q 142.60 156.32 142.92 157.31&#10;  A 0.42 0.42 0.0 0 1 142.64 157.84&#10;  Q 141.70 158.12 141.92 159.10&#10;  A 0.75 0.73 72.2 0 1 141.50 159.94&#10;  Q 140.63 160.32 140.90 161.25&#10;  Q 141.04 161.72 140.57 161.87&#10;  Q 139.93 162.08 139.90 162.68&#10;  Q 139.88 163.00 139.74 163.29&#10;  L 119.94 205.22&#10;  Q 119.72 205.68 119.36 206.02&#10;  Q 118.85 206.51 118.93 207.20&#10;  Q 118.97 207.54 118.69 207.73&#10;  Q 117.45 208.56 117.93 210.23&#10;  A 0.52 0.52 0.0 0 1 117.58 210.87&#10;  Q 116.73 211.14 116.91 212.03&#10;  Q 117.05 212.69 116.43 212.98&#10;  Q 115.68 213.32 115.90 214.12&#10;  A 0.70 0.70 0.0 0 1 115.48 214.96&#10;  Q 114.70 215.27 114.88 216.07&#10;  Q 115.02 216.68 114.45 216.95&#10;  Q 112.72 217.80 113.71 219.35" />
        <path stroke="#f17337"
            d="&#10;  M 300.21 170.99&#10;  Q 291.12 178.65 283.65 186.75&#10;  Q 283.53 186.88 283.35 186.88&#10;  Q 283.21 186.88 283.07 186.87&#10;  Q 282.55 186.83 282.18 187.21&#10;  L 256.68 212.70&#10;  Q 256.47 212.92 256.16 212.89&#10;  Q 256.00 212.87 255.84 212.87&#10;  Q 255.51 212.87 255.27 213.11&#10;  L 247.28 221.11&#10;  Q 246.90 221.50 247.38 221.75&#10;  Q 247.97 222.07 248.82 221.78&#10;  Q 248.87 221.76 248.93 221.77&#10;  Q 249.00 221.79 248.95 221.84&#10;  Q 248.91 221.88 248.85 221.88&#10;  Q 241.29 222.38 235.50 222.10&#10;  Q 233.98 222.03 233.70 222.65" />
        <path stroke="#f19437"
            d="&#10;  M 232.41 222.70&#10;  L 233.74 222.08&#10;  Q 234.21 221.87 234.33 221.36&#10;  Q 238.87 202.98 242.00 184.04" />
        <path stroke="#f18a37"
            d="&#10;  M 164.79 156.18&#10;  Q 164.19 157.45 163.46 158.17&#10;  Q 163.08 158.54 163.15 159.06&#10;  Q 163.23 159.67 162.69 159.95&#10;  Q 162.22 160.20 162.11 160.72&#10;  Q 161.70 162.64 160.62 164.17&#10;  Q 160.37 164.52 160.31 164.95&#10;  Q 160.16 165.95 159.68 166.88&#10;  Q 156.29 173.47 153.66 179.32&#10;  Q 150.79 185.69 147.82 191.81&#10;  Q 143.71 200.29 139.04 210.08&#10;  Q 136.55 215.31 133.74 220.74&#10;  Q 133.58 221.06 133.32 221.30&#10;  Q 133.05 221.55 133.28 221.83&#10;  Q 133.47 222.07 133.51 222.58" />
        <path stroke="#f17138" d="&#10;  M 365.35 46.04&#10;  L 374.69 55.07" />
        <path stroke="#f17e37"
            d="&#10;  M 374.69 55.07&#10;  L 349.67 79.73&#10;  Q 349.51 79.88 349.28 79.88&#10;  L 348.78 79.88&#10;  A 0.68 0.68 0.0 0 0 348.29 80.09&#10;  L 345.16 83.22&#10;  Q 344.78 83.60 345.21 83.93&#10;  Q 345.56 84.20 346.14 84.03&#10;  Q 346.23 84.00 346.15 84.05&#10;  Q 346.11 84.07 346.13 84.11&#10;  Q 346.15 84.16 346.09 84.16&#10;  Q 342.98 84.30 338.01 84.37" />
        <path stroke="#f8c19b" d="&#10;  M 338.01 84.37&#10;  Q 336.15 86.02 334.32 90.93" />
        <path stroke="#f17e37"
            d="&#10;  M 334.32 90.93&#10;  L 319.64 104.98&#10;  Q 319.51 105.10 319.35 105.10&#10;  Q 319.22 105.10 319.08 105.09&#10;  Q 318.56 105.06 318.19 105.43&#10;  L 292.68 130.94&#10;  Q 292.52 131.09 292.31 131.09&#10;  Q 292.15 131.09 291.98 131.08&#10;  Q 291.54 131.06 291.24 131.37&#10;  L 265.17 157.84" />
        <path stroke="#f8c19b" d="&#10;  M 265.17 157.84&#10;  L 289.75 85.53" />
        <path stroke="#f0ab36"
            d="&#10;  M 230.08 163.26&#10;  Q 229.16 163.57 228.93 163.10&#10;  Q 228.82 162.88 228.58 162.94&#10;  Q 228.30 163.00 228.25 163.23&#10;  Q 227.65 165.84 227.89 169.18&#10;  Q 227.94 169.80 227.38 170.09&#10;  Q 226.81 170.38 227.00 171.01&#10;  Q 227.16 171.57 226.66 171.89&#10;  Q 225.62 172.53 226.03 173.79&#10;  A 1.01 1.01 0.0 0 1 225.51 175.00&#10;  Q 224.80 175.35 224.98 176.16&#10;  Q 225.12 176.75 224.56 176.99&#10;  Q 223.77 177.31 223.98 178.16&#10;  Q 224.13 178.75 223.57 178.98&#10;  Q 222.77 179.31 222.98 180.18&#10;  Q 223.12 180.75 222.57 180.98&#10;  Q 221.77 181.31 221.98 182.19&#10;  Q 222.12 182.74 221.59 182.96&#10;  Q 220.72 183.33 221.01 184.31&#10;  A 0.52 0.52 0.0 0 1 220.67 184.94&#10;  L 220.37 185.04&#10;  Q 219.84 185.22 219.99 185.75&#10;  Q 220.27 186.67 219.44 187.01&#10;  Q 218.87 187.25 219.02 187.86&#10;  Q 219.22 188.68 218.47 189.00&#10;  Q 217.87 189.25 218.02 189.88&#10;  Q 218.19 190.60 217.58 190.94&#10;  Q 217.00 191.27 217.00 191.94&#10;  L 217.00 193.06&#10;  Q 217.00 193.73 216.42 194.05&#10;  Q 215.81 194.40 215.98 195.13&#10;  Q 216.13 195.75 215.54 196.00&#10;  Q 214.78 196.32 214.98 197.15&#10;  Q 215.13 197.75 214.56 197.98&#10;  Q 213.77 198.31 213.98 199.18&#10;  Q 214.12 199.75 213.58 199.97&#10;  Q 212.77 200.31 212.98 201.18&#10;  Q 213.12 201.74 212.59 201.97&#10;  Q 211.77 202.31 211.98 203.22&#10;  Q 212.11 203.75 211.60 203.96&#10;  Q 210.76 204.30 211.01 205.31&#10;  A 0.50 0.49 76.5 0 1 210.64 205.92&#10;  Q 210.44 205.97 210.27 206.09&#10;  Q 209.88 206.36 210.01 206.82&#10;  Q 210.24 207.67 209.47 207.99&#10;  Q 208.87 208.25 209.02 208.89&#10;  Q 209.18 209.60 208.58 209.94&#10;  Q 208.00 210.27 208.00 210.94&#10;  L 208.00 212.23&#10;  Q 208.00 212.77 207.52 213.00&#10;  Q 206.69 213.40 207.05 214.40&#10;  A 0.40 0.40 0.0 0 1 206.71 214.93&#10;  Q 206.56 214.94 206.42 215.01&#10;  Q 205.88 215.27 206.02 215.85&#10;  Q 206.22 216.68 205.46 217.00&#10;  Q 204.86 217.25 205.02 217.88&#10;  Q 205.21 218.67 204.50 218.98&#10;  Q 203.87 219.25 204.00 219.92&#10;  Q 204.19 220.84 203.30 221.10&#10;  A 0.32 0.32 0.0 0 0 203.11 221.58&#10;  Q 203.22 221.76 203.36 221.91&#10;  Q 203.55 222.12 203.95 222.14&#10;  Q 209.48 222.40 215.03 222.70" />
        <path stroke="#f09c36"
            d="&#10;  M 155.54 222.69&#10;  Q 158.02 222.60 160.49 222.58&#10;  Q 160.69 222.58 160.69 222.38&#10;  L 160.69 222.37&#10;  Q 160.69 222.19 160.51 222.17&#10;  Q 159.11 222.04 157.61 222.19&#10;  Q 156.80 222.28 157.14 221.54&#10;  L 174.75 184.01" />
        <path stroke="#f7a9a5" d="&#10;  M 369.19 112.22&#10;  L 381.13 140.31" />
        <path stroke="#f6a3a6" d="&#10;  M 381.13 140.31&#10;  L 393.47 169.26" />
        <path stroke="#f794a7"
            d="&#10;  M 393.47 169.26&#10;  L 399.25 182.80&#10;  A 0.32 0.32 0.0 0 1 398.96 183.25&#10;  L 376.79 183.25&#10;  A 0.46 0.45 78.2 0 1 376.37 182.97&#10;  L 367.85 162.04&#10;  Q 367.66 161.57 367.15 161.57&#10;  L 339.41 161.56" />
        <path stroke="#f8b69b"
            d="&#10;  M 339.41 161.56&#10;  L 326.85 161.57&#10;  Q 326.33 161.57 326.14 162.05&#10;  L 317.68 182.77&#10;  Q 317.49 183.25 316.97 183.25&#10;  L 295.55 183.25&#10;  A 0.28 0.28 0.0 0 1 295.29 182.86&#10;  L 300.21 170.99" />
        <path stroke="#f8bc9b" d="&#10;  M 300.21 170.99&#10;  L 334.32 90.93" />
        <path stroke="#f06641" d="&#10;  M 376.93 95.49&#10;  Q 373.99 104.14 369.19 112.22" />
        <path stroke="#f8bc9b"
            d="&#10;  M 369.19 112.22&#10;  L 357.59 85.06&#10;  Q 357.39 84.60 356.90 84.60&#10;  L 338.01 84.37" />
        <path stroke="#f04444" d="&#10;  M 455.90 46.06&#10;  Q 474.59 67.65 490.86 91.20" />
        <path stroke="#f8af9c"
            d="&#10;  M 490.86 91.20&#10;  Q 479.71 85.26 466.88 85.12&#10;  Q 444.37 84.87 421.79 85.04&#10;  Q 421.30 85.05 421.30 85.54&#10;  L 421.24 94.09" />
        <path stroke="#f05941"
            d="&#10;  M 421.24 94.09&#10;  L 378.60 94.41&#10;  Q 378.32 94.41 378.22 94.66&#10;  Q 378.16 94.81 378.23 94.96&#10;  A 0.36 0.36 0.0 0 1 378.17 95.34&#10;  Q 377.71 95.85 376.93 95.49" />
        <path stroke="#f16c38"
            d="&#10;  M 376.93 95.49&#10;  C 379.77 87.65 381.80 80.16 381.78 71.75&#10;  Q 381.76 63.83 374.69 55.07" />
        <path stroke="#f04b43" d="&#10;  M 313.60 196.95&#10;  L 339.41 161.56" />
        <path stroke="#ee384f" d="&#10;  M 608.26 46.17&#10;  Q 612.06 59.88 613.53 74.06" />
        <path stroke="#ed3251"
            d="&#10;  M 613.53 74.06&#10;  C 615.03 84.78 620.31 94.83 627.47 103.14" />
        <path stroke="#ee2352" d="&#10;  M 627.47 103.14&#10;  Q 637.28 114.71 650.68 123.87" />
        <path stroke="#f68eaa"
            d="&#10;  M 650.68 123.87&#10;  L 644.72 124.06&#10;  Q 644.25 124.08 644.25 124.55&#10;  L 644.25 143.25&#10;  Q 644.25 143.75 644.75 143.75&#10;  L 669.00 143.75&#10;  Q 669.50 143.75 669.50 144.25&#10;  L 669.50 168.75&#10;  A 0.25 0.25 0.0 0 0 669.75 169.00&#10;  L 689.47 169.00&#10;  A 0.29 0.28 -90.0 0 0 689.75 168.71&#10;  L 689.78 147.02" />
        <path stroke="#ee2352"
            d="&#10;  M 689.78 147.02&#10;  Q 716.30 159.82 743.37 170.59&#10;  Q 763.54 178.61 783.82 186.32&#10;  Q 785.70 187.03 787.85 187.89" />
        <path stroke="#ef4546"
            d="&#10;  M 293.96 222.56&#10;  Q 293.81 222.02 294.04 221.73&#10;  Q 304.52 208.93 313.60 196.95" />
        <path stroke="#ee2352"
            d="&#10;  M 313.60 196.95&#10;  Q 344.04 197.12 373.50 197.44&#10;  Q 373.79 197.44 374.18 197.28&#10;  Q 374.54 197.12 374.84 197.12&#10;  Q 389.05 197.13 403.26 197.12&#10;  Q 403.65 197.12 404.02 197.25&#10;  Q 404.26 197.34 404.50 197.34&#10;  Q 413.50 197.41 422.50 197.34&#10;  Q 422.74 197.34 422.97 197.26&#10;  Q 423.34 197.12 423.74 197.12&#10;  L 448.01 197.12&#10;  Q 448.41 197.12 448.78 197.26&#10;  Q 449.01 197.34 449.24 197.34&#10;  Q 461.09 197.41 473.69 197.34&#10;  C 474.20 197.34 474.27 197.14 474.80 197.14&#10;  Q 491.27 197.10 507.74 197.14&#10;  C 513.26 197.16 518.97 197.53 524.61 197.35&#10;  Q 530.78 197.14 536.44 197.13&#10;  Q 572.80 197.04 609.19 197.34&#10;  Q 609.34 197.34 609.47 197.26&#10;  Q 609.66 197.14 609.88 197.14&#10;  L 672.72 197.08&#10;  Q 673.21 197.08 672.87 196.73&#10;  Q 672.60 196.44 672.28 196.60&#10;  Q 672.05 196.72 672.24 196.54&#10;  Q 672.35 196.44 672.35 196.30&#10;  Q 672.35 196.01 672.07 195.93&#10;  Q 668.05 194.79 663.75 193.76&#10;  Q 638.03 187.58 612.05 183.05&#10;  Q 599.90 180.94 592.56 178.77&#10;  Q 572.27 172.79 554.76 160.49&#10;  Q 554.30 160.17 553.01 160.46" />
        <path stroke="#f68eaa"
            d="&#10;  M 553.01 160.46&#10;  L 553.09 154.58&#10;  Q 553.10 153.98 553.70 153.99&#10;  C 563.48 154.03 574.60 154.80 583.74 152.10&#10;  Q 606.38 145.40 608.76 123.37&#10;  C 610.75 104.94 600.10 89.28 581.40 86.05&#10;  Q 575.84 85.09 569.50 85.05&#10;  Q 550.48 84.93 531.34 84.98&#10;  A 0.36 0.36 0.0 0 0 530.98 85.34&#10;  L 530.95 140.16" />
        <path stroke="#ee384f" d="&#10;  M 530.95 140.16&#10;  L 516.67 124.29" />
        <path stroke="#ee4c4c"
            d="&#10;  M 421.24 138.92&#10;  L 382.01 139.00&#10;  Q 381.51 139.00 381.37 139.48&#10;  L 381.13 140.31" />
        <path stroke="#ee384e"
            d="&#10;  M 421.24 169.29&#10;  Q 420.95 169.28 420.90 168.92&#10;  Q 420.81 168.22 420.27 168.60&#10;  Q 420.10 168.71 419.88 168.79&#10;  Q 419.50 168.92 419.10 168.92&#10;  L 393.47 169.26" />
        <path stroke="#f7a9a5"
            d="&#10;  M 501.82 105.78&#10;  Q 503.80 114.24 503.11 122.19&#10;  C 502.03 134.59 494.43 143.55 483.13 148.04&#10;  Q 482.60 148.26 482.91 148.74&#10;  L 485.16 152.22" />
        <path stroke="#f6a3a6" d="&#10;  M 485.16 152.22&#10;  L 498.12 171.18" />
        <path stroke="#f794a7"
            d="&#10;  M 498.12 171.18&#10;  L 505.94 182.78&#10;  Q 506.26 183.25 505.70 183.25&#10;  L 481.30 183.25&#10;  Q 480.81 183.25 480.53 182.85&#10;  L 475.02 174.70" />
        <path stroke="#f6a3a6"
            d="&#10;  M 475.02 174.70&#10;  L 460.29 152.67&#10;  A 1.50 1.48 -16.4 0 0 459.04 152.00&#10;  L 443.79 152.00&#10;  Q 443.30 152.00 443.29 152.50&#10;  L 443.28 175.97" />
        <path stroke="#f794a7"
            d="&#10;  M 443.28 175.97&#10;  L 443.19 182.64&#10;  Q 443.19 183.25 442.57 183.25&#10;  L 421.79 183.25&#10;  Q 421.30 183.25 421.30 182.75&#10;  L 421.24 169.29" />
        <path stroke="#f6a3a6" d="&#10;  M 421.24 169.29&#10;  L 421.24 138.92" />
        <path stroke="#f7a9a5" d="&#10;  M 421.24 138.92&#10;  L 421.24 94.09" />
        <path stroke="#ee2352"
            d="&#10;  M 520.54 46.07&#10;  L 520.62 46.61&#10;  Q 520.70 47.11 521.21 47.11&#10;  L 536.18 47.23&#10;  Q 536.86 47.24 536.20 47.40&#10;  Q 535.49 47.57 534.59 47.58&#10;  Q 534.07 47.59 534.58 47.70&#10;  Q 534.73 47.73 534.86 47.66&#10;  A 0.15 0.15 0.0 0 1 535.09 47.79&#10;  L 534.91 52.47&#10;  Q 534.90 52.71 534.71 52.86&#10;  Q 534.61 52.95 534.49 53.00&#10;  Q 533.96 53.19 533.96 53.74&#10;  L 533.96 57.51&#10;  A 0.45 0.44 -9.1 0 1 533.65 57.93&#10;  L 533.34 58.02&#10;  Q 532.96 58.13 532.96 58.52&#10;  L 532.96 61.51&#10;  Q 532.96 61.83 532.65 61.93&#10;  L 532.34 62.02&#10;  Q 531.96 62.13 531.96 62.52&#10;  L 531.96 66.51&#10;  A 0.45 0.44 -9.1 0 1 531.65 66.93&#10;  L 531.41 67.00&#10;  A 0.63 0.62 82.0 0 0 530.96 67.60&#10;  L 530.96 71.51&#10;  A 0.45 0.44 -9.1 0 1 530.65 71.93&#10;  L 530.41 72.00&#10;  A 0.63 0.62 82.0 0 0 529.96 72.60&#10;  L 529.96 76.51&#10;  A 0.45 0.44 -9.1 0 1 529.65 76.93&#10;  L 529.34 77.02&#10;  Q 528.96 77.13 528.96 77.52&#10;  L 528.96 81.51&#10;  A 0.45 0.44 -9.1 0 1 528.65 81.93&#10;  L 528.41 82.00&#10;  A 0.63 0.62 82.0 0 0 527.96 82.60&#10;  L 527.96 86.51&#10;  A 0.45 0.44 -9.1 0 1 527.65 86.93&#10;  L 527.34 87.02&#10;  Q 526.96 87.13 526.96 87.52&#10;  L 526.96 91.51&#10;  A 0.45 0.44 -9.1 0 1 526.65 91.93&#10;  L 526.34 92.02&#10;  Q 525.96 92.13 525.96 92.52&#10;  L 525.96 96.48&#10;  A 0.43 0.42 78.4 0 1 525.71 96.87&#10;  Q 525.57 96.93 525.43 97.00&#10;  Q 524.96 97.22 524.96 97.74&#10;  L 524.96 100.51&#10;  Q 524.96 100.83 524.65 100.93&#10;  L 524.41 101.00&#10;  A 0.63 0.62 82.0 0 0 523.96 101.60&#10;  L 523.96 105.51&#10;  A 0.45 0.44 -9.1 0 1 523.65 105.93&#10;  L 523.34 106.02&#10;  Q 522.96 106.13 522.96 106.52&#10;  L 522.96 110.51&#10;  A 0.45 0.44 -9.1 0 1 522.65 110.93&#10;  L 522.41 111.00&#10;  A 0.63 0.62 82.0 0 0 521.96 111.60&#10;  L 521.96 115.51&#10;  A 0.45 0.44 -9.1 0 1 521.65 115.93&#10;  L 521.34 116.02&#10;  Q 520.96 116.13 520.96 116.52&#10;  L 520.96 120.40&#10;  A 0.59 0.59 0.0 0 1 520.55 120.96&#10;  L 520.29 121.04&#10;  Q 520.00 121.12 519.99 121.43&#10;  L 519.90 125.43&#10;  Q 519.89 126.04 519.31 125.83&#10;  Q 518.59 125.56 518.41 124.87&#10;  Q 518.31 124.42 517.92 124.16&#10;  Q 517.76 124.05 517.62 123.90&#10;  Q 517.26 123.53 516.94 123.94&#10;  L 516.67 124.29" />
        <path stroke="#ee3e4d" d="&#10;  M 516.67 124.29&#10;  L 501.82 105.78" />
        <path stroke="#f794a7" d="&#10;  M 501.82 105.78&#10;  Q 498.24 97.25 490.86 91.20" />
        <path stroke="#f794a7"
            d="&#10;  M 553.01 160.46&#10;  L 552.96 182.74&#10;  Q 552.96 183.25 552.45 183.25&#10;  L 531.70 183.25&#10;  Q 531.09 183.25 531.08 182.64&#10;  L 530.98 170.93" />
        <path stroke="#f6a3a6" d="&#10;  M 530.98 170.93&#10;  L 530.98 150.96" />
        <path stroke="#f7a9a5" d="&#10;  M 530.98 150.96&#10;  L 530.95 140.16" />
        <path stroke="#ee384e"
            d="&#10;  M 530.98 170.93&#10;  Q 530.49 171.66 530.39 172.56&#10;  Q 530.38 172.62 530.32 172.64&#10;  Q 530.27 172.66 530.22 172.65&#10;  Q 530.03 172.62 530.09 172.43&#10;  Q 530.31 171.72 529.92 171.25&#10;  Q 529.60 170.87 529.10 170.87&#10;  L 498.12 171.18" />
        <path stroke="#ee384e"
            d="&#10;  M 475.02 174.70&#10;  Q 474.82 174.69 474.70 174.79&#10;  Q 474.56 174.90 474.60 174.73&#10;  Q 474.61 174.68 474.59 174.63&#10;  Q 474.50 174.43 474.28 174.45&#10;  Q 461.83 175.18 447.01 174.81&#10;  Q 445.64 174.77 444.65 175.66&#10;  Q 444.22 176.04 444.38 175.49&#10;  Q 444.52 175.02 444.32 174.63&#10;  Q 443.93 173.85 443.68 174.69&#10;  L 443.28 175.97" />
        <path stroke="#ee4c4c"
            d="&#10;  M 530.98 150.96&#10;  Q 530.51 150.93 530.63 151.80&#10;  Q 530.65 151.63 530.47 151.53&#10;  Q 530.13 151.35 530.13 151.73&#10;  L 530.13 152.43&#10;  A 0.05 0.04 50.0 0 0 530.22 152.44&#10;  Q 530.33 151.72 529.87 151.18&#10;  A 0.87 0.85 69.1 0 0 529.22 150.88&#10;  Q 509.99 150.88 490.44 150.87&#10;  C 489.25 150.86 488.21 151.21 487.09 151.51&#10;  Q 486.46 151.68 486.10 151.14&#10;  Q 485.97 150.95 485.75 150.85&#10;  Q 485.01 150.52 485.08 151.32&#10;  L 485.16 152.22" />
        <path stroke="#f794a7"
            d="&#10;  M 689.81 100.79&#10;  L 689.81 123.37&#10;  Q 689.81 123.99 690.43 123.99&#10;  L 714.25 123.99&#10;  A 0.76 0.76 0.0 0 1 715.01 124.75&#10;  L 715.00 143.50&#10;  A 0.25 0.25 0.0 0 1 714.75 143.75&#10;  L 690.27 143.75&#10;  Q 689.79 143.75 689.79 144.24&#10;  L 689.78 147.02" />
        <path stroke="#f794a7"
            d="&#10;  M 650.68 123.87&#10;  L 669.20 123.97&#10;  A 0.27 0.27 0.0 0 0 669.47 123.70&#10;  L 669.46 99.72" />
        <path stroke="#ee4c4c"
            d="&#10;  M 780.31 72.18&#10;  Q 779.76 72.34 779.85 72.51&#10;  Q 779.96 72.71 780.18 72.76&#10;  A 0.49 0.48 -79.6 0 1 780.55 73.30&#10;  Q 780.52 73.53 780.35 73.68&#10;  A 0.14 0.14 0.0 0 1 780.15 73.65&#10;  Q 780.06 73.54 780.04 73.40&#10;  Q 779.97 72.77 779.81 73.38&#10;  Q 779.78 73.49 779.78 73.60&#10;  Q 779.77 73.80 779.57 73.76&#10;  Q 779.51 73.75 779.51 73.69&#10;  Q 779.49 73.35 779.18 73.47&#10;  Q 776.65 74.34 774.75 74.32&#10;  Q 768.26 74.24 762.22 74.26&#10;  Q 698.69 74.45 631.26 74.21&#10;  Q 626.42 74.19 622.16 74.33&#10;  Q 620.56 74.38 617.86 74.09&#10;  Q 615.73 73.86 613.53 74.06" />
        <path stroke="#ee384e"
            d="&#10;  M 799.89 101.99&#10;  Q 784.03 102.11 768.75 102.28&#10;  Q 731.63 102.68 694.52 102.12&#10;  C 693.37 102.11 692.43 101.53 691.36 102.16&#10;  Q 691.22 102.24 691.16 102.10&#10;  Q 691.09 101.97 691.00 101.86&#10;  Q 690.52 101.25 690.58 102.02&#10;  Q 690.59 102.24 690.40 102.37&#10;  Q 689.98 102.66 689.93 102.15&#10;  L 689.81 100.79" />
        <path stroke="#f6a3a6"
            d="&#10;  M 689.81 100.79&#10;  L 689.69 99.57&#10;  Q 689.64 99.02 689.08 99.02&#10;  Q 679.40 98.98 669.75 99.00&#10;  Q 669.31 99.00 669.46 99.72" />
        <path stroke="#ee384e"
            d="&#10;  M 669.46 99.72&#10;  Q 668.91 99.82 668.61 101.26&#10;  Q 668.51 101.77 668.00 101.69&#10;  Q 667.16 101.57 666.35 102.00&#10;  Q 665.76 102.31 665.09 102.32&#10;  Q 658.59 102.49 651.51 102.28&#10;  C 648.47 102.18 645.70 102.41 642.50 102.23&#10;  Q 636.63 101.90 629.03 102.43&#10;  Q 628.76 102.45 628.64 102.70&#10;  Q 628.58 102.84 628.50 102.96&#10;  Q 628.33 103.21 628.04 103.18&#10;  L 627.47 103.14" />
        <path stroke="#f7a9a5"
            d="&#10;  M 352.49 141.97&#10;  L 359.21 141.98&#10;  Q 359.80 141.98 359.57 141.44&#10;  L 356.81 134.93" />
        <path stroke="#f8b69b"
            d="&#10;  M 356.81 134.93&#10;  L 347.22 111.49&#10;  A 0.26 0.25 44.7 0 0 346.75 111.49&#10;  L 334.40 141.60&#10;  A 0.26 0.26 0.0 0 0 334.64 141.96&#10;  L 352.49 141.97" />
        <path stroke="#f06041" d="&#10;  M 356.81 134.93&#10;  L 352.49 141.97" />
        <path stroke="#f7a9a5"
            d="&#10;  M 443.25 105.00&#10;  L 443.25 132.52&#10;  A 0.22 0.22 0.0 0 0 443.47 132.74&#10;  L 466.57 132.74&#10;  A 14.68 13.01 0.0 0 0 481.25 119.73&#10;  L 481.25 117.79&#10;  A 14.68 13.01 -0.0 0 0 466.57 104.78&#10;  L 443.47 104.78&#10;  A 0.22 0.22 0.0 0 0 443.25 105.00" />
        <path stroke="#f68eaa"
            d="&#10;  M 552.94 105.20&#10;  L 553.04 134.14&#10;  A 0.39 0.39 0.0 0 0 553.43 134.53&#10;  L 571.41 134.46&#10;  A 15.41 13.85 -0.2 0 0 586.77 120.56&#10;  L 586.77 118.54&#10;  A 15.41 13.85 -0.2 0 0 571.31 104.74&#10;  L 553.33 104.81&#10;  A 0.39 0.39 0.0 0 0 552.94 105.20" />
    </g>
    <path fill="#f15f38"
        d="&#10;  M 197.55 46.01&#10;  Q 198.24 46.59 196.36 47.40&#10;  Q 193.47 48.41 190.56 49.61&#10;  Q 143.28 69.04 100.99 97.93&#10;  Q 100.70 97.74 100.63 97.49&#10;  Q 100.53 97.13 100.16 97.13&#10;  Q 80.33 97.11 60.50 97.12&#10;  Q 59.94 97.12 58.87 97.55&#10;  Q 58.69 97.62 58.53 97.53&#10;  Q 58.37 97.44 58.30 97.27&#10;  Q 58.20 97.02 58.40 96.83&#10;  Q 59.42 95.85 59.13 94.21&#10;  C 71.81 69.16 95.59 52.16 122.58 47.30&#10;  Q 129.74 46.02 142.50 46.01&#10;  Q 170.02 45.99 197.55 46.01&#10;  Z" />
    <path fill="#f0a636"
        d="&#10;  M 197.55 46.01&#10;  L 277.69 46.01&#10;  Q 278.28 46.83 279.79 46.89&#10;  Q 279.98 46.89 279.80 46.97&#10;  Q 279.76 46.99 279.72 47.02&#10;  Q 279.62 47.10 279.49 47.12&#10;  C 277.83 47.33 276.03 47.45 274.75 48.71&#10;  Q 266.88 56.41 259.65 63.76&#10;  Q 259.47 63.96 259.21 63.89&#10;  Q 259.01 63.84 258.82 63.87&#10;  Q 258.46 63.92 258.20 64.18&#10;  L 232.69 89.70&#10;  Q 232.50 89.88 232.24 89.88&#10;  L 231.80 89.88&#10;  Q 231.47 89.88 231.24 90.13&#10;  L 227.91 93.75&#10;  L 225.06 85.31&#10;  Q 224.87 84.75 224.28 84.75&#10;  L 206.76 84.75&#10;  Q 206.25 84.75 206.08 85.24&#10;  L 202.25 96.80&#10;  Q 185.64 98.11 170.12 104.60&#10;  L 164.31 85.56&#10;  Q 164.16 85.07 163.65 85.06&#10;  L 157.28 84.96&#10;  L 159.49 84.59&#10;  Q 160.00 84.50 160.37 84.14&#10;  L 179.34 65.15&#10;  Q 179.46 65.03 179.63 65.01&#10;  Q 179.81 64.98 180.00 65.02&#10;  Q 180.42 65.10 180.71 64.80&#10;  Q 187.96 57.53 195.14 50.34&#10;  Q 195.89 49.60 196.78 49.04&#10;  Q 196.93 48.94 197.01 48.78&#10;  Q 197.17 48.44 196.88 48.22&#10;  A 0.13 0.12 29.2 0 0 196.69 48.27&#10;  Q 196.61 48.42 196.48 48.44&#10;  Q 195.82 48.53 196.34 48.09&#10;  Q 196.69 47.80 196.36 47.40&#10;  Q 198.24 46.59 197.55 46.01&#10;  Z" />
    <path fill="#f09136"
        d="&#10;  M 277.69 46.01&#10;  L 330.71 46.01&#10;  Q 330.24 47.14 332.49 47.06&#10;  Q 332.90 47.05 332.53 47.22&#10;  Q 332.46 47.25 332.38 47.24&#10;  Q 332.02 47.19 331.68 47.30&#10;  Q 329.62 47.96 328.04 49.16&#10;  Q 325.59 51.00 323.33 53.27&#10;  Q 313.64 62.98 304.69 71.94&#10;  Q 304.54 72.09 304.33 72.09&#10;  Q 304.18 72.10 304.02 72.08&#10;  Q 303.58 72.03 303.27 72.34&#10;  L 289.75 85.53&#10;  Q 289.71 85.40 289.68 85.26&#10;  Q 289.62 85.00 289.35 85.00&#10;  L 267.51 85.00&#10;  Q 266.98 85.00 266.82 85.50&#10;  L 247.17 149.78&#10;  Q 246.68 151.38 246.19 149.78&#10;  Q 245.68 148.08 245.74 147.40&#10;  Q 247.29 140.65 246.61 131.38&#10;  Q 245.81 120.53 242.93 113.07&#10;  Q 239.79 104.90 230.63 102.07&#10;  L 227.91 93.75&#10;  L 231.24 90.13&#10;  Q 231.47 89.88 231.80 89.88&#10;  L 232.24 89.88&#10;  Q 232.50 89.88 232.69 89.70&#10;  L 258.20 64.18&#10;  Q 258.46 63.92 258.82 63.87&#10;  Q 259.01 63.84 259.21 63.89&#10;  Q 259.47 63.96 259.65 63.76&#10;  Q 266.88 56.41 274.75 48.71&#10;  C 276.03 47.45 277.83 47.33 279.49 47.12&#10;  Q 279.62 47.10 279.72 47.02&#10;  Q 279.76 46.99 279.80 46.97&#10;  Q 279.98 46.89 279.79 46.89&#10;  Q 278.28 46.83 277.69 46.01&#10;  Z" />
    <path fill="#f18337"
        d="&#10;  M 330.71 46.01&#10;  L 365.35 46.04&#10;  L 374.69 55.07&#10;  L 349.67 79.73&#10;  Q 349.51 79.88 349.28 79.88&#10;  L 348.78 79.88&#10;  A 0.68 0.68 0.0 0 0 348.29 80.09&#10;  L 345.16 83.22&#10;  Q 344.78 83.60 345.21 83.93&#10;  Q 345.56 84.20 346.14 84.03&#10;  Q 346.23 84.00 346.15 84.05&#10;  Q 346.11 84.07 346.13 84.11&#10;  Q 346.15 84.16 346.09 84.16&#10;  Q 342.98 84.30 338.01 84.37&#10;  Q 336.15 86.02 334.32 90.93&#10;  L 319.64 104.98&#10;  Q 319.51 105.10 319.35 105.10&#10;  Q 319.22 105.10 319.08 105.09&#10;  Q 318.56 105.06 318.19 105.43&#10;  L 292.68 130.94&#10;  Q 292.52 131.09 292.31 131.09&#10;  Q 292.15 131.09 291.98 131.08&#10;  Q 291.54 131.06 291.24 131.37&#10;  L 265.17 157.84&#10;  L 289.75 85.53&#10;  L 303.27 72.34&#10;  Q 303.58 72.03 304.02 72.08&#10;  Q 304.18 72.10 304.33 72.09&#10;  Q 304.54 72.09 304.69 71.94&#10;  Q 313.64 62.98 323.33 53.27&#10;  Q 325.59 51.00 328.04 49.16&#10;  Q 329.62 47.96 331.68 47.30&#10;  Q 332.02 47.19 332.38 47.24&#10;  Q 332.46 47.25 332.53 47.22&#10;  Q 332.90 47.05 332.49 47.06&#10;  Q 330.24 47.14 330.71 46.01&#10;  Z" />
    <path fill="#f15f38"
        d="&#10;  M 365.35 46.04&#10;  L 455.90 46.06&#10;  Q 474.59 67.65 490.86 91.20&#10;  Q 479.71 85.26 466.88 85.12&#10;  Q 444.37 84.87 421.79 85.04&#10;  Q 421.30 85.05 421.30 85.54&#10;  L 421.24 94.09&#10;  L 378.60 94.41&#10;  Q 378.32 94.41 378.22 94.66&#10;  Q 378.16 94.81 378.23 94.96&#10;  A 0.36 0.36 0.0 0 1 378.17 95.34&#10;  Q 377.71 95.85 376.93 95.49&#10;  C 379.77 87.65 381.80 80.16 381.78 71.75&#10;  Q 381.76 63.83 374.69 55.07&#10;  L 365.35 46.04&#10;  Z" />
    <path fill="#ee294f"
        d="&#10;  M 455.90 46.06&#10;  L 520.54 46.07&#10;  L 520.62 46.61&#10;  Q 520.70 47.11 521.21 47.11&#10;  L 536.18 47.23&#10;  Q 536.86 47.24 536.20 47.40&#10;  Q 535.49 47.57 534.59 47.58&#10;  Q 534.07 47.59 534.58 47.70&#10;  Q 534.73 47.73 534.86 47.66&#10;  A 0.15 0.15 0.0 0 1 535.09 47.79&#10;  L 534.91 52.47&#10;  Q 534.90 52.71 534.71 52.86&#10;  Q 534.61 52.95 534.49 53.00&#10;  Q 533.96 53.19 533.96 53.74&#10;  L 533.96 57.51&#10;  A 0.45 0.44 -9.1 0 1 533.65 57.93&#10;  L 533.34 58.02&#10;  Q 532.96 58.13 532.96 58.52&#10;  L 532.96 61.51&#10;  Q 532.96 61.83 532.65 61.93&#10;  L 532.34 62.02&#10;  Q 531.96 62.13 531.96 62.52&#10;  L 531.96 66.51&#10;  A 0.45 0.44 -9.1 0 1 531.65 66.93&#10;  L 531.41 67.00&#10;  A 0.63 0.62 82.0 0 0 530.96 67.60&#10;  L 530.96 71.51&#10;  A 0.45 0.44 -9.1 0 1 530.65 71.93&#10;  L 530.41 72.00&#10;  A 0.63 0.62 82.0 0 0 529.96 72.60&#10;  L 529.96 76.51&#10;  A 0.45 0.44 -9.1 0 1 529.65 76.93&#10;  L 529.34 77.02&#10;  Q 528.96 77.13 528.96 77.52&#10;  L 528.96 81.51&#10;  A 0.45 0.44 -9.1 0 1 528.65 81.93&#10;  L 528.41 82.00&#10;  A 0.63 0.62 82.0 0 0 527.96 82.60&#10;  L 527.96 86.51&#10;  A 0.45 0.44 -9.1 0 1 527.65 86.93&#10;  L 527.34 87.02&#10;  Q 526.96 87.13 526.96 87.52&#10;  L 526.96 91.51&#10;  A 0.45 0.44 -9.1 0 1 526.65 91.93&#10;  L 526.34 92.02&#10;  Q 525.96 92.13 525.96 92.52&#10;  L 525.96 96.48&#10;  A 0.43 0.42 78.4 0 1 525.71 96.87&#10;  Q 525.57 96.93 525.43 97.00&#10;  Q 524.96 97.22 524.96 97.74&#10;  L 524.96 100.51&#10;  Q 524.96 100.83 524.65 100.93&#10;  L 524.41 101.00&#10;  A 0.63 0.62 82.0 0 0 523.96 101.60&#10;  L 523.96 105.51&#10;  A 0.45 0.44 -9.1 0 1 523.65 105.93&#10;  L 523.34 106.02&#10;  Q 522.96 106.13 522.96 106.52&#10;  L 522.96 110.51&#10;  A 0.45 0.44 -9.1 0 1 522.65 110.93&#10;  L 522.41 111.00&#10;  A 0.63 0.62 82.0 0 0 521.96 111.60&#10;  L 521.96 115.51&#10;  A 0.45 0.44 -9.1 0 1 521.65 115.93&#10;  L 521.34 116.02&#10;  Q 520.96 116.13 520.96 116.52&#10;  L 520.96 120.40&#10;  A 0.59 0.59 0.0 0 1 520.55 120.96&#10;  L 520.29 121.04&#10;  Q 520.00 121.12 519.99 121.43&#10;  L 519.90 125.43&#10;  Q 519.89 126.04 519.31 125.83&#10;  Q 518.59 125.56 518.41 124.87&#10;  Q 518.31 124.42 517.92 124.16&#10;  Q 517.76 124.05 517.62 123.90&#10;  Q 517.26 123.53 516.94 123.94&#10;  L 516.67 124.29&#10;  L 501.82 105.78&#10;  Q 498.24 97.25 490.86 91.20&#10;  Q 474.59 67.65 455.90 46.06&#10;  Z" />
    <path fill="#ed1d54"
        d="&#10;  M 520.54 46.07&#10;  L 608.26 46.17&#10;  Q 612.06 59.88 613.53 74.06&#10;  C 615.03 84.78 620.31 94.83 627.47 103.14&#10;  Q 637.28 114.71 650.68 123.87&#10;  L 644.72 124.06&#10;  Q 644.25 124.08 644.25 124.55&#10;  L 644.25 143.25&#10;  Q 644.25 143.75 644.75 143.75&#10;  L 669.00 143.75&#10;  Q 669.50 143.75 669.50 144.25&#10;  L 669.50 168.75&#10;  A 0.25 0.25 0.0 0 0 669.75 169.00&#10;  L 689.47 169.00&#10;  A 0.29 0.28 -90.0 0 0 689.75 168.71&#10;  L 689.78 147.02&#10;  Q 716.30 159.82 743.37 170.59&#10;  Q 763.54 178.61 783.82 186.32&#10;  Q 785.70 187.03 787.85 187.89&#10;  Q 768.12 213.21 736.51 220.73&#10;  Q 733.41 221.46 726.03 222.10&#10;  Q 721.33 222.51 715.46 222.51&#10;  Q 504.71 222.59 293.96 222.56&#10;  Q 293.81 222.02 294.04 221.73&#10;  Q 304.52 208.93 313.60 196.95&#10;  Q 344.04 197.12 373.50 197.44&#10;  Q 373.79 197.44 374.18 197.28&#10;  Q 374.54 197.12 374.84 197.12&#10;  Q 389.05 197.13 403.26 197.12&#10;  Q 403.65 197.12 404.02 197.25&#10;  Q 404.26 197.34 404.50 197.34&#10;  Q 413.50 197.41 422.50 197.34&#10;  Q 422.74 197.34 422.97 197.26&#10;  Q 423.34 197.12 423.74 197.12&#10;  L 448.01 197.12&#10;  Q 448.41 197.12 448.78 197.26&#10;  Q 449.01 197.34 449.24 197.34&#10;  Q 461.09 197.41 473.69 197.34&#10;  C 474.20 197.34 474.27 197.14 474.80 197.14&#10;  Q 491.27 197.10 507.74 197.14&#10;  C 513.26 197.16 518.97 197.53 524.61 197.35&#10;  Q 530.78 197.14 536.44 197.13&#10;  Q 572.80 197.04 609.19 197.34&#10;  Q 609.34 197.34 609.47 197.26&#10;  Q 609.66 197.14 609.88 197.14&#10;  L 672.72 197.08&#10;  Q 673.21 197.08 672.87 196.73&#10;  Q 672.60 196.44 672.28 196.60&#10;  Q 672.05 196.72 672.24 196.54&#10;  Q 672.35 196.44 672.35 196.30&#10;  Q 672.35 196.01 672.07 195.93&#10;  Q 668.05 194.79 663.75 193.76&#10;  Q 638.03 187.58 612.05 183.05&#10;  Q 599.90 180.94 592.56 178.77&#10;  Q 572.27 172.79 554.76 160.49&#10;  Q 554.30 160.17 553.01 160.46&#10;  L 553.09 154.58&#10;  Q 553.10 153.98 553.70 153.99&#10;  C 563.48 154.03 574.60 154.80 583.74 152.10&#10;  Q 606.38 145.40 608.76 123.37&#10;  C 610.75 104.94 600.10 89.28 581.40 86.05&#10;  Q 575.84 85.09 569.50 85.05&#10;  Q 550.48 84.93 531.34 84.98&#10;  A 0.36 0.36 0.0 0 0 530.98 85.34&#10;  L 530.95 140.16&#10;  L 516.67 124.29&#10;  L 516.94 123.94&#10;  Q 517.26 123.53 517.62 123.90&#10;  Q 517.76 124.05 517.92 124.16&#10;  Q 518.31 124.42 518.41 124.87&#10;  Q 518.59 125.56 519.31 125.83&#10;  Q 519.89 126.04 519.90 125.43&#10;  L 519.99 121.43&#10;  Q 520.00 121.12 520.29 121.04&#10;  L 520.55 120.96&#10;  A 0.59 0.59 0.0 0 0 520.96 120.40&#10;  L 520.96 116.52&#10;  Q 520.96 116.13 521.34 116.02&#10;  L 521.65 115.93&#10;  A 0.45 0.44 -9.1 0 0 521.96 115.51&#10;  L 521.96 111.60&#10;  A 0.63 0.62 82.0 0 1 522.41 111.00&#10;  L 522.65 110.93&#10;  A 0.45 0.44 -9.1 0 0 522.96 110.51&#10;  L 522.96 106.52&#10;  Q 522.96 106.13 523.34 106.02&#10;  L 523.65 105.93&#10;  A 0.45 0.44 -9.1 0 0 523.96 105.51&#10;  L 523.96 101.60&#10;  A 0.63 0.62 82.0 0 1 524.41 101.00&#10;  L 524.65 100.93&#10;  Q 524.96 100.83 524.96 100.51&#10;  L 524.96 97.74&#10;  Q 524.96 97.22 525.43 97.00&#10;  Q 525.57 96.93 525.71 96.87&#10;  A 0.43 0.42 78.4 0 0 525.96 96.48&#10;  L 525.96 92.52&#10;  Q 525.96 92.13 526.34 92.02&#10;  L 526.65 91.93&#10;  A 0.45 0.44 -9.1 0 0 526.96 91.51&#10;  L 526.96 87.52&#10;  Q 526.96 87.13 527.34 87.02&#10;  L 527.65 86.93&#10;  A 0.45 0.44 -9.1 0 0 527.96 86.51&#10;  L 527.96 82.60&#10;  A 0.63 0.62 82.0 0 1 528.41 82.00&#10;  L 528.65 81.93&#10;  A 0.45 0.44 -9.1 0 0 528.96 81.51&#10;  L 528.96 77.52&#10;  Q 528.96 77.13 529.34 77.02&#10;  L 529.65 76.93&#10;  A 0.45 0.44 -9.1 0 0 529.96 76.51&#10;  L 529.96 72.60&#10;  A 0.63 0.62 82.0 0 1 530.41 72.00&#10;  L 530.65 71.93&#10;  A 0.45 0.44 -9.1 0 0 530.96 71.51&#10;  L 530.96 67.60&#10;  A 0.63 0.62 82.0 0 1 531.41 67.00&#10;  L 531.65 66.93&#10;  A 0.45 0.44 -9.1 0 0 531.96 66.51&#10;  L 531.96 62.52&#10;  Q 531.96 62.13 532.34 62.02&#10;  L 532.65 61.93&#10;  Q 532.96 61.83 532.96 61.51&#10;  L 532.96 58.52&#10;  Q 532.96 58.13 533.34 58.02&#10;  L 533.65 57.93&#10;  A 0.45 0.44 -9.1 0 0 533.96 57.51&#10;  L 533.96 53.74&#10;  Q 533.96 53.19 534.49 53.00&#10;  Q 534.61 52.95 534.71 52.86&#10;  Q 534.90 52.71 534.91 52.47&#10;  L 535.09 47.79&#10;  A 0.15 0.15 0.0 0 0 534.86 47.66&#10;  Q 534.73 47.73 534.58 47.70&#10;  Q 534.07 47.59 534.59 47.58&#10;  Q 535.49 47.57 536.20 47.40&#10;  Q 536.86 47.24 536.18 47.23&#10;  L 521.21 47.11&#10;  Q 520.70 47.11 520.62 46.61&#10;  L 520.54 46.07&#10;  Z" />
    <path fill="#ee524a"
        d="&#10;  M 608.26 46.17&#10;  Q 659.48 46.30 710.75 46.26&#10;  Q 724.31 46.25 730.71 47.18&#10;  Q 759.25 51.32 780.31 72.18&#10;  Q 779.76 72.34 779.85 72.51&#10;  Q 779.96 72.71 780.18 72.76&#10;  A 0.49 0.48 -79.6 0 1 780.55 73.30&#10;  Q 780.52 73.53 780.35 73.68&#10;  A 0.14 0.14 0.0 0 1 780.15 73.65&#10;  Q 780.06 73.54 780.04 73.40&#10;  Q 779.97 72.77 779.81 73.38&#10;  Q 779.78 73.49 779.78 73.60&#10;  Q 779.77 73.80 779.57 73.76&#10;  Q 779.51 73.75 779.51 73.69&#10;  Q 779.49 73.35 779.18 73.47&#10;  Q 776.65 74.34 774.75 74.32&#10;  Q 768.26 74.24 762.22 74.26&#10;  Q 698.69 74.45 631.26 74.21&#10;  Q 626.42 74.19 622.16 74.33&#10;  Q 620.56 74.38 617.86 74.09&#10;  Q 615.73 73.86 613.53 74.06&#10;  Q 612.06 59.88 608.26 46.17&#10;  Z" />
    <path fill="#f0af36"
        d="&#10;  M 196.36 47.40&#10;  Q 196.69 47.80 196.34 48.09&#10;  Q 195.82 48.53 196.48 48.44&#10;  Q 196.61 48.42 196.69 48.27&#10;  A 0.13 0.12 29.2 0 1 196.88 48.22&#10;  Q 197.17 48.44 197.01 48.78&#10;  Q 196.93 48.94 196.78 49.04&#10;  Q 195.89 49.60 195.14 50.34&#10;  Q 187.96 57.53 180.71 64.80&#10;  Q 180.42 65.10 180.00 65.02&#10;  Q 179.81 64.98 179.63 65.01&#10;  Q 179.46 65.03 179.34 65.15&#10;  L 160.37 84.14&#10;  Q 160.00 84.50 159.49 84.59&#10;  L 157.28 84.96&#10;  L 141.06 84.99&#10;  A 0.26 0.26 0.0 0 0 140.81 85.34&#10;  L 145.68 99.71&#10;  L 144.28 99.67&#10;  Q 143.84 99.65 143.52 99.97&#10;  L 127.65 115.86&#10;  Q 127.53 115.97 127.37 115.99&#10;  Q 127.21 116.01 127.04 115.99&#10;  Q 126.57 115.93 126.23 116.27&#10;  L 100.64 141.86&#10;  Q 100.52 141.98 100.35 142.00&#10;  Q 100.20 142.01 100.04 141.99&#10;  Q 99.57 141.93 99.23 142.27&#10;  L 73.65 167.85&#10;  Q 73.47 168.03 73.22 168.01&#10;  Q 73.05 167.99 72.89 167.99&#10;  Q 72.50 167.98 72.22 168.26&#10;  Q 67.54 172.97 62.77 177.74&#10;  Q 62.25 178.26 62.38 177.53&#10;  Q 62.40 177.44 62.37 177.35&#10;  Q 62.21 176.89 61.65 176.76&#10;  Q 60.91 176.59 60.10 176.22&#10;  Q 52.49 162.25 50.23 146.25&#10;  Q 49.80 143.24 50.10 140.68&#10;  Q 57.71 132.72 60.82 129.82&#10;  Q 79.64 112.25 100.99 97.93&#10;  Q 143.28 69.04 190.56 49.61&#10;  Q 193.47 48.41 196.36 47.40&#10;  Z" />
    <path fill="#f17937"
        d="&#10;  M 374.69 55.07&#10;  Q 381.76 63.83 381.78 71.75&#10;  C 381.80 80.16 379.77 87.65 376.93 95.49&#10;  Q 373.99 104.14 369.19 112.22&#10;  L 357.59 85.06&#10;  Q 357.39 84.60 356.90 84.60&#10;  L 338.01 84.37&#10;  Q 342.98 84.30 346.09 84.16&#10;  Q 346.15 84.16 346.13 84.11&#10;  Q 346.11 84.07 346.15 84.05&#10;  Q 346.23 84.00 346.14 84.03&#10;  Q 345.56 84.20 345.21 83.93&#10;  Q 344.78 83.60 345.16 83.22&#10;  L 348.29 80.09&#10;  A 0.68 0.68 0.0 0 1 348.78 79.88&#10;  L 349.28 79.88&#10;  Q 349.51 79.88 349.67 79.73&#10;  L 374.69 55.07&#10;  Z" />
    <path fill="#ed464d"
        d="&#10;  M 780.31 72.18&#10;  Q 792.83 84.55 799.89 101.99&#10;  Q 784.03 102.11 768.75 102.28&#10;  Q 731.63 102.68 694.52 102.12&#10;  C 693.37 102.11 692.43 101.53 691.36 102.16&#10;  Q 691.22 102.24 691.16 102.10&#10;  Q 691.09 101.97 691.00 101.86&#10;  Q 690.52 101.25 690.58 102.02&#10;  Q 690.59 102.24 690.40 102.37&#10;  Q 689.98 102.66 689.93 102.15&#10;  L 689.81 100.79&#10;  L 689.69 99.57&#10;  Q 689.64 99.02 689.08 99.02&#10;  Q 679.40 98.98 669.75 99.00&#10;  Q 669.31 99.00 669.46 99.72&#10;  Q 668.91 99.82 668.61 101.26&#10;  Q 668.51 101.77 668.00 101.69&#10;  Q 667.16 101.57 666.35 102.00&#10;  Q 665.76 102.31 665.09 102.32&#10;  Q 658.59 102.49 651.51 102.28&#10;  C 648.47 102.18 645.70 102.41 642.50 102.23&#10;  Q 636.63 101.90 629.03 102.43&#10;  Q 628.76 102.45 628.64 102.70&#10;  Q 628.58 102.84 628.50 102.96&#10;  Q 628.33 103.21 628.04 103.18&#10;  L 627.47 103.14&#10;  C 620.31 94.83 615.03 84.78 613.53 74.06&#10;  Q 615.73 73.86 617.86 74.09&#10;  Q 620.56 74.38 622.16 74.33&#10;  Q 626.42 74.19 631.26 74.21&#10;  Q 698.69 74.45 762.22 74.26&#10;  Q 768.26 74.24 774.75 74.32&#10;  Q 776.65 74.34 779.18 73.47&#10;  Q 779.49 73.35 779.51 73.69&#10;  Q 779.51 73.75 779.57 73.76&#10;  Q 779.77 73.80 779.78 73.60&#10;  Q 779.78 73.49 779.81 73.38&#10;  Q 779.97 72.77 780.04 73.40&#10;  Q 780.06 73.54 780.15 73.65&#10;  A 0.14 0.14 0.0 0 0 780.35 73.68&#10;  Q 780.52 73.53 780.55 73.30&#10;  A 0.49 0.48 -79.6 0 0 780.18 72.76&#10;  Q 779.96 72.71 779.85 72.51&#10;  Q 779.76 72.34 780.31 72.18&#10;  Z" />
    <path fill="#ffffff"
        d="&#10;  M 338.01 84.37&#10;  L 356.90 84.60&#10;  Q 357.39 84.60 357.59 85.06&#10;  L 369.19 112.22&#10;  L 381.13 140.31&#10;  L 393.47 169.26&#10;  L 399.25 182.80&#10;  A 0.32 0.32 0.0 0 1 398.96 183.25&#10;  L 376.79 183.25&#10;  A 0.46 0.45 78.2 0 1 376.37 182.97&#10;  L 367.85 162.04&#10;  Q 367.66 161.57 367.15 161.57&#10;  L 339.41 161.56&#10;  L 326.85 161.57&#10;  Q 326.33 161.57 326.14 162.05&#10;  L 317.68 182.77&#10;  Q 317.49 183.25 316.97 183.25&#10;  L 295.55 183.25&#10;  A 0.28 0.28 0.0 0 1 295.29 182.86&#10;  L 300.21 170.99&#10;  L 334.32 90.93&#10;  Q 336.15 86.02 338.01 84.37&#10;  Z&#10;  M 352.49 141.97&#10;  L 359.21 141.98&#10;  Q 359.80 141.98 359.57 141.44&#10;  L 356.81 134.93&#10;  L 347.22 111.49&#10;  A 0.26 0.25 44.7 0 0 346.75 111.49&#10;  L 334.40 141.60&#10;  A 0.26 0.26 0.0 0 0 334.64 141.96&#10;  L 352.49 141.97&#10;  Z" />
    <path fill="#ffffff"
        d="&#10;  M 227.91 93.75&#10;  L 230.63 102.07&#10;  L 245.74 147.40&#10;  Q 245.68 148.08 246.19 149.78&#10;  Q 246.68 151.38 247.17 149.78&#10;  L 266.82 85.50&#10;  Q 266.98 85.00 267.51 85.00&#10;  L 289.35 85.00&#10;  Q 289.62 85.00 289.68 85.26&#10;  Q 289.71 85.40 289.75 85.53&#10;  L 265.17 157.84&#10;  L 256.54 183.44&#10;  A 0.83 0.82 -80.6 0 1 255.76 184.00&#10;  L 242.00 184.04&#10;  L 237.80 183.97&#10;  A 0.89 0.88 -8.9 0 1 236.98 183.38&#10;  L 230.08 163.26&#10;  L 215.66 121.44&#10;  Q 215.27 120.31 214.88 121.45&#10;  L 193.49 183.46&#10;  Q 193.31 183.98 192.75 183.98&#10;  L 174.75 184.01&#10;  Q 174.07 183.77 173.83 183.00&#10;  Q 170.91 173.83 164.79 156.18&#10;  L 156.01 130.29&#10;  L 150.93 115.35&#10;  L 145.68 99.71&#10;  L 140.81 85.34&#10;  A 0.26 0.26 0.0 0 1 141.06 84.99&#10;  L 157.28 84.96&#10;  L 163.65 85.06&#10;  Q 164.16 85.07 164.31 85.56&#10;  L 170.12 104.60&#10;  L 184.08 150.18&#10;  Q 184.35 151.06 184.63 150.19&#10;  L 202.25 96.80&#10;  L 206.08 85.24&#10;  Q 206.25 84.75 206.76 84.75&#10;  L 224.28 84.75&#10;  Q 224.87 84.75 225.06 85.31&#10;  L 227.91 93.75&#10;  Z" />
    <path fill="#ffffff"
        d="&#10;  M 490.86 91.20&#10;  Q 498.24 97.25 501.82 105.78&#10;  Q 503.80 114.24 503.11 122.19&#10;  C 502.03 134.59 494.43 143.55 483.13 148.04&#10;  Q 482.60 148.26 482.91 148.74&#10;  L 485.16 152.22&#10;  L 498.12 171.18&#10;  L 505.94 182.78&#10;  Q 506.26 183.25 505.70 183.25&#10;  L 481.30 183.25&#10;  Q 480.81 183.25 480.53 182.85&#10;  L 475.02 174.70&#10;  L 460.29 152.67&#10;  A 1.50 1.48 -16.4 0 0 459.04 152.00&#10;  L 443.79 152.00&#10;  Q 443.30 152.00 443.29 152.50&#10;  L 443.28 175.97&#10;  L 443.19 182.64&#10;  Q 443.19 183.25 442.57 183.25&#10;  L 421.79 183.25&#10;  Q 421.30 183.25 421.30 182.75&#10;  L 421.24 169.29&#10;  L 421.24 138.92&#10;  L 421.24 94.09&#10;  L 421.30 85.54&#10;  Q 421.30 85.05 421.79 85.04&#10;  Q 444.37 84.87 466.88 85.12&#10;  Q 479.71 85.26 490.86 91.20&#10;  Z&#10;  M 443.25 105.00&#10;  L 443.25 132.52&#10;  A 0.22 0.22 0.0 0 0 443.47 132.74&#10;  L 466.57 132.74&#10;  A 14.68 13.01 0.0 0 0 481.25 119.73&#10;  L 481.25 117.79&#10;  A 14.68 13.01 -0.0 0 0 466.57 104.78&#10;  L 443.47 104.78&#10;  A 0.22 0.22 0.0 0 0 443.25 105.00&#10;  Z" />
    <path fill="#ffffff"
        d="&#10;  M 553.01 160.46&#10;  L 552.96 182.74&#10;  Q 552.96 183.25 552.45 183.25&#10;  L 531.70 183.25&#10;  Q 531.09 183.25 531.08 182.64&#10;  L 530.98 170.93&#10;  L 530.98 150.96&#10;  L 530.95 140.16&#10;  L 530.98 85.34&#10;  A 0.36 0.36 0.0 0 1 531.34 84.98&#10;  Q 550.48 84.93 569.50 85.05&#10;  Q 575.84 85.09 581.40 86.05&#10;  C 600.10 89.28 610.75 104.94 608.76 123.37&#10;  Q 606.38 145.40 583.74 152.10&#10;  C 574.60 154.80 563.48 154.03 553.70 153.99&#10;  Q 553.10 153.98 553.09 154.58&#10;  L 553.01 160.46&#10;  Z&#10;  M 552.94 105.20&#10;  L 553.04 134.14&#10;  A 0.39 0.39 0.0 0 0 553.43 134.53&#10;  L 571.41 134.46&#10;  A 15.41 13.85 -0.2 0 0 586.77 120.56&#10;  L 586.77 118.54&#10;  A 15.41 13.85 -0.2 0 0 571.31 104.74&#10;  L 553.33 104.81&#10;  A 0.39 0.39 0.0 0 0 552.94 105.20&#10;  Z" />
    <path fill="#f17937"
        d="&#10;  M 334.32 90.93&#10;  L 300.21 170.99&#10;  Q 291.12 178.65 283.65 186.75&#10;  Q 283.53 186.88 283.35 186.88&#10;  Q 283.21 186.88 283.07 186.87&#10;  Q 282.55 186.83 282.18 187.21&#10;  L 256.68 212.70&#10;  Q 256.47 212.92 256.16 212.89&#10;  Q 256.00 212.87 255.84 212.87&#10;  Q 255.51 212.87 255.27 213.11&#10;  L 247.28 221.11&#10;  Q 246.90 221.50 247.38 221.75&#10;  Q 247.97 222.07 248.82 221.78&#10;  Q 248.87 221.76 248.93 221.77&#10;  Q 249.00 221.79 248.95 221.84&#10;  Q 248.91 221.88 248.85 221.88&#10;  Q 241.29 222.38 235.50 222.10&#10;  Q 233.98 222.03 233.70 222.65&#10;  Q 233.19 222.84 232.41 222.70&#10;  L 233.74 222.08&#10;  Q 234.21 221.87 234.33 221.36&#10;  Q 238.87 202.98 242.00 184.04&#10;  L 255.76 184.00&#10;  A 0.83 0.82 -80.6 0 0 256.54 183.44&#10;  L 265.17 157.84&#10;  L 291.24 131.37&#10;  Q 291.54 131.06 291.98 131.08&#10;  Q 292.15 131.09 292.31 131.09&#10;  Q 292.52 131.09 292.68 130.94&#10;  L 318.19 105.43&#10;  Q 318.56 105.06 319.08 105.09&#10;  Q 319.22 105.10 319.35 105.10&#10;  Q 319.51 105.10 319.64 104.98&#10;  L 334.32 90.93&#10;  Z" />
    <path fill="#ee524a"
        d="&#10;  M 421.24 94.09&#10;  L 421.24 138.92&#10;  L 382.01 139.00&#10;  Q 381.51 139.00 381.37 139.48&#10;  L 381.13 140.31&#10;  L 369.19 112.22&#10;  Q 373.99 104.14 376.93 95.49&#10;  Q 377.71 95.85 378.17 95.34&#10;  A 0.36 0.36 0.0 0 0 378.23 94.96&#10;  Q 378.16 94.81 378.22 94.66&#10;  Q 378.32 94.41 378.60 94.41&#10;  L 421.24 94.09&#10;  Z" />
    <path fill="#ee524a"
        d="&#10;  M 59.13 94.21&#10;  Q 59.42 95.85 58.40 96.83&#10;  Q 58.20 97.02 58.30 97.27&#10;  Q 58.37 97.44 58.53 97.53&#10;  Q 58.69 97.62 58.87 97.55&#10;  Q 59.94 97.12 60.50 97.12&#10;  Q 80.33 97.11 100.16 97.13&#10;  Q 100.53 97.13 100.63 97.49&#10;  Q 100.70 97.74 100.99 97.93&#10;  Q 79.64 112.25 60.82 129.82&#10;  Q 57.71 132.72 50.10 140.68&#10;  Q 49.09 136.26 49.52 132.00&#10;  C 49.91 128.08 50.00 123.86 50.57 120.32&#10;  Q 52.78 106.59 59.13 94.21&#10;  Z" />
    <path fill="#f18337"
        d="&#10;  M 202.25 96.80&#10;  L 184.63 150.19&#10;  Q 184.35 151.06 184.08 150.18&#10;  L 170.12 104.60&#10;  Q 185.64 98.11 202.25 96.80&#10;  Z" />
    <path fill="#ffffff"
        d="&#10;  M 689.81 100.79&#10;  L 689.81 123.37&#10;  Q 689.81 123.99 690.43 123.99&#10;  L 714.25 123.99&#10;  A 0.76 0.76 0.0 0 1 715.01 124.75&#10;  L 715.00 143.50&#10;  A 0.25 0.25 0.0 0 1 714.75 143.75&#10;  L 690.27 143.75&#10;  Q 689.79 143.75 689.79 144.24&#10;  L 689.78 147.02&#10;  L 689.75 168.71&#10;  A 0.29 0.28 90.0 0 1 689.47 169.00&#10;  L 669.75 169.00&#10;  A 0.25 0.25 0.0 0 1 669.50 168.75&#10;  L 669.50 144.25&#10;  Q 669.50 143.75 669.00 143.75&#10;  L 644.75 143.75&#10;  Q 644.25 143.75 644.25 143.25&#10;  L 644.25 124.55&#10;  Q 644.25 124.08 644.72 124.06&#10;  L 650.68 123.87&#10;  L 669.20 123.97&#10;  A 0.27 0.27 0.0 0 0 669.47 123.70&#10;  L 669.46 99.72&#10;  Q 669.31 99.00 669.75 99.00&#10;  Q 679.40 98.98 689.08 99.02&#10;  Q 689.64 99.02 689.69 99.57&#10;  L 689.81 100.79&#10;  Z" />
    <path fill="#f0a636"
        d="&#10;  M 145.68 99.71&#10;  L 150.93 115.35&#10;  Q 123.57 135.40 106.77 164.24&#10;  C 102.19 172.09 98.69 180.29 96.76 188.75&#10;  Q 94.36 199.20 95.58 211.83&#10;  Q 72.36 198.81 60.10 176.22&#10;  Q 60.91 176.59 61.65 176.76&#10;  Q 62.21 176.89 62.37 177.35&#10;  Q 62.40 177.44 62.38 177.53&#10;  Q 62.25 178.26 62.77 177.74&#10;  Q 67.54 172.97 72.22 168.26&#10;  Q 72.50 167.98 72.89 167.99&#10;  Q 73.05 167.99 73.22 168.01&#10;  Q 73.47 168.03 73.65 167.85&#10;  L 99.23 142.27&#10;  Q 99.57 141.93 100.04 141.99&#10;  Q 100.20 142.01 100.35 142.00&#10;  Q 100.52 141.98 100.64 141.86&#10;  L 126.23 116.27&#10;  Q 126.57 115.93 127.04 115.99&#10;  Q 127.21 116.01 127.37 115.99&#10;  Q 127.53 115.97 127.65 115.86&#10;  L 143.52 99.97&#10;  Q 143.84 99.65 144.28 99.67&#10;  L 145.68 99.71&#10;  Z" />
    <path fill="#ee294f"
        d="&#10;  M 669.46 99.72&#10;  L 669.47 123.70&#10;  A 0.27 0.27 0.0 0 1 669.20 123.97&#10;  L 650.68 123.87&#10;  Q 637.28 114.71 627.47 103.14&#10;  L 628.04 103.18&#10;  Q 628.33 103.21 628.50 102.96&#10;  Q 628.58 102.84 628.64 102.70&#10;  Q 628.76 102.45 629.03 102.43&#10;  Q 636.63 101.90 642.50 102.23&#10;  C 645.70 102.41 648.47 102.18 651.51 102.28&#10;  Q 658.59 102.49 665.09 102.32&#10;  Q 665.76 102.31 666.35 102.00&#10;  Q 667.16 101.57 668.00 101.69&#10;  Q 668.51 101.77 668.61 101.26&#10;  Q 668.91 99.82 669.46 99.72&#10;  Z" />
    <path fill="#ee294f"
        d="&#10;  M 689.81 100.79&#10;  L 689.93 102.15&#10;  Q 689.98 102.66 690.40 102.37&#10;  Q 690.59 102.24 690.58 102.02&#10;  Q 690.52 101.25 691.00 101.86&#10;  Q 691.09 101.97 691.16 102.10&#10;  Q 691.22 102.24 691.36 102.16&#10;  C 692.43 101.53 693.37 102.11 694.52 102.12&#10;  Q 731.63 102.68 768.75 102.28&#10;  Q 784.03 102.11 799.89 101.99&#10;  Q 806.38 118.02 806.00 136.00&#10;  Q 805.39 164.55 787.85 187.89&#10;  Q 785.70 187.03 783.82 186.32&#10;  Q 763.54 178.61 743.37 170.59&#10;  Q 716.30 159.82 689.78 147.02&#10;  L 689.79 144.24&#10;  Q 689.79 143.75 690.27 143.75&#10;  L 714.75 143.75&#10;  A 0.25 0.25 0.0 0 0 715.00 143.50&#10;  L 715.01 124.75&#10;  A 0.76 0.76 0.0 0 0 714.25 123.99&#10;  L 690.43 123.99&#10;  Q 689.81 123.99 689.81 123.37&#10;  L 689.81 100.79&#10;  Z" />
    <path fill="#f0a636"
        d="&#10;  M 230.63 102.07&#10;  Q 239.79 104.90 242.93 113.07&#10;  Q 245.81 120.53 246.61 131.38&#10;  Q 247.29 140.65 245.74 147.40&#10;  L 230.63 102.07&#10;  Z" />
    <path fill="#ee524a"
        d="&#10;  M 443.25 105.00&#10;  A 0.22 0.22 0.0 0 1 443.47 104.78&#10;  L 466.57 104.78&#10;  A 14.68 13.01 0.0 0 1 481.25 117.79&#10;  L 481.25 119.73&#10;  A 14.68 13.01 0.0 0 1 466.57 132.74&#10;  L 443.47 132.74&#10;  A 0.22 0.22 0.0 0 1 443.25 132.52&#10;  L 443.25 105.00&#10;  Z" />
    <path fill="#ed1d54"
        d="&#10;  M 552.94 105.20&#10;  A 0.39 0.39 0.0 0 1 553.33 104.81&#10;  L 571.31 104.74&#10;  A 15.41 13.85 -0.2 0 1 586.77 118.54&#10;  L 586.77 120.56&#10;  A 15.41 13.85 -0.2 0 1 571.41 134.46&#10;  L 553.43 134.53&#10;  A 0.39 0.39 0.0 0 1 553.04 134.14&#10;  L 552.94 105.20&#10;  Z" />
    <path fill="#ee524a"
        d="&#10;  M 501.82 105.78&#10;  L 516.67 124.29&#10;  L 530.95 140.16&#10;  L 530.98 150.96&#10;  Q 530.51 150.93 530.63 151.80&#10;  Q 530.65 151.63 530.47 151.53&#10;  Q 530.13 151.35 530.13 151.73&#10;  L 530.13 152.43&#10;  A 0.05 0.04 50.0 0 0 530.22 152.44&#10;  Q 530.33 151.72 529.87 151.18&#10;  A 0.87 0.85 69.1 0 0 529.22 150.88&#10;  Q 509.99 150.88 490.44 150.87&#10;  C 489.25 150.86 488.21 151.21 487.09 151.51&#10;  Q 486.46 151.68 486.10 151.14&#10;  Q 485.97 150.95 485.75 150.85&#10;  Q 485.01 150.52 485.08 151.32&#10;  L 485.16 152.22&#10;  L 482.91 148.74&#10;  Q 482.60 148.26 483.13 148.04&#10;  C 494.43 143.55 502.03 134.59 503.11 122.19&#10;  Q 503.80 114.24 501.82 105.78&#10;  Z" />
    <path fill="#f16d37"
        d="&#10;  M 356.81 134.93&#10;  L 352.49 141.97&#10;  L 334.64 141.96&#10;  A 0.26 0.26 0.0 0 1 334.40 141.60&#10;  L 346.75 111.49&#10;  A 0.26 0.25 44.7 0 1 347.22 111.49&#10;  L 356.81 134.93&#10;  Z" />
    <path fill="#f16d37"
        d="&#10;  M 150.93 115.35&#10;  L 156.01 130.29&#10;  Q 155.32 130.53 154.39 131.72&#10;  Q 153.98 132.23 153.92 132.89&#10;  Q 153.86 133.53 153.92 134.19&#10;  Q 153.97 134.70 153.51 134.92&#10;  Q 152.61 135.34 152.92 136.31&#10;  A 0.42 0.41 73.1 0 1 152.65 136.83&#10;  Q 151.74 137.12 151.90 138.11&#10;  A 0.88 0.87 -14.8 0 1 151.34 139.06&#10;  Q 150.67 139.32 150.90 140.02&#10;  Q 151.09 140.61 150.53 140.89&#10;  Q 149.62 141.34 149.91 142.35&#10;  Q 150.01 142.71 149.66 142.82&#10;  Q 148.70 143.13 148.92 144.13&#10;  A 0.70 0.70 0.0 0 1 148.52 144.92&#10;  Q 147.61 145.32 147.91 146.32&#10;  Q 148.02 146.70 147.65 146.82&#10;  Q 146.72 147.13 146.90 148.12&#10;  A 0.80 0.79 -11.9 0 1 146.29 149.05&#10;  Q 145.80 149.17 145.93 149.65&#10;  Q 146.13 150.42 145.49 150.89&#10;  Q 144.59 151.57 144.90 152.71&#10;  Q 145.12 153.55 144.37 153.98&#10;  Q 143.69 154.38 143.90 155.17&#10;  A 0.63 0.63 0.0 0 1 143.53 155.91&#10;  Q 142.60 156.32 142.92 157.31&#10;  A 0.42 0.42 0.0 0 1 142.64 157.84&#10;  Q 141.70 158.12 141.92 159.10&#10;  A 0.75 0.73 72.2 0 1 141.50 159.94&#10;  Q 140.63 160.32 140.90 161.25&#10;  Q 141.04 161.72 140.57 161.87&#10;  Q 139.93 162.08 139.90 162.68&#10;  Q 139.88 163.00 139.74 163.29&#10;  L 119.94 205.22&#10;  Q 119.72 205.68 119.36 206.02&#10;  Q 118.85 206.51 118.93 207.20&#10;  Q 118.97 207.54 118.69 207.73&#10;  Q 117.45 208.56 117.93 210.23&#10;  A 0.52 0.52 0.0 0 1 117.58 210.87&#10;  Q 116.73 211.14 116.91 212.03&#10;  Q 117.05 212.69 116.43 212.98&#10;  Q 115.68 213.32 115.90 214.12&#10;  A 0.70 0.70 0.0 0 1 115.48 214.96&#10;  Q 114.70 215.27 114.88 216.07&#10;  Q 115.02 216.68 114.45 216.95&#10;  Q 112.72 217.80 113.71 219.35&#10;  Q 103.59 216.44 95.58 211.83&#10;  Q 94.36 199.20 96.76 188.75&#10;  C 98.69 180.29 102.19 172.09 106.77 164.24&#10;  Q 123.57 135.40 150.93 115.35&#10;  Z" />
    <path fill="#f0a636"
        d="&#10;  M 230.08 163.26&#10;  Q 229.16 163.57 228.93 163.10&#10;  Q 228.82 162.88 228.58 162.94&#10;  Q 228.30 163.00 228.25 163.23&#10;  Q 227.65 165.84 227.89 169.18&#10;  Q 227.94 169.80 227.38 170.09&#10;  Q 226.81 170.38 227.00 171.01&#10;  Q 227.16 171.57 226.66 171.89&#10;  Q 225.62 172.53 226.03 173.79&#10;  A 1.01 1.01 0.0 0 1 225.51 175.00&#10;  Q 224.80 175.35 224.98 176.16&#10;  Q 225.12 176.75 224.56 176.99&#10;  Q 223.77 177.31 223.98 178.16&#10;  Q 224.13 178.75 223.57 178.98&#10;  Q 222.77 179.31 222.98 180.18&#10;  Q 223.12 180.75 222.57 180.98&#10;  Q 221.77 181.31 221.98 182.19&#10;  Q 222.12 182.74 221.59 182.96&#10;  Q 220.72 183.33 221.01 184.31&#10;  A 0.52 0.52 0.0 0 1 220.67 184.94&#10;  L 220.37 185.04&#10;  Q 219.84 185.22 219.99 185.75&#10;  Q 220.27 186.67 219.44 187.01&#10;  Q 218.87 187.25 219.02 187.86&#10;  Q 219.22 188.68 218.47 189.00&#10;  Q 217.87 189.25 218.02 189.88&#10;  Q 218.19 190.60 217.58 190.94&#10;  Q 217.00 191.27 217.00 191.94&#10;  L 217.00 193.06&#10;  Q 217.00 193.73 216.42 194.05&#10;  Q 215.81 194.40 215.98 195.13&#10;  Q 216.13 195.75 215.54 196.00&#10;  Q 214.78 196.32 214.98 197.15&#10;  Q 215.13 197.75 214.56 197.98&#10;  Q 213.77 198.31 213.98 199.18&#10;  Q 214.12 199.75 213.58 199.97&#10;  Q 212.77 200.31 212.98 201.18&#10;  Q 213.12 201.74 212.59 201.97&#10;  Q 211.77 202.31 211.98 203.22&#10;  Q 212.11 203.75 211.60 203.96&#10;  Q 210.76 204.30 211.01 205.31&#10;  A 0.50 0.49 76.5 0 1 210.64 205.92&#10;  Q 210.44 205.97 210.27 206.09&#10;  Q 209.88 206.36 210.01 206.82&#10;  Q 210.24 207.67 209.47 207.99&#10;  Q 208.87 208.25 209.02 208.89&#10;  Q 209.18 209.60 208.58 209.94&#10;  Q 208.00 210.27 208.00 210.94&#10;  L 208.00 212.23&#10;  Q 208.00 212.77 207.52 213.00&#10;  Q 206.69 213.40 207.05 214.40&#10;  A 0.40 0.40 0.0 0 1 206.71 214.93&#10;  Q 206.56 214.94 206.42 215.01&#10;  Q 205.88 215.27 206.02 215.85&#10;  Q 206.22 216.68 205.46 217.00&#10;  Q 204.86 217.25 205.02 217.88&#10;  Q 205.21 218.67 204.50 218.98&#10;  Q 203.87 219.25 204.00 219.92&#10;  Q 204.19 220.84 203.30 221.10&#10;  A 0.32 0.32 0.0 0 0 203.11 221.58&#10;  Q 203.22 221.76 203.36 221.91&#10;  Q 203.55 222.12 203.95 222.14&#10;  Q 209.48 222.40 215.03 222.70&#10;  L 155.54 222.69&#10;  Q 158.02 222.60 160.49 222.58&#10;  Q 160.69 222.58 160.69 222.38&#10;  L 160.69 222.37&#10;  Q 160.69 222.19 160.51 222.17&#10;  Q 159.11 222.04 157.61 222.19&#10;  Q 156.80 222.28 157.14 221.54&#10;  L 174.75 184.01&#10;  L 192.75 183.98&#10;  Q 193.31 183.98 193.49 183.46&#10;  L 214.88 121.45&#10;  Q 215.27 120.31 215.66 121.44&#10;  L 230.08 163.26&#10;  Z" />
    <path fill="#f18337"
        d="&#10;  M 156.01 130.29&#10;  L 164.79 156.18&#10;  Q 164.19 157.45 163.46 158.17&#10;  Q 163.08 158.54 163.15 159.06&#10;  Q 163.23 159.67 162.69 159.95&#10;  Q 162.22 160.20 162.11 160.72&#10;  Q 161.70 162.64 160.62 164.17&#10;  Q 160.37 164.52 160.31 164.95&#10;  Q 160.16 165.95 159.68 166.88&#10;  Q 156.29 173.47 153.66 179.32&#10;  Q 150.79 185.69 147.82 191.81&#10;  Q 143.71 200.29 139.04 210.08&#10;  Q 136.55 215.31 133.74 220.74&#10;  Q 133.58 221.06 133.32 221.30&#10;  Q 133.05 221.55 133.28 221.83&#10;  Q 133.47 222.07 133.51 222.58&#10;  Q 123.24 221.96 113.71 219.35&#10;  Q 112.72 217.80 114.45 216.95&#10;  Q 115.02 216.68 114.88 216.07&#10;  Q 114.70 215.27 115.48 214.96&#10;  A 0.70 0.70 0.0 0 0 115.90 214.12&#10;  Q 115.68 213.32 116.43 212.98&#10;  Q 117.05 212.69 116.91 212.03&#10;  Q 116.73 211.14 117.58 210.87&#10;  A 0.52 0.52 0.0 0 0 117.93 210.23&#10;  Q 117.45 208.56 118.69 207.73&#10;  Q 118.97 207.54 118.93 207.20&#10;  Q 118.85 206.51 119.36 206.02&#10;  Q 119.72 205.68 119.94 205.22&#10;  L 139.74 163.29&#10;  Q 139.88 163.00 139.90 162.68&#10;  Q 139.93 162.08 140.57 161.87&#10;  Q 141.04 161.72 140.90 161.25&#10;  Q 140.63 160.32 141.50 159.94&#10;  A 0.75 0.73 72.2 0 0 141.92 159.10&#10;  Q 141.70 158.12 142.64 157.84&#10;  A 0.42 0.42 0.0 0 0 142.92 157.31&#10;  Q 142.60 156.32 143.53 155.91&#10;  A 0.63 0.63 0.0 0 0 143.90 155.17&#10;  Q 143.69 154.38 144.37 153.98&#10;  Q 145.12 153.55 144.90 152.71&#10;  Q 144.59 151.57 145.49 150.89&#10;  Q 146.13 150.42 145.93 149.65&#10;  Q 145.80 149.17 146.29 149.05&#10;  A 0.80 0.79 -11.9 0 0 146.90 148.12&#10;  Q 146.72 147.13 147.65 146.82&#10;  Q 148.02 146.70 147.91 146.32&#10;  Q 147.61 145.32 148.52 144.92&#10;  A 0.70 0.70 0.0 0 0 148.92 144.13&#10;  Q 148.70 143.13 149.66 142.82&#10;  Q 150.01 142.71 149.91 142.35&#10;  Q 149.62 141.34 150.53 140.89&#10;  Q 151.09 140.61 150.90 140.02&#10;  Q 150.67 139.32 151.34 139.06&#10;  A 0.88 0.87 -14.8 0 0 151.90 138.11&#10;  Q 151.74 137.12 152.65 136.83&#10;  A 0.42 0.41 73.1 0 0 152.92 136.31&#10;  Q 152.61 135.34 153.51 134.92&#10;  Q 153.97 134.70 153.92 134.19&#10;  Q 153.86 133.53 153.92 132.89&#10;  Q 153.98 132.23 154.39 131.72&#10;  Q 155.32 130.53 156.01 130.29&#10;  Z" />
    <path fill="#ee524a"
        d="&#10;  M 356.81 134.93&#10;  L 359.57 141.44&#10;  Q 359.80 141.98 359.21 141.98&#10;  L 352.49 141.97&#10;  L 356.81 134.93&#10;  Z" />
    <path fill="#ed464d"
        d="&#10;  M 421.24 138.92&#10;  L 421.24 169.29&#10;  Q 420.95 169.28 420.90 168.92&#10;  Q 420.81 168.22 420.27 168.60&#10;  Q 420.10 168.71 419.88 168.79&#10;  Q 419.50 168.92 419.10 168.92&#10;  L 393.47 169.26&#10;  L 381.13 140.31&#10;  L 381.37 139.48&#10;  Q 381.51 139.00 382.01 139.00&#10;  L 421.24 138.92&#10;  Z" />
    <path fill="#ed464d"
        d="&#10;  M 530.98 150.96&#10;  L 530.98 170.93&#10;  Q 530.49 171.66 530.39 172.56&#10;  Q 530.38 172.62 530.32 172.64&#10;  Q 530.27 172.66 530.22 172.65&#10;  Q 530.03 172.62 530.09 172.43&#10;  Q 530.31 171.72 529.92 171.25&#10;  Q 529.60 170.87 529.10 170.87&#10;  L 498.12 171.18&#10;  L 485.16 152.22&#10;  L 485.08 151.32&#10;  Q 485.01 150.52 485.75 150.85&#10;  Q 485.97 150.95 486.10 151.14&#10;  Q 486.46 151.68 487.09 151.51&#10;  C 488.21 151.21 489.25 150.86 490.44 150.87&#10;  Q 509.99 150.88 529.22 150.88&#10;  A 0.87 0.85 69.1 0 1 529.87 151.18&#10;  Q 530.33 151.72 530.22 152.44&#10;  A 0.05 0.04 50.0 0 1 530.13 152.43&#10;  L 530.13 151.73&#10;  Q 530.13 151.35 530.47 151.53&#10;  Q 530.65 151.63 530.63 151.80&#10;  Q 530.51 150.93 530.98 150.96&#10;  Z" />
    <path fill="#ed464d"
        d="&#10;  M 475.02 174.70&#10;  Q 474.82 174.69 474.70 174.79&#10;  Q 474.56 174.90 474.60 174.73&#10;  Q 474.61 174.68 474.59 174.63&#10;  Q 474.50 174.43 474.28 174.45&#10;  Q 461.83 175.18 447.01 174.81&#10;  Q 445.64 174.77 444.65 175.66&#10;  Q 444.22 176.04 444.38 175.49&#10;  Q 444.52 175.02 444.32 174.63&#10;  Q 443.93 173.85 443.68 174.69&#10;  L 443.28 175.97&#10;  L 443.29 152.50&#10;  Q 443.30 152.00 443.79 152.00&#10;  L 459.04 152.00&#10;  A 1.50 1.48 -16.4 0 1 460.29 152.67&#10;  L 475.02 174.70&#10;  Z" />
    <path fill="#f09136"
        d="&#10;  M 164.79 156.18&#10;  Q 170.91 173.83 173.83 183.00&#10;  Q 174.07 183.77 174.75 184.01&#10;  L 157.14 221.54&#10;  Q 156.80 222.28 157.61 222.19&#10;  Q 159.11 222.04 160.51 222.17&#10;  Q 160.69 222.19 160.69 222.37&#10;  L 160.69 222.38&#10;  Q 160.69 222.58 160.49 222.58&#10;  Q 158.02 222.60 155.54 222.69&#10;  L 133.51 222.58&#10;  Q 133.47 222.07 133.28 221.83&#10;  Q 133.05 221.55 133.32 221.30&#10;  Q 133.58 221.06 133.74 220.74&#10;  Q 136.55 215.31 139.04 210.08&#10;  Q 143.71 200.29 147.82 191.81&#10;  Q 150.79 185.69 153.66 179.32&#10;  Q 156.29 173.47 159.68 166.88&#10;  Q 160.16 165.95 160.31 164.95&#10;  Q 160.37 164.52 160.62 164.17&#10;  Q 161.70 162.64 162.11 160.72&#10;  Q 162.22 160.20 162.69 159.95&#10;  Q 163.23 159.67 163.15 159.06&#10;  Q 163.08 158.54 163.46 158.17&#10;  Q 164.19 157.45 164.79 156.18&#10;  Z" />
    <path fill="#ee294f"
        d="&#10;  M 553.01 160.46&#10;  Q 554.30 160.17 554.76 160.49&#10;  Q 572.27 172.79 592.56 178.77&#10;  Q 599.90 180.94 612.05 183.05&#10;  Q 638.03 187.58 663.75 193.76&#10;  Q 668.05 194.79 672.07 195.93&#10;  Q 672.35 196.01 672.35 196.30&#10;  Q 672.35 196.44 672.24 196.54&#10;  Q 672.05 196.72 672.28 196.60&#10;  Q 672.60 196.44 672.87 196.73&#10;  Q 673.21 197.08 672.72 197.08&#10;  L 609.88 197.14&#10;  Q 609.66 197.14 609.47 197.26&#10;  Q 609.34 197.34 609.19 197.34&#10;  Q 572.80 197.04 536.44 197.13&#10;  Q 530.78 197.14 524.61 197.35&#10;  C 518.97 197.53 513.26 197.16 507.74 197.14&#10;  Q 491.27 197.10 474.80 197.14&#10;  C 474.27 197.14 474.20 197.34 473.69 197.34&#10;  Q 461.09 197.41 449.24 197.34&#10;  Q 449.01 197.34 448.78 197.26&#10;  Q 448.41 197.12 448.01 197.12&#10;  L 423.74 197.12&#10;  Q 423.34 197.12 422.97 197.26&#10;  Q 422.74 197.34 422.50 197.34&#10;  Q 413.50 197.41 404.50 197.34&#10;  Q 404.26 197.34 404.02 197.25&#10;  Q 403.65 197.12 403.26 197.12&#10;  Q 389.05 197.13 374.84 197.12&#10;  Q 374.54 197.12 374.18 197.28&#10;  Q 373.79 197.44 373.50 197.44&#10;  Q 344.04 197.12 313.60 196.95&#10;  L 339.41 161.56&#10;  L 367.15 161.57&#10;  Q 367.66 161.57 367.85 162.04&#10;  L 376.37 182.97&#10;  A 0.46 0.45 78.2 0 0 376.79 183.25&#10;  L 398.96 183.25&#10;  A 0.32 0.32 0.0 0 0 399.25 182.80&#10;  L 393.47 169.26&#10;  L 419.10 168.92&#10;  Q 419.50 168.92 419.88 168.79&#10;  Q 420.10 168.71 420.27 168.60&#10;  Q 420.81 168.22 420.90 168.92&#10;  Q 420.95 169.28 421.24 169.29&#10;  L 421.30 182.75&#10;  Q 421.30 183.25 421.79 183.25&#10;  L 442.57 183.25&#10;  Q 443.19 183.25 443.19 182.64&#10;  L 443.28 175.97&#10;  L 443.68 174.69&#10;  Q 443.93 173.85 444.32 174.63&#10;  Q 444.52 175.02 444.38 175.49&#10;  Q 444.22 176.04 444.65 175.66&#10;  Q 445.64 174.77 447.01 174.81&#10;  Q 461.83 175.18 474.28 174.45&#10;  Q 474.50 174.43 474.59 174.63&#10;  Q 474.61 174.68 474.60 174.73&#10;  Q 474.56 174.90 474.70 174.79&#10;  Q 474.82 174.69 475.02 174.70&#10;  L 480.53 182.85&#10;  Q 480.81 183.25 481.30 183.25&#10;  L 505.70 183.25&#10;  Q 506.26 183.25 505.94 182.78&#10;  L 498.12 171.18&#10;  L 529.10 170.87&#10;  Q 529.60 170.87 529.92 171.25&#10;  Q 530.31 171.72 530.09 172.43&#10;  Q 530.03 172.62 530.22 172.65&#10;  Q 530.27 172.66 530.32 172.64&#10;  Q 530.38 172.62 530.39 172.56&#10;  Q 530.49 171.66 530.98 170.93&#10;  L 531.08 182.64&#10;  Q 531.09 183.25 531.70 183.25&#10;  L 552.45 183.25&#10;  Q 552.96 183.25 552.96 182.74&#10;  L 553.01 160.46&#10;  Z" />
    <path fill="#f16d37"
        d="&#10;  M 339.41 161.56&#10;  L 313.60 196.95&#10;  Q 304.52 208.93 294.04 221.73&#10;  Q 293.81 222.02 293.96 222.56&#10;  L 233.70 222.65&#10;  Q 233.98 222.03 235.50 222.10&#10;  Q 241.29 222.38 248.85 221.88&#10;  Q 248.91 221.88 248.95 221.84&#10;  Q 249.00 221.79 248.93 221.77&#10;  Q 248.87 221.76 248.82 221.78&#10;  Q 247.97 222.07 247.38 221.75&#10;  Q 246.90 221.50 247.28 221.11&#10;  L 255.27 213.11&#10;  Q 255.51 212.87 255.84 212.87&#10;  Q 256.00 212.87 256.16 212.89&#10;  Q 256.47 212.92 256.68 212.70&#10;  L 282.18 187.21&#10;  Q 282.55 186.83 283.07 186.87&#10;  Q 283.21 186.88 283.35 186.88&#10;  Q 283.53 186.88 283.65 186.75&#10;  Q 291.12 178.65 300.21 170.99&#10;  L 295.29 182.86&#10;  A 0.28 0.28 0.0 0 0 295.55 183.25&#10;  L 316.97 183.25&#10;  Q 317.49 183.25 317.68 182.77&#10;  L 326.14 162.05&#10;  Q 326.33 161.57 326.85 161.57&#10;  L 339.41 161.56&#10;  Z" />
    <path fill="#f0af36"
        d="&#10;  M 230.08 163.26&#10;  L 236.98 183.38&#10;  A 0.89 0.88 -8.9 0 0 237.80 183.97&#10;  L 242.00 184.04&#10;  Q 238.87 202.98 234.33 221.36&#10;  Q 234.21 221.87 233.74 222.08&#10;  L 232.41 222.70&#10;  L 215.03 222.70&#10;  Q 209.48 222.40 203.95 222.14&#10;  Q 203.55 222.12 203.36 221.91&#10;  Q 203.22 221.76 203.11 221.58&#10;  A 0.32 0.32 0.0 0 1 203.30 221.10&#10;  Q 204.19 220.84 204.00 219.92&#10;  Q 203.87 219.25 204.50 218.98&#10;  Q 205.21 218.67 205.02 217.88&#10;  Q 204.86 217.25 205.46 217.00&#10;  Q 206.22 216.68 206.02 215.85&#10;  Q 205.88 215.27 206.42 215.01&#10;  Q 206.56 214.94 206.71 214.93&#10;  A 0.40 0.40 0.0 0 0 207.05 214.40&#10;  Q 206.69 213.40 207.52 213.00&#10;  Q 208.00 212.77 208.00 212.23&#10;  L 208.00 210.94&#10;  Q 208.00 210.27 208.58 209.94&#10;  Q 209.18 209.60 209.02 208.89&#10;  Q 208.87 208.25 209.47 207.99&#10;  Q 210.24 207.67 210.01 206.82&#10;  Q 209.88 206.36 210.27 206.09&#10;  Q 210.44 205.97 210.64 205.92&#10;  A 0.50 0.49 76.5 0 0 211.01 205.31&#10;  Q 210.76 204.30 211.60 203.96&#10;  Q 212.11 203.75 211.98 203.22&#10;  Q 211.77 202.31 212.59 201.97&#10;  Q 213.12 201.74 212.98 201.18&#10;  Q 212.77 200.31 213.58 199.97&#10;  Q 214.12 199.75 213.98 199.18&#10;  Q 213.77 198.31 214.56 197.98&#10;  Q 215.13 197.75 214.98 197.15&#10;  Q 214.78 196.32 215.54 196.00&#10;  Q 216.13 195.75 215.98 195.13&#10;  Q 215.81 194.40 216.42 194.05&#10;  Q 217.00 193.73 217.00 193.06&#10;  L 217.00 191.94&#10;  Q 217.00 191.27 217.58 190.94&#10;  Q 218.19 190.60 218.02 189.88&#10;  Q 217.87 189.25 218.47 189.00&#10;  Q 219.22 188.68 219.02 187.86&#10;  Q 218.87 187.25 219.44 187.01&#10;  Q 220.27 186.67 219.99 185.75&#10;  Q 219.84 185.22 220.37 185.04&#10;  L 220.67 184.94&#10;  A 0.52 0.52 0.0 0 0 221.01 184.31&#10;  Q 220.72 183.33 221.59 182.96&#10;  Q 222.12 182.74 221.98 182.19&#10;  Q 221.77 181.31 222.57 180.98&#10;  Q 223.12 180.75 222.98 180.18&#10;  Q 222.77 179.31 223.57 178.98&#10;  Q 224.13 178.75 223.98 178.16&#10;  Q 223.77 177.31 224.56 176.99&#10;  Q 225.12 176.75 224.98 176.16&#10;  Q 224.80 175.35 225.51 175.00&#10;  A 1.01 1.01 0.0 0 0 226.03 173.79&#10;  Q 225.62 172.53 226.66 171.89&#10;  Q 227.16 171.57 227.00 171.01&#10;  Q 226.81 170.38 227.38 170.09&#10;  Q 227.94 169.80 227.89 169.18&#10;  Q 227.65 165.84 228.25 163.23&#10;  Q 228.30 163.00 228.58 162.94&#10;  Q 228.82 162.88 228.93 163.10&#10;  Q 229.16 163.57 230.08 163.26&#10;  Z" />
</svg>